M48
; DRILL file {KiCad 7.0.11+dfsg-1build4} date Fri 17 Jan 2025 06:31:41 AM CST
; FORMAT={-:-/ absolute / inch / decimal}
; #@! TF.CreationDate,2025-01-17T06:31:41-06:00
; #@! TF.GenerationSoftware,Kicad,Pcbnew,7.0.11+dfsg-1build4
; #@! TF.FileFunction,Plated,1,2,PTH
FMAT,2
INCH
; #@! TA.AperFunction,Plated,PTH,ViaDrill
T1C0.0157
; #@! TA.AperFunction,Plated,PTH,ComponentDrill
T2C0.0315
; #@! TA.AperFunction,Plated,PTH,ComponentDrill
T3C0.0394
; #@! TA.AperFunction,Plated,PTH,ComponentDrill
T4C0.0402
; #@! TA.AperFunction,Plated,PTH,ComponentDrill
T5C0.0433
; #@! TA.AperFunction,Plated,PTH,ComponentDrill
T6C0.0472
; #@! TA.AperFunction,Plated,PTH,ComponentDrill
T7C0.0512
; #@! TA.AperFunction,Plated,PTH,ComponentDrill
T8C0.0598
; #@! TA.AperFunction,Plated,PTH,ComponentDrill
T9C0.0984
%
G90
G05
T1
X2.5512Y-4.5591
X3.1567Y-2.2402
X3.7626Y-2.2417
X3.8677Y-2.2874
X3.9701Y-2.3343
X4.3169Y-2.1902
X4.3236Y-2.2874
X4.3287Y-2.2417
X4.3583Y-2.3346
X4.5354Y-2.6811
X4.6244Y-2.7138
X4.6756Y-4.9669
X4.7844Y-2.25
X4.8356Y-2.25
X5.1098Y-2.7949
X5.1126Y-2.6165
X5.2634Y-2.7821
X5.278Y-2.5425
X5.3636Y-2.5535
X5.3819Y-2.7555
X5.5055Y-2.7374
T2
X2.3583Y-3.8126
X2.3583Y-4.1126
X2.3591Y-4.7457
X2.3591Y-5.0457
X2.3614Y-5.1484
X2.3614Y-5.4484
X2.3665Y-5.5433
X2.3665Y-5.8433
X2.3681Y-4.2059
X2.3681Y-4.5059
X2.3839Y-3.2004
X2.3839Y-3.5004
X2.3965Y-2.7976
X2.3965Y-3.0976
X2.4795Y-4.5551
X2.4803Y-4.6811
X2.4878Y-3.6063
X2.4882Y-3.7323
X2.5Y-4.8063
X2.5Y-5.1063
X2.5031Y-4.4173
X2.5035Y-4.2874
X2.5071Y-3.8614
X2.5071Y-4.1614
X2.51Y-5.51
X2.51Y-5.7069
X2.5315Y-3.4795
X2.6Y-4.8063
X2.6Y-5.1063
X2.6024Y-2.9764
X2.6024Y-3.1732
X2.6063Y-2.4449
X2.6063Y-2.6417
X2.6071Y-3.8614
X2.6071Y-4.1614
X2.6685Y-2.311
X2.6772Y-4.6811
X2.685Y-3.7323
X2.6898Y-5.572
X2.6898Y-5.6705
X2.7Y-4.8063
X2.7Y-5.1063
X2.7071Y-3.8614
X2.7071Y-4.1614
X2.7165Y-2.8799
X2.7795Y-4.5551
X2.7878Y-3.6063
X2.7992Y-2.448
X2.7992Y-2.748
X2.8Y-4.8063
X2.8Y-5.1063
X2.8031Y-3.0228
X2.8031Y-3.3228
X2.8031Y-4.4173
X2.8035Y-4.2874
X2.8071Y-3.8614
X2.8071Y-4.1614
X2.8315Y-3.4795
X2.8992Y-2.448
X2.8992Y-2.748
X2.9031Y-3.0228
X2.9031Y-3.3228
X2.91Y-5.5799
X2.91Y-5.6783
X2.9398Y-5.0783
X2.9398Y-5.3783
X2.9425Y-4.9539
X2.9685Y-2.311
X2.9992Y-2.448
X2.9992Y-2.748
X3.0031Y-3.0228
X3.0031Y-3.3228
X3.0094Y-3.4398
X3.0094Y-3.6366
X3.0118Y-3.7287
X3.0118Y-3.9256
X3.0126Y-4.311
X3.0126Y-4.5079
X3.013Y-4.0181
X3.013Y-4.215
X3.0165Y-2.8799
X3.0181Y-4.6028
X3.0181Y-4.7996
X3.0614Y-5.0858
X3.0614Y-5.3858
X3.0992Y-2.448
X3.0992Y-2.748
X3.1031Y-3.0228
X3.1031Y-3.3228
X3.1374Y-3.4398
X3.1374Y-3.6366
X3.1406Y-4.3098
X3.1406Y-4.5067
X3.1409Y-3.7283
X3.1409Y-3.9252
X3.1413Y-4.0185
X3.1413Y-4.2154
X3.1441Y-4.6024
X3.1441Y-4.7992
X3.1783Y-5.0862
X3.1783Y-5.2831
X3.2362Y-3.0551
X3.2362Y-3.3551
X3.2425Y-4.9539
X3.2555Y-4.0949
X3.2563Y-3.9673
X3.2567Y-4.3516
X3.2571Y-4.2224
X3.2583Y-3.5752
X3.2583Y-3.7173
X3.2587Y-4.4835
X3.2602Y-3.8421
X3.2626Y-4.7819
X3.2642Y-4.6543
X3.2835Y-2.4933
X3.2835Y-2.7933
X3.3311Y-5.0815
X3.3311Y-5.3815
X3.3492Y-4.9811
X3.39Y-3.14
X3.39Y-3.3369
X3.41Y-2.79
X3.41Y-2.9869
X3.4795Y-5.1445
X3.4795Y-5.3413
X3.5Y-3.1575
X3.5Y-3.29
X3.5555Y-4.0949
X3.5563Y-3.9673
X3.5567Y-4.3516
X3.5571Y-4.2224
X3.5583Y-3.5752
X3.5583Y-3.7173
X3.5587Y-4.4835
X3.5602Y-3.8421
X3.5626Y-4.7819
X3.5642Y-4.6543
X3.6311Y-5.1827
X3.6311Y-5.4827
X3.6492Y-4.9811
X3.75Y-5.07
X3.7587Y-5.1807
X3.7587Y-5.4807
X3.8Y-3.1575
X3.8Y-3.29
X3.8098Y-2.5346
X3.8098Y-2.7315
X3.811Y-2.8406
X3.811Y-3.0374
X3.89Y-5.17
X3.89Y-5.47
X3.937Y-2.5346
X3.937Y-2.7315
X3.9398Y-2.8421
X3.9398Y-3.039
X4.01Y-3.2
X4.01Y-3.33
X4.01Y-5.17
X4.01Y-5.47
X4.0303Y-4.9035
X4.0492Y-2.5953
X4.05Y-2.7205
X4.05Y-5.07
X4.0504Y-2.9882
X4.0508Y-2.8598
X4.125Y-5.175
X4.125Y-5.3719
X4.15Y-5.06
X4.255Y-5.175
X4.255Y-5.475
X4.31Y-3.2
X4.31Y-3.33
X4.3303Y-4.9035
X4.3492Y-2.5953
X4.35Y-2.7205
X4.3504Y-2.9882
X4.3508Y-2.8598
X4.3654Y-5.4736
X4.3665Y-5.339
X4.4335Y-5.2087
X4.45Y-5.06
X4.55Y-3.06
X4.55Y-3.36
X4.565Y-5.07
X4.58Y-4.95
X4.6303Y-5.2087
X4.639Y-2.5882
X4.639Y-2.785
X4.6654Y-5.4736
X4.6665Y-5.339
X4.6717Y-2.476
X4.672Y-2.3594
X4.69Y-3.07
X4.69Y-3.37
X4.7636Y-2.6642
X4.7636Y-2.9642
X4.775Y-5.175
X4.775Y-5.475
X4.8636Y-2.6642
X4.8636Y-2.9642
X4.865Y-5.07
X4.88Y-4.95
X4.89Y-5.175
X4.89Y-5.475
X4.9636Y-2.6642
X4.9636Y-2.9642
X4.9697Y-3.0748
X4.9697Y-3.3748
X4.9717Y-2.476
X4.972Y-2.3594
X5.01Y-4.89
X5.01Y-5.19
X5.0102Y-5.2799
X5.0102Y-5.4768
X5.0636Y-2.6642
X5.0636Y-2.9642
X5.11Y-3.0772
X5.11Y-3.3772
X5.135Y-5.175
X5.135Y-5.475
X5.14Y-4.87
X5.14Y-5.0669
X5.1636Y-2.6642
X5.1636Y-2.9642
X5.25Y-3.07
X5.25Y-3.37
X5.2636Y-2.6642
X5.2636Y-2.9642
X5.274Y-4.887
X5.274Y-5.187
X5.274Y-5.2925
X5.274Y-5.4894
X5.3636Y-2.6642
X5.3636Y-2.9642
X5.4031Y-5.4642
X5.4098Y-5.3323
X5.41Y-4.915
X5.41Y-5.215
X5.5171Y-5.09
X5.52Y-4.94
X5.6161Y-2.8484
X5.6161Y-3.1484
X5.62Y-4.94
X5.7031Y-5.4642
X5.7098Y-5.3323
X5.714Y-5.09
X5.72Y-4.94
X5.74Y-3.38
X5.74Y-3.68
X5.7441Y-2.8449
X5.7441Y-3.1449
X5.7945Y-2.4024
X5.7945Y-2.5024
X5.7945Y-2.6024
X5.82Y-4.78
X5.82Y-5.08
X5.82Y-5.18
X5.82Y-5.48
T4
X3.7689Y-4.0067
X3.7689Y-4.7067
X3.778Y-4.2567
X3.778Y-4.3567
X3.778Y-4.4567
X3.8689Y-4.0067
X3.8689Y-4.7067
X3.9689Y-4.0067
X3.9689Y-4.7067
X4.0689Y-4.0067
X4.0689Y-4.7067
X4.1689Y-4.0067
X4.1689Y-4.7067
X4.2689Y-4.0067
X4.2689Y-4.7067
X4.3689Y-4.0067
X4.3689Y-4.7067
X4.4689Y-4.0067
X4.4689Y-4.7067
X4.5689Y-4.0067
X4.5689Y-4.7067
X4.6689Y-4.0067
X4.6689Y-4.7067
X4.7689Y-4.0067
X4.7689Y-4.7067
X4.8689Y-4.0067
X4.8689Y-4.7067
X4.9689Y-4.0067
X4.9689Y-4.7067
X5.0689Y-4.0067
X5.0689Y-4.7067
X5.1689Y-4.0067
X5.1689Y-4.7067
X5.2689Y-4.0067
X5.2689Y-4.7067
X5.3689Y-4.0067
X5.3689Y-4.7067
X5.4689Y-4.0067
X5.4689Y-4.7067
X5.5689Y-4.0067
X5.5689Y-4.7067
X5.6689Y-4.0067
X5.6689Y-4.7067
T5
X2.5598Y-5.3122
X2.6524Y-5.8098
X2.6598Y-5.3122
X2.7598Y-5.3122
X2.9524Y-5.8098
X3.6811Y-3.5252
X3.6811Y-3.7024
X3.937Y-3.5252
X3.937Y-3.7024
X4.0906Y-3.5283
X4.0906Y-3.7055
X4.3465Y-3.5283
X4.3465Y-3.7055
X4.5079Y-3.5276
X4.5079Y-3.7047
X4.7638Y-3.5276
X4.7638Y-3.7047
X4.9299Y-3.5276
X4.9299Y-3.7047
X5.1858Y-3.5276
X5.1858Y-3.7047
X5.3346Y-3.5299
X5.3346Y-3.7071
X5.5906Y-3.5299
X5.5906Y-3.7071
T6
X2.7547Y-2.0882
X2.8547Y-2.0882
X2.9547Y-2.0882
X3.0547Y-2.0882
X3.1547Y-2.0882
X3.2547Y-2.0882
X3.3547Y-2.0882
X3.4547Y-2.0882
X3.5547Y-2.0882
X3.6547Y-2.0882
X3.7547Y-2.0882
X3.8547Y-2.0882
X3.9547Y-2.0882
X4.0547Y-2.0882
X4.1547Y-2.0882
X4.2547Y-2.0882
T7
X3.1941Y-5.4138
X3.4512Y-5.4717
T8
X2.1197Y-2.45
X2.1197Y-2.65
X2.1197Y-2.85
X2.1197Y-3.05
X2.1197Y-3.25
X2.1197Y-3.45
X2.1197Y-3.65
X2.1197Y-3.85
X2.1197Y-4.05
X2.1197Y-4.25
X2.1197Y-4.45
X2.1197Y-4.65
X2.1197Y-4.85
X2.1197Y-5.05
X2.1197Y-5.25
X2.1197Y-5.45
X3.6Y-5.7
X3.8Y-5.7
X4.0Y-5.7
X4.2Y-5.7
X4.4Y-5.7
X4.6Y-5.7
X4.8Y-5.7
X5.0Y-5.7
X5.2Y-5.7
X5.4Y-5.7
T9
X2.5382Y-2.0882
X2.5382Y-3.3087
X5.4909Y-3.3087
X5.4909Y-2.0882
T3
G00X3.1756Y-5.5919
M15
G01X3.2543Y-5.5919
M16
G05
G00X3.1756Y-5.8281
M15
G01X3.2543Y-5.8281
M16
G05
G00X3.4Y-5.7494
M15
G01X3.4Y-5.6706
M16
G05
M30
