%TF.GenerationSoftware,KiCad,Pcbnew,7.0.11+dfsg-1build4*%
%TF.CreationDate,2025-01-17T06:31:40-06:00*%
%TF.ProjectId,Metermaker,4d657465-726d-4616-9b65-722e6b696361,rev?*%
%TF.SameCoordinates,Original*%
%TF.FileFunction,Drillmap*%
%TF.FilePolarity,Positive*%
%FSLAX45Y45*%
G04 Gerber Fmt 4.5, Leading zero omitted, Abs format (unit mm)*
G04 Created by KiCad (PCBNEW 7.0.11+dfsg-1build4) date 2025-01-17 06:31:40*
%MOMM*%
%LPD*%
G01*
G04 APERTURE LIST*
%ADD10C,0.100000*%
%ADD11C,0.200000*%
%ADD12C,0.102000*%
%ADD13C,0.110000*%
%ADD14C,0.120000*%
%ADD15C,0.130000*%
%ADD16C,0.152000*%
%ADD17C,0.250000*%
G04 APERTURE END LIST*
D10*
X5000000Y-15000000D02*
X5000000Y-5000000D01*
X15000000Y-15000000D02*
X5000000Y-15000000D01*
X5000000Y-5000000D02*
X15000000Y-5000000D01*
X15000000Y-5000000D02*
X15000000Y-15000000D01*
D11*
D10*
X6460000Y-11560000D02*
X6500000Y-11600000D01*
X6500000Y-11560000D02*
X6460000Y-11600000D01*
X7998000Y-5670000D02*
X8038000Y-5710000D01*
X8038000Y-5670000D02*
X7998000Y-5710000D01*
X9537000Y-5674000D02*
X9577000Y-5714000D01*
X9577000Y-5674000D02*
X9537000Y-5714000D01*
X9804000Y-5790000D02*
X9844000Y-5830000D01*
X9844000Y-5790000D02*
X9804000Y-5830000D01*
X10064000Y-5909000D02*
X10104000Y-5949000D01*
X10104000Y-5909000D02*
X10064000Y-5949000D01*
X10945000Y-5543000D02*
X10985000Y-5583000D01*
X10985000Y-5543000D02*
X10945000Y-5583000D01*
X10962000Y-5790000D02*
X11002000Y-5830000D01*
X11002000Y-5790000D02*
X10962000Y-5830000D01*
X10975000Y-5674000D02*
X11015000Y-5714000D01*
X11015000Y-5674000D02*
X10975000Y-5714000D01*
X11050000Y-5910000D02*
X11090000Y-5950000D01*
X11090000Y-5910000D02*
X11050000Y-5950000D01*
X11500000Y-6790000D02*
X11540000Y-6830000D01*
X11540000Y-6790000D02*
X11500000Y-6830000D01*
X11726000Y-6873000D02*
X11766000Y-6913000D01*
X11766000Y-6873000D02*
X11726000Y-6913000D01*
X11856000Y-12596000D02*
X11896000Y-12636000D01*
X11896000Y-12596000D02*
X11856000Y-12636000D01*
X12132400Y-5695000D02*
X12172400Y-5735000D01*
X12172400Y-5695000D02*
X12132400Y-5735000D01*
X12262400Y-5695000D02*
X12302400Y-5735000D01*
X12302400Y-5695000D02*
X12262400Y-5735000D01*
X12959000Y-7079000D02*
X12999000Y-7119000D01*
X12999000Y-7079000D02*
X12959000Y-7119000D01*
X12966000Y-6626000D02*
X13006000Y-6666000D01*
X13006000Y-6626000D02*
X12966000Y-6666000D01*
X13349000Y-7046500D02*
X13389000Y-7086500D01*
X13389000Y-7046500D02*
X13349000Y-7086500D01*
X13386000Y-6438000D02*
X13426000Y-6478000D01*
X13426000Y-6438000D02*
X13386000Y-6478000D01*
X13603500Y-6466000D02*
X13643500Y-6506000D01*
X13643500Y-6466000D02*
X13603500Y-6506000D01*
X13650000Y-6979000D02*
X13690000Y-7019000D01*
X13690000Y-6979000D02*
X13650000Y-7019000D01*
X13964000Y-6933000D02*
X14004000Y-6973000D01*
X14004000Y-6933000D02*
X13964000Y-6973000D01*
X6030000Y-9684000D02*
G75*
G03*
X5950000Y-9684000I-40000J0D01*
G01*
X5950000Y-9684000D02*
G75*
G03*
X6030000Y-9684000I40000J0D01*
G01*
X6030000Y-10446000D02*
G75*
G03*
X5950000Y-10446000I-40000J0D01*
G01*
X5950000Y-10446000D02*
G75*
G03*
X6030000Y-10446000I40000J0D01*
G01*
X6032000Y-12054000D02*
G75*
G03*
X5952000Y-12054000I-40000J0D01*
G01*
X5952000Y-12054000D02*
G75*
G03*
X6032000Y-12054000I40000J0D01*
G01*
X6032000Y-12816000D02*
G75*
G03*
X5952000Y-12816000I-40000J0D01*
G01*
X5952000Y-12816000D02*
G75*
G03*
X6032000Y-12816000I40000J0D01*
G01*
X6038000Y-13077000D02*
G75*
G03*
X5958000Y-13077000I-40000J0D01*
G01*
X5958000Y-13077000D02*
G75*
G03*
X6038000Y-13077000I40000J0D01*
G01*
X6038000Y-13839000D02*
G75*
G03*
X5958000Y-13839000I-40000J0D01*
G01*
X5958000Y-13839000D02*
G75*
G03*
X6038000Y-13839000I40000J0D01*
G01*
X6051000Y-14080000D02*
G75*
G03*
X5971000Y-14080000I-40000J0D01*
G01*
X5971000Y-14080000D02*
G75*
G03*
X6051000Y-14080000I40000J0D01*
G01*
X6051000Y-14842000D02*
G75*
G03*
X5971000Y-14842000I-40000J0D01*
G01*
X5971000Y-14842000D02*
G75*
G03*
X6051000Y-14842000I40000J0D01*
G01*
X6055000Y-10683000D02*
G75*
G03*
X5975000Y-10683000I-40000J0D01*
G01*
X5975000Y-10683000D02*
G75*
G03*
X6055000Y-10683000I40000J0D01*
G01*
X6055000Y-11445000D02*
G75*
G03*
X5975000Y-11445000I-40000J0D01*
G01*
X5975000Y-11445000D02*
G75*
G03*
X6055000Y-11445000I40000J0D01*
G01*
X6095000Y-8129000D02*
G75*
G03*
X6015000Y-8129000I-40000J0D01*
G01*
X6015000Y-8129000D02*
G75*
G03*
X6095000Y-8129000I40000J0D01*
G01*
X6095000Y-8891000D02*
G75*
G03*
X6015000Y-8891000I-40000J0D01*
G01*
X6015000Y-8891000D02*
G75*
G03*
X6095000Y-8891000I40000J0D01*
G01*
X6127000Y-7106000D02*
G75*
G03*
X6047000Y-7106000I-40000J0D01*
G01*
X6047000Y-7106000D02*
G75*
G03*
X6127000Y-7106000I40000J0D01*
G01*
X6127000Y-7868000D02*
G75*
G03*
X6047000Y-7868000I-40000J0D01*
G01*
X6047000Y-7868000D02*
G75*
G03*
X6127000Y-7868000I40000J0D01*
G01*
X6338000Y-11570000D02*
G75*
G03*
X6258000Y-11570000I-40000J0D01*
G01*
X6258000Y-11570000D02*
G75*
G03*
X6338000Y-11570000I40000J0D01*
G01*
X6340000Y-11890000D02*
G75*
G03*
X6260000Y-11890000I-40000J0D01*
G01*
X6260000Y-11890000D02*
G75*
G03*
X6340000Y-11890000I40000J0D01*
G01*
X6359000Y-9160000D02*
G75*
G03*
X6279000Y-9160000I-40000J0D01*
G01*
X6279000Y-9160000D02*
G75*
G03*
X6359000Y-9160000I40000J0D01*
G01*
X6360000Y-9480000D02*
G75*
G03*
X6280000Y-9480000I-40000J0D01*
G01*
X6280000Y-9480000D02*
G75*
G03*
X6360000Y-9480000I40000J0D01*
G01*
X6390000Y-12208000D02*
G75*
G03*
X6310000Y-12208000I-40000J0D01*
G01*
X6310000Y-12208000D02*
G75*
G03*
X6390000Y-12208000I40000J0D01*
G01*
X6390000Y-12970000D02*
G75*
G03*
X6310000Y-12970000I-40000J0D01*
G01*
X6310000Y-12970000D02*
G75*
G03*
X6390000Y-12970000I40000J0D01*
G01*
X6398000Y-11220000D02*
G75*
G03*
X6318000Y-11220000I-40000J0D01*
G01*
X6318000Y-11220000D02*
G75*
G03*
X6398000Y-11220000I40000J0D01*
G01*
X6399000Y-10890000D02*
G75*
G03*
X6319000Y-10890000I-40000J0D01*
G01*
X6319000Y-10890000D02*
G75*
G03*
X6399000Y-10890000I40000J0D01*
G01*
X6408000Y-9808000D02*
G75*
G03*
X6328000Y-9808000I-40000J0D01*
G01*
X6328000Y-9808000D02*
G75*
G03*
X6408000Y-9808000I40000J0D01*
G01*
X6408000Y-10570000D02*
G75*
G03*
X6328000Y-10570000I-40000J0D01*
G01*
X6328000Y-10570000D02*
G75*
G03*
X6408000Y-10570000I40000J0D01*
G01*
X6415400Y-13995400D02*
G75*
G03*
X6335400Y-13995400I-40000J0D01*
G01*
X6335400Y-13995400D02*
G75*
G03*
X6415400Y-13995400I40000J0D01*
G01*
X6415400Y-14495400D02*
G75*
G03*
X6335400Y-14495400I-40000J0D01*
G01*
X6335400Y-14495400D02*
G75*
G03*
X6415400Y-14495400I40000J0D01*
G01*
X6470000Y-8838000D02*
G75*
G03*
X6390000Y-8838000I-40000J0D01*
G01*
X6390000Y-8838000D02*
G75*
G03*
X6470000Y-8838000I40000J0D01*
G01*
X6644000Y-12208000D02*
G75*
G03*
X6564000Y-12208000I-40000J0D01*
G01*
X6564000Y-12208000D02*
G75*
G03*
X6644000Y-12208000I40000J0D01*
G01*
X6644000Y-12970000D02*
G75*
G03*
X6564000Y-12970000I-40000J0D01*
G01*
X6564000Y-12970000D02*
G75*
G03*
X6644000Y-12970000I40000J0D01*
G01*
X6650000Y-7560000D02*
G75*
G03*
X6570000Y-7560000I-40000J0D01*
G01*
X6570000Y-7560000D02*
G75*
G03*
X6650000Y-7560000I40000J0D01*
G01*
X6650000Y-8060000D02*
G75*
G03*
X6570000Y-8060000I-40000J0D01*
G01*
X6570000Y-8060000D02*
G75*
G03*
X6650000Y-8060000I40000J0D01*
G01*
X6660000Y-6210000D02*
G75*
G03*
X6580000Y-6210000I-40000J0D01*
G01*
X6580000Y-6210000D02*
G75*
G03*
X6660000Y-6210000I40000J0D01*
G01*
X6660000Y-6710000D02*
G75*
G03*
X6580000Y-6710000I-40000J0D01*
G01*
X6580000Y-6710000D02*
G75*
G03*
X6660000Y-6710000I40000J0D01*
G01*
X6662000Y-9808000D02*
G75*
G03*
X6582000Y-9808000I-40000J0D01*
G01*
X6582000Y-9808000D02*
G75*
G03*
X6662000Y-9808000I40000J0D01*
G01*
X6662000Y-10570000D02*
G75*
G03*
X6582000Y-10570000I-40000J0D01*
G01*
X6582000Y-10570000D02*
G75*
G03*
X6662000Y-10570000I40000J0D01*
G01*
X6818000Y-5870000D02*
G75*
G03*
X6738000Y-5870000I-40000J0D01*
G01*
X6738000Y-5870000D02*
G75*
G03*
X6818000Y-5870000I40000J0D01*
G01*
X6840000Y-11890000D02*
G75*
G03*
X6760000Y-11890000I-40000J0D01*
G01*
X6760000Y-11890000D02*
G75*
G03*
X6840000Y-11890000I40000J0D01*
G01*
X6860000Y-9480000D02*
G75*
G03*
X6780000Y-9480000I-40000J0D01*
G01*
X6780000Y-9480000D02*
G75*
G03*
X6860000Y-9480000I40000J0D01*
G01*
X6872000Y-14153000D02*
G75*
G03*
X6792000Y-14153000I-40000J0D01*
G01*
X6792000Y-14153000D02*
G75*
G03*
X6872000Y-14153000I40000J0D01*
G01*
X6872000Y-14403000D02*
G75*
G03*
X6792000Y-14403000I-40000J0D01*
G01*
X6792000Y-14403000D02*
G75*
G03*
X6872000Y-14403000I40000J0D01*
G01*
X6898000Y-12208000D02*
G75*
G03*
X6818000Y-12208000I-40000J0D01*
G01*
X6818000Y-12208000D02*
G75*
G03*
X6898000Y-12208000I40000J0D01*
G01*
X6898000Y-12970000D02*
G75*
G03*
X6818000Y-12970000I-40000J0D01*
G01*
X6818000Y-12970000D02*
G75*
G03*
X6898000Y-12970000I40000J0D01*
G01*
X6916000Y-9808000D02*
G75*
G03*
X6836000Y-9808000I-40000J0D01*
G01*
X6836000Y-9808000D02*
G75*
G03*
X6916000Y-9808000I40000J0D01*
G01*
X6916000Y-10570000D02*
G75*
G03*
X6836000Y-10570000I-40000J0D01*
G01*
X6836000Y-10570000D02*
G75*
G03*
X6916000Y-10570000I40000J0D01*
G01*
X6940000Y-7315000D02*
G75*
G03*
X6860000Y-7315000I-40000J0D01*
G01*
X6860000Y-7315000D02*
G75*
G03*
X6940000Y-7315000I40000J0D01*
G01*
X7100000Y-11570000D02*
G75*
G03*
X7020000Y-11570000I-40000J0D01*
G01*
X7020000Y-11570000D02*
G75*
G03*
X7100000Y-11570000I40000J0D01*
G01*
X7121000Y-9160000D02*
G75*
G03*
X7041000Y-9160000I-40000J0D01*
G01*
X7041000Y-9160000D02*
G75*
G03*
X7121000Y-9160000I40000J0D01*
G01*
X7150000Y-6218000D02*
G75*
G03*
X7070000Y-6218000I-40000J0D01*
G01*
X7070000Y-6218000D02*
G75*
G03*
X7150000Y-6218000I40000J0D01*
G01*
X7150000Y-6980000D02*
G75*
G03*
X7070000Y-6980000I-40000J0D01*
G01*
X7070000Y-6980000D02*
G75*
G03*
X7150000Y-6980000I40000J0D01*
G01*
X7152000Y-12208000D02*
G75*
G03*
X7072000Y-12208000I-40000J0D01*
G01*
X7072000Y-12208000D02*
G75*
G03*
X7152000Y-12208000I40000J0D01*
G01*
X7152000Y-12970000D02*
G75*
G03*
X7072000Y-12970000I-40000J0D01*
G01*
X7072000Y-12970000D02*
G75*
G03*
X7152000Y-12970000I40000J0D01*
G01*
X7160000Y-7678000D02*
G75*
G03*
X7080000Y-7678000I-40000J0D01*
G01*
X7080000Y-7678000D02*
G75*
G03*
X7160000Y-7678000I40000J0D01*
G01*
X7160000Y-8440000D02*
G75*
G03*
X7080000Y-8440000I-40000J0D01*
G01*
X7080000Y-8440000D02*
G75*
G03*
X7160000Y-8440000I40000J0D01*
G01*
X7160000Y-11220000D02*
G75*
G03*
X7080000Y-11220000I-40000J0D01*
G01*
X7080000Y-11220000D02*
G75*
G03*
X7160000Y-11220000I40000J0D01*
G01*
X7161000Y-10890000D02*
G75*
G03*
X7081000Y-10890000I-40000J0D01*
G01*
X7081000Y-10890000D02*
G75*
G03*
X7161000Y-10890000I40000J0D01*
G01*
X7170000Y-9808000D02*
G75*
G03*
X7090000Y-9808000I-40000J0D01*
G01*
X7090000Y-9808000D02*
G75*
G03*
X7170000Y-9808000I40000J0D01*
G01*
X7170000Y-10570000D02*
G75*
G03*
X7090000Y-10570000I-40000J0D01*
G01*
X7090000Y-10570000D02*
G75*
G03*
X7170000Y-10570000I40000J0D01*
G01*
X7232000Y-8838000D02*
G75*
G03*
X7152000Y-8838000I-40000J0D01*
G01*
X7152000Y-8838000D02*
G75*
G03*
X7232000Y-8838000I40000J0D01*
G01*
X7404000Y-6218000D02*
G75*
G03*
X7324000Y-6218000I-40000J0D01*
G01*
X7324000Y-6218000D02*
G75*
G03*
X7404000Y-6218000I40000J0D01*
G01*
X7404000Y-6980000D02*
G75*
G03*
X7324000Y-6980000I-40000J0D01*
G01*
X7324000Y-6980000D02*
G75*
G03*
X7404000Y-6980000I40000J0D01*
G01*
X7414000Y-7678000D02*
G75*
G03*
X7334000Y-7678000I-40000J0D01*
G01*
X7334000Y-7678000D02*
G75*
G03*
X7414000Y-7678000I40000J0D01*
G01*
X7414000Y-8440000D02*
G75*
G03*
X7334000Y-8440000I-40000J0D01*
G01*
X7334000Y-8440000D02*
G75*
G03*
X7414000Y-8440000I40000J0D01*
G01*
X7431400Y-14173000D02*
G75*
G03*
X7351400Y-14173000I-40000J0D01*
G01*
X7351400Y-14173000D02*
G75*
G03*
X7431400Y-14173000I40000J0D01*
G01*
X7431400Y-14423000D02*
G75*
G03*
X7351400Y-14423000I-40000J0D01*
G01*
X7351400Y-14423000D02*
G75*
G03*
X7431400Y-14423000I40000J0D01*
G01*
X7507000Y-12899000D02*
G75*
G03*
X7427000Y-12899000I-40000J0D01*
G01*
X7427000Y-12899000D02*
G75*
G03*
X7507000Y-12899000I40000J0D01*
G01*
X7507000Y-13661000D02*
G75*
G03*
X7427000Y-13661000I-40000J0D01*
G01*
X7427000Y-13661000D02*
G75*
G03*
X7507000Y-13661000I40000J0D01*
G01*
X7514000Y-12583000D02*
G75*
G03*
X7434000Y-12583000I-40000J0D01*
G01*
X7434000Y-12583000D02*
G75*
G03*
X7514000Y-12583000I40000J0D01*
G01*
X7580000Y-5870000D02*
G75*
G03*
X7500000Y-5870000I-40000J0D01*
G01*
X7500000Y-5870000D02*
G75*
G03*
X7580000Y-5870000I40000J0D01*
G01*
X7658000Y-6218000D02*
G75*
G03*
X7578000Y-6218000I-40000J0D01*
G01*
X7578000Y-6218000D02*
G75*
G03*
X7658000Y-6218000I40000J0D01*
G01*
X7658000Y-6980000D02*
G75*
G03*
X7578000Y-6980000I-40000J0D01*
G01*
X7578000Y-6980000D02*
G75*
G03*
X7658000Y-6980000I40000J0D01*
G01*
X7668000Y-7678000D02*
G75*
G03*
X7588000Y-7678000I-40000J0D01*
G01*
X7588000Y-7678000D02*
G75*
G03*
X7668000Y-7678000I40000J0D01*
G01*
X7668000Y-8440000D02*
G75*
G03*
X7588000Y-8440000I-40000J0D01*
G01*
X7588000Y-8440000D02*
G75*
G03*
X7668000Y-8440000I40000J0D01*
G01*
X7684000Y-8737000D02*
G75*
G03*
X7604000Y-8737000I-40000J0D01*
G01*
X7604000Y-8737000D02*
G75*
G03*
X7684000Y-8737000I40000J0D01*
G01*
X7684000Y-9237000D02*
G75*
G03*
X7604000Y-9237000I-40000J0D01*
G01*
X7604000Y-9237000D02*
G75*
G03*
X7684000Y-9237000I40000J0D01*
G01*
X7690000Y-9471000D02*
G75*
G03*
X7610000Y-9471000I-40000J0D01*
G01*
X7610000Y-9471000D02*
G75*
G03*
X7690000Y-9471000I40000J0D01*
G01*
X7690000Y-9971000D02*
G75*
G03*
X7610000Y-9971000I-40000J0D01*
G01*
X7610000Y-9971000D02*
G75*
G03*
X7690000Y-9971000I40000J0D01*
G01*
X7692000Y-10950000D02*
G75*
G03*
X7612000Y-10950000I-40000J0D01*
G01*
X7612000Y-10950000D02*
G75*
G03*
X7692000Y-10950000I40000J0D01*
G01*
X7692000Y-11450000D02*
G75*
G03*
X7612000Y-11450000I-40000J0D01*
G01*
X7612000Y-11450000D02*
G75*
G03*
X7692000Y-11450000I40000J0D01*
G01*
X7693000Y-10206000D02*
G75*
G03*
X7613000Y-10206000I-40000J0D01*
G01*
X7613000Y-10206000D02*
G75*
G03*
X7693000Y-10206000I40000J0D01*
G01*
X7693000Y-10706000D02*
G75*
G03*
X7613000Y-10706000I-40000J0D01*
G01*
X7613000Y-10706000D02*
G75*
G03*
X7693000Y-10706000I40000J0D01*
G01*
X7702000Y-7315000D02*
G75*
G03*
X7622000Y-7315000I-40000J0D01*
G01*
X7622000Y-7315000D02*
G75*
G03*
X7702000Y-7315000I40000J0D01*
G01*
X7706000Y-11691000D02*
G75*
G03*
X7626000Y-11691000I-40000J0D01*
G01*
X7626000Y-11691000D02*
G75*
G03*
X7706000Y-11691000I40000J0D01*
G01*
X7706000Y-12191000D02*
G75*
G03*
X7626000Y-12191000I-40000J0D01*
G01*
X7626000Y-12191000D02*
G75*
G03*
X7706000Y-12191000I40000J0D01*
G01*
X7816000Y-12918000D02*
G75*
G03*
X7736000Y-12918000I-40000J0D01*
G01*
X7736000Y-12918000D02*
G75*
G03*
X7816000Y-12918000I40000J0D01*
G01*
X7816000Y-13680000D02*
G75*
G03*
X7736000Y-13680000I-40000J0D01*
G01*
X7736000Y-13680000D02*
G75*
G03*
X7816000Y-13680000I40000J0D01*
G01*
X7912000Y-6218000D02*
G75*
G03*
X7832000Y-6218000I-40000J0D01*
G01*
X7832000Y-6218000D02*
G75*
G03*
X7912000Y-6218000I40000J0D01*
G01*
X7912000Y-6980000D02*
G75*
G03*
X7832000Y-6980000I-40000J0D01*
G01*
X7832000Y-6980000D02*
G75*
G03*
X7912000Y-6980000I40000J0D01*
G01*
X7922000Y-7678000D02*
G75*
G03*
X7842000Y-7678000I-40000J0D01*
G01*
X7842000Y-7678000D02*
G75*
G03*
X7922000Y-7678000I40000J0D01*
G01*
X7922000Y-8440000D02*
G75*
G03*
X7842000Y-8440000I-40000J0D01*
G01*
X7842000Y-8440000D02*
G75*
G03*
X7922000Y-8440000I40000J0D01*
G01*
X8009000Y-8737000D02*
G75*
G03*
X7929000Y-8737000I-40000J0D01*
G01*
X7929000Y-8737000D02*
G75*
G03*
X8009000Y-8737000I40000J0D01*
G01*
X8009000Y-9237000D02*
G75*
G03*
X7929000Y-9237000I-40000J0D01*
G01*
X7929000Y-9237000D02*
G75*
G03*
X8009000Y-9237000I40000J0D01*
G01*
X8017000Y-10947000D02*
G75*
G03*
X7937000Y-10947000I-40000J0D01*
G01*
X7937000Y-10947000D02*
G75*
G03*
X8017000Y-10947000I40000J0D01*
G01*
X8017000Y-11447000D02*
G75*
G03*
X7937000Y-11447000I-40000J0D01*
G01*
X7937000Y-11447000D02*
G75*
G03*
X8017000Y-11447000I40000J0D01*
G01*
X8018000Y-9470000D02*
G75*
G03*
X7938000Y-9470000I-40000J0D01*
G01*
X7938000Y-9470000D02*
G75*
G03*
X8018000Y-9470000I40000J0D01*
G01*
X8018000Y-9970000D02*
G75*
G03*
X7938000Y-9970000I-40000J0D01*
G01*
X7938000Y-9970000D02*
G75*
G03*
X8018000Y-9970000I40000J0D01*
G01*
X8019000Y-10207000D02*
G75*
G03*
X7939000Y-10207000I-40000J0D01*
G01*
X7939000Y-10207000D02*
G75*
G03*
X8019000Y-10207000I40000J0D01*
G01*
X8019000Y-10707000D02*
G75*
G03*
X7939000Y-10707000I-40000J0D01*
G01*
X7939000Y-10707000D02*
G75*
G03*
X8019000Y-10707000I40000J0D01*
G01*
X8026000Y-11690000D02*
G75*
G03*
X7946000Y-11690000I-40000J0D01*
G01*
X7946000Y-11690000D02*
G75*
G03*
X8026000Y-11690000I40000J0D01*
G01*
X8026000Y-12190000D02*
G75*
G03*
X7946000Y-12190000I-40000J0D01*
G01*
X7946000Y-12190000D02*
G75*
G03*
X8026000Y-12190000I40000J0D01*
G01*
X8113000Y-12919000D02*
G75*
G03*
X8033000Y-12919000I-40000J0D01*
G01*
X8033000Y-12919000D02*
G75*
G03*
X8113000Y-12919000I40000J0D01*
G01*
X8113000Y-13419000D02*
G75*
G03*
X8033000Y-13419000I-40000J0D01*
G01*
X8033000Y-13419000D02*
G75*
G03*
X8113000Y-13419000I40000J0D01*
G01*
X8260000Y-7760000D02*
G75*
G03*
X8180000Y-7760000I-40000J0D01*
G01*
X8180000Y-7760000D02*
G75*
G03*
X8260000Y-7760000I40000J0D01*
G01*
X8260000Y-8522000D02*
G75*
G03*
X8180000Y-8522000I-40000J0D01*
G01*
X8180000Y-8522000D02*
G75*
G03*
X8260000Y-8522000I40000J0D01*
G01*
X8276000Y-12583000D02*
G75*
G03*
X8196000Y-12583000I-40000J0D01*
G01*
X8196000Y-12583000D02*
G75*
G03*
X8276000Y-12583000I40000J0D01*
G01*
X8309000Y-10401000D02*
G75*
G03*
X8229000Y-10401000I-40000J0D01*
G01*
X8229000Y-10401000D02*
G75*
G03*
X8309000Y-10401000I40000J0D01*
G01*
X8311000Y-10077000D02*
G75*
G03*
X8231000Y-10077000I-40000J0D01*
G01*
X8231000Y-10077000D02*
G75*
G03*
X8311000Y-10077000I40000J0D01*
G01*
X8312000Y-11053000D02*
G75*
G03*
X8232000Y-11053000I-40000J0D01*
G01*
X8232000Y-11053000D02*
G75*
G03*
X8312000Y-11053000I40000J0D01*
G01*
X8313000Y-10725000D02*
G75*
G03*
X8233000Y-10725000I-40000J0D01*
G01*
X8233000Y-10725000D02*
G75*
G03*
X8313000Y-10725000I40000J0D01*
G01*
X8316000Y-9081000D02*
G75*
G03*
X8236000Y-9081000I-40000J0D01*
G01*
X8236000Y-9081000D02*
G75*
G03*
X8316000Y-9081000I40000J0D01*
G01*
X8316000Y-9442000D02*
G75*
G03*
X8236000Y-9442000I-40000J0D01*
G01*
X8236000Y-9442000D02*
G75*
G03*
X8316000Y-9442000I40000J0D01*
G01*
X8317000Y-11388000D02*
G75*
G03*
X8237000Y-11388000I-40000J0D01*
G01*
X8237000Y-11388000D02*
G75*
G03*
X8317000Y-11388000I40000J0D01*
G01*
X8321000Y-9759000D02*
G75*
G03*
X8241000Y-9759000I-40000J0D01*
G01*
X8241000Y-9759000D02*
G75*
G03*
X8321000Y-9759000I40000J0D01*
G01*
X8327000Y-12146000D02*
G75*
G03*
X8247000Y-12146000I-40000J0D01*
G01*
X8247000Y-12146000D02*
G75*
G03*
X8327000Y-12146000I40000J0D01*
G01*
X8331000Y-11822000D02*
G75*
G03*
X8251000Y-11822000I-40000J0D01*
G01*
X8251000Y-11822000D02*
G75*
G03*
X8331000Y-11822000I40000J0D01*
G01*
X8380000Y-6333000D02*
G75*
G03*
X8300000Y-6333000I-40000J0D01*
G01*
X8300000Y-6333000D02*
G75*
G03*
X8380000Y-6333000I40000J0D01*
G01*
X8380000Y-7095000D02*
G75*
G03*
X8300000Y-7095000I-40000J0D01*
G01*
X8300000Y-7095000D02*
G75*
G03*
X8380000Y-7095000I40000J0D01*
G01*
X8501000Y-12907000D02*
G75*
G03*
X8421000Y-12907000I-40000J0D01*
G01*
X8421000Y-12907000D02*
G75*
G03*
X8501000Y-12907000I40000J0D01*
G01*
X8501000Y-13669000D02*
G75*
G03*
X8421000Y-13669000I-40000J0D01*
G01*
X8421000Y-13669000D02*
G75*
G03*
X8501000Y-13669000I40000J0D01*
G01*
X8547000Y-12652000D02*
G75*
G03*
X8467000Y-12652000I-40000J0D01*
G01*
X8467000Y-12652000D02*
G75*
G03*
X8547000Y-12652000I40000J0D01*
G01*
X8650600Y-7975600D02*
G75*
G03*
X8570600Y-7975600I-40000J0D01*
G01*
X8570600Y-7975600D02*
G75*
G03*
X8650600Y-7975600I40000J0D01*
G01*
X8650600Y-8475600D02*
G75*
G03*
X8570600Y-8475600I-40000J0D01*
G01*
X8570600Y-8475600D02*
G75*
G03*
X8650600Y-8475600I40000J0D01*
G01*
X8701400Y-7086600D02*
G75*
G03*
X8621400Y-7086600I-40000J0D01*
G01*
X8621400Y-7086600D02*
G75*
G03*
X8701400Y-7086600I40000J0D01*
G01*
X8701400Y-7586600D02*
G75*
G03*
X8621400Y-7586600I-40000J0D01*
G01*
X8621400Y-7586600D02*
G75*
G03*
X8701400Y-7586600I40000J0D01*
G01*
X8878000Y-13067000D02*
G75*
G03*
X8798000Y-13067000I-40000J0D01*
G01*
X8798000Y-13067000D02*
G75*
G03*
X8878000Y-13067000I40000J0D01*
G01*
X8878000Y-13567000D02*
G75*
G03*
X8798000Y-13567000I-40000J0D01*
G01*
X8798000Y-13567000D02*
G75*
G03*
X8878000Y-13567000I40000J0D01*
G01*
X8930000Y-8020000D02*
G75*
G03*
X8850000Y-8020000I-40000J0D01*
G01*
X8850000Y-8020000D02*
G75*
G03*
X8930000Y-8020000I40000J0D01*
G01*
X8930000Y-8356600D02*
G75*
G03*
X8850000Y-8356600I-40000J0D01*
G01*
X8850000Y-8356600D02*
G75*
G03*
X8930000Y-8356600I40000J0D01*
G01*
X9071000Y-10401000D02*
G75*
G03*
X8991000Y-10401000I-40000J0D01*
G01*
X8991000Y-10401000D02*
G75*
G03*
X9071000Y-10401000I40000J0D01*
G01*
X9073000Y-10077000D02*
G75*
G03*
X8993000Y-10077000I-40000J0D01*
G01*
X8993000Y-10077000D02*
G75*
G03*
X9073000Y-10077000I40000J0D01*
G01*
X9074000Y-11053000D02*
G75*
G03*
X8994000Y-11053000I-40000J0D01*
G01*
X8994000Y-11053000D02*
G75*
G03*
X9074000Y-11053000I40000J0D01*
G01*
X9075000Y-10725000D02*
G75*
G03*
X8995000Y-10725000I-40000J0D01*
G01*
X8995000Y-10725000D02*
G75*
G03*
X9075000Y-10725000I40000J0D01*
G01*
X9078000Y-9081000D02*
G75*
G03*
X8998000Y-9081000I-40000J0D01*
G01*
X8998000Y-9081000D02*
G75*
G03*
X9078000Y-9081000I40000J0D01*
G01*
X9078000Y-9442000D02*
G75*
G03*
X8998000Y-9442000I-40000J0D01*
G01*
X8998000Y-9442000D02*
G75*
G03*
X9078000Y-9442000I40000J0D01*
G01*
X9079000Y-11388000D02*
G75*
G03*
X8999000Y-11388000I-40000J0D01*
G01*
X8999000Y-11388000D02*
G75*
G03*
X9079000Y-11388000I40000J0D01*
G01*
X9083000Y-9759000D02*
G75*
G03*
X9003000Y-9759000I-40000J0D01*
G01*
X9003000Y-9759000D02*
G75*
G03*
X9083000Y-9759000I40000J0D01*
G01*
X9089000Y-12146000D02*
G75*
G03*
X9009000Y-12146000I-40000J0D01*
G01*
X9009000Y-12146000D02*
G75*
G03*
X9089000Y-12146000I40000J0D01*
G01*
X9093000Y-11822000D02*
G75*
G03*
X9013000Y-11822000I-40000J0D01*
G01*
X9013000Y-11822000D02*
G75*
G03*
X9093000Y-11822000I40000J0D01*
G01*
X9263000Y-13164000D02*
G75*
G03*
X9183000Y-13164000I-40000J0D01*
G01*
X9183000Y-13164000D02*
G75*
G03*
X9263000Y-13164000I40000J0D01*
G01*
X9263000Y-13926000D02*
G75*
G03*
X9183000Y-13926000I-40000J0D01*
G01*
X9183000Y-13926000D02*
G75*
G03*
X9263000Y-13926000I40000J0D01*
G01*
X9309000Y-12652000D02*
G75*
G03*
X9229000Y-12652000I-40000J0D01*
G01*
X9229000Y-12652000D02*
G75*
G03*
X9309000Y-12652000I40000J0D01*
G01*
X9565000Y-12877800D02*
G75*
G03*
X9485000Y-12877800I-40000J0D01*
G01*
X9485000Y-12877800D02*
G75*
G03*
X9565000Y-12877800I40000J0D01*
G01*
X9587000Y-13159000D02*
G75*
G03*
X9507000Y-13159000I-40000J0D01*
G01*
X9507000Y-13159000D02*
G75*
G03*
X9587000Y-13159000I40000J0D01*
G01*
X9587000Y-13921000D02*
G75*
G03*
X9507000Y-13921000I-40000J0D01*
G01*
X9507000Y-13921000D02*
G75*
G03*
X9587000Y-13921000I40000J0D01*
G01*
X9692000Y-8020000D02*
G75*
G03*
X9612000Y-8020000I-40000J0D01*
G01*
X9612000Y-8020000D02*
G75*
G03*
X9692000Y-8020000I40000J0D01*
G01*
X9692000Y-8356600D02*
G75*
G03*
X9612000Y-8356600I-40000J0D01*
G01*
X9612000Y-8356600D02*
G75*
G03*
X9692000Y-8356600I40000J0D01*
G01*
X9717000Y-6438000D02*
G75*
G03*
X9637000Y-6438000I-40000J0D01*
G01*
X9637000Y-6438000D02*
G75*
G03*
X9717000Y-6438000I40000J0D01*
G01*
X9717000Y-6938000D02*
G75*
G03*
X9637000Y-6938000I-40000J0D01*
G01*
X9637000Y-6938000D02*
G75*
G03*
X9717000Y-6938000I40000J0D01*
G01*
X9720000Y-7215000D02*
G75*
G03*
X9640000Y-7215000I-40000J0D01*
G01*
X9640000Y-7215000D02*
G75*
G03*
X9720000Y-7215000I40000J0D01*
G01*
X9720000Y-7715000D02*
G75*
G03*
X9640000Y-7715000I-40000J0D01*
G01*
X9640000Y-7715000D02*
G75*
G03*
X9720000Y-7715000I40000J0D01*
G01*
X9920600Y-13131800D02*
G75*
G03*
X9840600Y-13131800I-40000J0D01*
G01*
X9840600Y-13131800D02*
G75*
G03*
X9920600Y-13131800I40000J0D01*
G01*
X9920600Y-13893800D02*
G75*
G03*
X9840600Y-13893800I-40000J0D01*
G01*
X9840600Y-13893800D02*
G75*
G03*
X9920600Y-13893800I40000J0D01*
G01*
X10040000Y-6438000D02*
G75*
G03*
X9960000Y-6438000I-40000J0D01*
G01*
X9960000Y-6438000D02*
G75*
G03*
X10040000Y-6438000I40000J0D01*
G01*
X10040000Y-6938000D02*
G75*
G03*
X9960000Y-6938000I-40000J0D01*
G01*
X9960000Y-6938000D02*
G75*
G03*
X10040000Y-6938000I40000J0D01*
G01*
X10047000Y-7219000D02*
G75*
G03*
X9967000Y-7219000I-40000J0D01*
G01*
X9967000Y-7219000D02*
G75*
G03*
X10047000Y-7219000I40000J0D01*
G01*
X10047000Y-7719000D02*
G75*
G03*
X9967000Y-7719000I-40000J0D01*
G01*
X9967000Y-7719000D02*
G75*
G03*
X10047000Y-7719000I40000J0D01*
G01*
X10225400Y-8128000D02*
G75*
G03*
X10145400Y-8128000I-40000J0D01*
G01*
X10145400Y-8128000D02*
G75*
G03*
X10225400Y-8128000I40000J0D01*
G01*
X10225400Y-8458200D02*
G75*
G03*
X10145400Y-8458200I-40000J0D01*
G01*
X10145400Y-8458200D02*
G75*
G03*
X10225400Y-8458200I40000J0D01*
G01*
X10225400Y-13131800D02*
G75*
G03*
X10145400Y-13131800I-40000J0D01*
G01*
X10145400Y-13131800D02*
G75*
G03*
X10225400Y-13131800I40000J0D01*
G01*
X10225400Y-13893800D02*
G75*
G03*
X10145400Y-13893800I-40000J0D01*
G01*
X10145400Y-13893800D02*
G75*
G03*
X10225400Y-13893800I40000J0D01*
G01*
X10277000Y-12455000D02*
G75*
G03*
X10197000Y-12455000I-40000J0D01*
G01*
X10197000Y-12455000D02*
G75*
G03*
X10277000Y-12455000I40000J0D01*
G01*
X10325000Y-6592000D02*
G75*
G03*
X10245000Y-6592000I-40000J0D01*
G01*
X10245000Y-6592000D02*
G75*
G03*
X10325000Y-6592000I40000J0D01*
G01*
X10327000Y-6910000D02*
G75*
G03*
X10247000Y-6910000I-40000J0D01*
G01*
X10247000Y-6910000D02*
G75*
G03*
X10327000Y-6910000I40000J0D01*
G01*
X10327000Y-12877800D02*
G75*
G03*
X10247000Y-12877800I-40000J0D01*
G01*
X10247000Y-12877800D02*
G75*
G03*
X10327000Y-12877800I40000J0D01*
G01*
X10328000Y-7590000D02*
G75*
G03*
X10248000Y-7590000I-40000J0D01*
G01*
X10248000Y-7590000D02*
G75*
G03*
X10328000Y-7590000I40000J0D01*
G01*
X10329000Y-7264000D02*
G75*
G03*
X10249000Y-7264000I-40000J0D01*
G01*
X10249000Y-7264000D02*
G75*
G03*
X10329000Y-7264000I40000J0D01*
G01*
X10517500Y-13144500D02*
G75*
G03*
X10437500Y-13144500I-40000J0D01*
G01*
X10437500Y-13144500D02*
G75*
G03*
X10517500Y-13144500I40000J0D01*
G01*
X10517500Y-13644500D02*
G75*
G03*
X10437500Y-13644500I-40000J0D01*
G01*
X10437500Y-13644500D02*
G75*
G03*
X10517500Y-13644500I40000J0D01*
G01*
X10581000Y-12852400D02*
G75*
G03*
X10501000Y-12852400I-40000J0D01*
G01*
X10501000Y-12852400D02*
G75*
G03*
X10581000Y-12852400I40000J0D01*
G01*
X10847700Y-13144500D02*
G75*
G03*
X10767700Y-13144500I-40000J0D01*
G01*
X10767700Y-13144500D02*
G75*
G03*
X10847700Y-13144500I40000J0D01*
G01*
X10847700Y-13906500D02*
G75*
G03*
X10767700Y-13906500I-40000J0D01*
G01*
X10767700Y-13906500D02*
G75*
G03*
X10847700Y-13906500I40000J0D01*
G01*
X10987400Y-8128000D02*
G75*
G03*
X10907400Y-8128000I-40000J0D01*
G01*
X10907400Y-8128000D02*
G75*
G03*
X10987400Y-8128000I40000J0D01*
G01*
X10987400Y-8458200D02*
G75*
G03*
X10907400Y-8458200I-40000J0D01*
G01*
X10907400Y-8458200D02*
G75*
G03*
X10987400Y-8458200I40000J0D01*
G01*
X11039000Y-12455000D02*
G75*
G03*
X10959000Y-12455000I-40000J0D01*
G01*
X10959000Y-12455000D02*
G75*
G03*
X11039000Y-12455000I40000J0D01*
G01*
X11087000Y-6592000D02*
G75*
G03*
X11007000Y-6592000I-40000J0D01*
G01*
X11007000Y-6592000D02*
G75*
G03*
X11087000Y-6592000I40000J0D01*
G01*
X11089000Y-6910000D02*
G75*
G03*
X11009000Y-6910000I-40000J0D01*
G01*
X11009000Y-6910000D02*
G75*
G03*
X11089000Y-6910000I40000J0D01*
G01*
X11090000Y-7590000D02*
G75*
G03*
X11010000Y-7590000I-40000J0D01*
G01*
X11010000Y-7590000D02*
G75*
G03*
X11090000Y-7590000I40000J0D01*
G01*
X11091000Y-7264000D02*
G75*
G03*
X11011000Y-7264000I-40000J0D01*
G01*
X11011000Y-7264000D02*
G75*
G03*
X11091000Y-7264000I40000J0D01*
G01*
X11128000Y-13903000D02*
G75*
G03*
X11048000Y-13903000I-40000J0D01*
G01*
X11048000Y-13903000D02*
G75*
G03*
X11128000Y-13903000I40000J0D01*
G01*
X11131000Y-13561000D02*
G75*
G03*
X11051000Y-13561000I-40000J0D01*
G01*
X11051000Y-13561000D02*
G75*
G03*
X11131000Y-13561000I40000J0D01*
G01*
X11301000Y-13230000D02*
G75*
G03*
X11221000Y-13230000I-40000J0D01*
G01*
X11221000Y-13230000D02*
G75*
G03*
X11301000Y-13230000I40000J0D01*
G01*
X11343000Y-12852400D02*
G75*
G03*
X11263000Y-12852400I-40000J0D01*
G01*
X11263000Y-12852400D02*
G75*
G03*
X11343000Y-12852400I40000J0D01*
G01*
X11597000Y-7772400D02*
G75*
G03*
X11517000Y-7772400I-40000J0D01*
G01*
X11517000Y-7772400D02*
G75*
G03*
X11597000Y-7772400I40000J0D01*
G01*
X11597000Y-8534400D02*
G75*
G03*
X11517000Y-8534400I-40000J0D01*
G01*
X11517000Y-8534400D02*
G75*
G03*
X11597000Y-8534400I40000J0D01*
G01*
X11635100Y-12877800D02*
G75*
G03*
X11555100Y-12877800I-40000J0D01*
G01*
X11555100Y-12877800D02*
G75*
G03*
X11635100Y-12877800I40000J0D01*
G01*
X11673200Y-12573000D02*
G75*
G03*
X11593200Y-12573000I-40000J0D01*
G01*
X11593200Y-12573000D02*
G75*
G03*
X11673200Y-12573000I40000J0D01*
G01*
X11801000Y-13230000D02*
G75*
G03*
X11721000Y-13230000I-40000J0D01*
G01*
X11721000Y-13230000D02*
G75*
G03*
X11801000Y-13230000I40000J0D01*
G01*
X11823000Y-6574000D02*
G75*
G03*
X11743000Y-6574000I-40000J0D01*
G01*
X11743000Y-6574000D02*
G75*
G03*
X11823000Y-6574000I40000J0D01*
G01*
X11823000Y-7074000D02*
G75*
G03*
X11743000Y-7074000I-40000J0D01*
G01*
X11743000Y-7074000D02*
G75*
G03*
X11823000Y-7074000I40000J0D01*
G01*
X11890000Y-13903000D02*
G75*
G03*
X11810000Y-13903000I-40000J0D01*
G01*
X11810000Y-13903000D02*
G75*
G03*
X11890000Y-13903000I40000J0D01*
G01*
X11893000Y-13561000D02*
G75*
G03*
X11813000Y-13561000I-40000J0D01*
G01*
X11813000Y-13561000D02*
G75*
G03*
X11893000Y-13561000I40000J0D01*
G01*
X11906000Y-6289000D02*
G75*
G03*
X11826000Y-6289000I-40000J0D01*
G01*
X11826000Y-6289000D02*
G75*
G03*
X11906000Y-6289000I40000J0D01*
G01*
X11907000Y-5993000D02*
G75*
G03*
X11827000Y-5993000I-40000J0D01*
G01*
X11827000Y-5993000D02*
G75*
G03*
X11907000Y-5993000I40000J0D01*
G01*
X11952600Y-7797800D02*
G75*
G03*
X11872600Y-7797800I-40000J0D01*
G01*
X11872600Y-7797800D02*
G75*
G03*
X11952600Y-7797800I40000J0D01*
G01*
X11952600Y-8559800D02*
G75*
G03*
X11872600Y-8559800I-40000J0D01*
G01*
X11872600Y-8559800D02*
G75*
G03*
X11952600Y-8559800I40000J0D01*
G01*
X12139500Y-6767000D02*
G75*
G03*
X12059500Y-6767000I-40000J0D01*
G01*
X12059500Y-6767000D02*
G75*
G03*
X12139500Y-6767000I40000J0D01*
G01*
X12139500Y-7529000D02*
G75*
G03*
X12059500Y-7529000I-40000J0D01*
G01*
X12059500Y-7529000D02*
G75*
G03*
X12139500Y-7529000I40000J0D01*
G01*
X12168500Y-13144500D02*
G75*
G03*
X12088500Y-13144500I-40000J0D01*
G01*
X12088500Y-13144500D02*
G75*
G03*
X12168500Y-13144500I40000J0D01*
G01*
X12168500Y-13906500D02*
G75*
G03*
X12088500Y-13906500I-40000J0D01*
G01*
X12088500Y-13906500D02*
G75*
G03*
X12168500Y-13906500I40000J0D01*
G01*
X12393500Y-6767000D02*
G75*
G03*
X12313500Y-6767000I-40000J0D01*
G01*
X12313500Y-6767000D02*
G75*
G03*
X12393500Y-6767000I40000J0D01*
G01*
X12393500Y-7529000D02*
G75*
G03*
X12313500Y-7529000I-40000J0D01*
G01*
X12313500Y-7529000D02*
G75*
G03*
X12393500Y-7529000I40000J0D01*
G01*
X12397100Y-12877800D02*
G75*
G03*
X12317100Y-12877800I-40000J0D01*
G01*
X12317100Y-12877800D02*
G75*
G03*
X12397100Y-12877800I40000J0D01*
G01*
X12435200Y-12573000D02*
G75*
G03*
X12355200Y-12573000I-40000J0D01*
G01*
X12355200Y-12573000D02*
G75*
G03*
X12435200Y-12573000I40000J0D01*
G01*
X12460600Y-13144500D02*
G75*
G03*
X12380600Y-13144500I-40000J0D01*
G01*
X12380600Y-13144500D02*
G75*
G03*
X12460600Y-13144500I40000J0D01*
G01*
X12460600Y-13906500D02*
G75*
G03*
X12380600Y-13906500I-40000J0D01*
G01*
X12380600Y-13906500D02*
G75*
G03*
X12460600Y-13906500I40000J0D01*
G01*
X12647500Y-6767000D02*
G75*
G03*
X12567500Y-6767000I-40000J0D01*
G01*
X12567500Y-6767000D02*
G75*
G03*
X12647500Y-6767000I40000J0D01*
G01*
X12647500Y-7529000D02*
G75*
G03*
X12567500Y-7529000I-40000J0D01*
G01*
X12567500Y-7529000D02*
G75*
G03*
X12647500Y-7529000I40000J0D01*
G01*
X12663000Y-7810000D02*
G75*
G03*
X12583000Y-7810000I-40000J0D01*
G01*
X12583000Y-7810000D02*
G75*
G03*
X12663000Y-7810000I40000J0D01*
G01*
X12663000Y-8572000D02*
G75*
G03*
X12583000Y-8572000I-40000J0D01*
G01*
X12583000Y-8572000D02*
G75*
G03*
X12663000Y-8572000I40000J0D01*
G01*
X12668000Y-6289000D02*
G75*
G03*
X12588000Y-6289000I-40000J0D01*
G01*
X12588000Y-6289000D02*
G75*
G03*
X12668000Y-6289000I40000J0D01*
G01*
X12669000Y-5993000D02*
G75*
G03*
X12589000Y-5993000I-40000J0D01*
G01*
X12589000Y-5993000D02*
G75*
G03*
X12669000Y-5993000I40000J0D01*
G01*
X12765400Y-12420600D02*
G75*
G03*
X12685400Y-12420600I-40000J0D01*
G01*
X12685400Y-12420600D02*
G75*
G03*
X12765400Y-12420600I40000J0D01*
G01*
X12765400Y-13182600D02*
G75*
G03*
X12685400Y-13182600I-40000J0D01*
G01*
X12685400Y-13182600D02*
G75*
G03*
X12765400Y-13182600I40000J0D01*
G01*
X12766000Y-13411000D02*
G75*
G03*
X12686000Y-13411000I-40000J0D01*
G01*
X12686000Y-13411000D02*
G75*
G03*
X12766000Y-13411000I40000J0D01*
G01*
X12766000Y-13911000D02*
G75*
G03*
X12686000Y-13911000I-40000J0D01*
G01*
X12686000Y-13911000D02*
G75*
G03*
X12766000Y-13911000I40000J0D01*
G01*
X12901500Y-6767000D02*
G75*
G03*
X12821500Y-6767000I-40000J0D01*
G01*
X12821500Y-6767000D02*
G75*
G03*
X12901500Y-6767000I40000J0D01*
G01*
X12901500Y-7529000D02*
G75*
G03*
X12821500Y-7529000I-40000J0D01*
G01*
X12821500Y-7529000D02*
G75*
G03*
X12901500Y-7529000I40000J0D01*
G01*
X13019400Y-7816000D02*
G75*
G03*
X12939400Y-7816000I-40000J0D01*
G01*
X12939400Y-7816000D02*
G75*
G03*
X13019400Y-7816000I40000J0D01*
G01*
X13019400Y-8578000D02*
G75*
G03*
X12939400Y-8578000I-40000J0D01*
G01*
X12939400Y-8578000D02*
G75*
G03*
X13019400Y-8578000I40000J0D01*
G01*
X13082900Y-13144500D02*
G75*
G03*
X13002900Y-13144500I-40000J0D01*
G01*
X13002900Y-13144500D02*
G75*
G03*
X13082900Y-13144500I40000J0D01*
G01*
X13082900Y-13906500D02*
G75*
G03*
X13002900Y-13906500I-40000J0D01*
G01*
X13002900Y-13906500D02*
G75*
G03*
X13082900Y-13906500I40000J0D01*
G01*
X13095600Y-12369800D02*
G75*
G03*
X13015600Y-12369800I-40000J0D01*
G01*
X13015600Y-12369800D02*
G75*
G03*
X13095600Y-12369800I40000J0D01*
G01*
X13095600Y-12869800D02*
G75*
G03*
X13015600Y-12869800I-40000J0D01*
G01*
X13015600Y-12869800D02*
G75*
G03*
X13095600Y-12869800I40000J0D01*
G01*
X13155500Y-6767000D02*
G75*
G03*
X13075500Y-6767000I-40000J0D01*
G01*
X13075500Y-6767000D02*
G75*
G03*
X13155500Y-6767000I40000J0D01*
G01*
X13155500Y-7529000D02*
G75*
G03*
X13075500Y-7529000I-40000J0D01*
G01*
X13075500Y-7529000D02*
G75*
G03*
X13155500Y-7529000I40000J0D01*
G01*
X13375000Y-7797800D02*
G75*
G03*
X13295000Y-7797800I-40000J0D01*
G01*
X13295000Y-7797800D02*
G75*
G03*
X13375000Y-7797800I40000J0D01*
G01*
X13375000Y-8559800D02*
G75*
G03*
X13295000Y-8559800I-40000J0D01*
G01*
X13295000Y-8559800D02*
G75*
G03*
X13375000Y-8559800I40000J0D01*
G01*
X13409500Y-6767000D02*
G75*
G03*
X13329500Y-6767000I-40000J0D01*
G01*
X13329500Y-6767000D02*
G75*
G03*
X13409500Y-6767000I40000J0D01*
G01*
X13409500Y-7529000D02*
G75*
G03*
X13329500Y-7529000I-40000J0D01*
G01*
X13329500Y-7529000D02*
G75*
G03*
X13409500Y-7529000I40000J0D01*
G01*
X13436000Y-12413000D02*
G75*
G03*
X13356000Y-12413000I-40000J0D01*
G01*
X13356000Y-12413000D02*
G75*
G03*
X13436000Y-12413000I40000J0D01*
G01*
X13436000Y-13175000D02*
G75*
G03*
X13356000Y-13175000I-40000J0D01*
G01*
X13356000Y-13175000D02*
G75*
G03*
X13436000Y-13175000I40000J0D01*
G01*
X13436000Y-13443000D02*
G75*
G03*
X13356000Y-13443000I-40000J0D01*
G01*
X13356000Y-13443000D02*
G75*
G03*
X13436000Y-13443000I40000J0D01*
G01*
X13436000Y-13943000D02*
G75*
G03*
X13356000Y-13943000I-40000J0D01*
G01*
X13356000Y-13943000D02*
G75*
G03*
X13436000Y-13943000I40000J0D01*
G01*
X13663500Y-6767000D02*
G75*
G03*
X13583500Y-6767000I-40000J0D01*
G01*
X13583500Y-6767000D02*
G75*
G03*
X13663500Y-6767000I40000J0D01*
G01*
X13663500Y-7529000D02*
G75*
G03*
X13583500Y-7529000I-40000J0D01*
G01*
X13583500Y-7529000D02*
G75*
G03*
X13663500Y-7529000I40000J0D01*
G01*
X13764000Y-13879000D02*
G75*
G03*
X13684000Y-13879000I-40000J0D01*
G01*
X13684000Y-13879000D02*
G75*
G03*
X13764000Y-13879000I40000J0D01*
G01*
X13781000Y-13544000D02*
G75*
G03*
X13701000Y-13544000I-40000J0D01*
G01*
X13701000Y-13544000D02*
G75*
G03*
X13781000Y-13544000I40000J0D01*
G01*
X13781400Y-12484100D02*
G75*
G03*
X13701400Y-12484100I-40000J0D01*
G01*
X13701400Y-12484100D02*
G75*
G03*
X13781400Y-12484100I40000J0D01*
G01*
X13781400Y-13246100D02*
G75*
G03*
X13701400Y-13246100I-40000J0D01*
G01*
X13701400Y-13246100D02*
G75*
G03*
X13781400Y-13246100I40000J0D01*
G01*
X14053560Y-12928600D02*
G75*
G03*
X13973560Y-12928600I-40000J0D01*
G01*
X13973560Y-12928600D02*
G75*
G03*
X14053560Y-12928600I40000J0D01*
G01*
X14060800Y-12547600D02*
G75*
G03*
X13980800Y-12547600I-40000J0D01*
G01*
X13980800Y-12547600D02*
G75*
G03*
X14060800Y-12547600I40000J0D01*
G01*
X14305000Y-7235000D02*
G75*
G03*
X14225000Y-7235000I-40000J0D01*
G01*
X14225000Y-7235000D02*
G75*
G03*
X14305000Y-7235000I40000J0D01*
G01*
X14305000Y-7997000D02*
G75*
G03*
X14225000Y-7997000I-40000J0D01*
G01*
X14225000Y-7997000D02*
G75*
G03*
X14305000Y-7997000I40000J0D01*
G01*
X14314800Y-12547600D02*
G75*
G03*
X14234800Y-12547600I-40000J0D01*
G01*
X14234800Y-12547600D02*
G75*
G03*
X14314800Y-12547600I40000J0D01*
G01*
X14526000Y-13879000D02*
G75*
G03*
X14446000Y-13879000I-40000J0D01*
G01*
X14446000Y-13879000D02*
G75*
G03*
X14526000Y-13879000I40000J0D01*
G01*
X14543000Y-13544000D02*
G75*
G03*
X14463000Y-13544000I-40000J0D01*
G01*
X14463000Y-13544000D02*
G75*
G03*
X14543000Y-13544000I40000J0D01*
G01*
X14553560Y-12928600D02*
G75*
G03*
X14473560Y-12928600I-40000J0D01*
G01*
X14473560Y-12928600D02*
G75*
G03*
X14553560Y-12928600I40000J0D01*
G01*
X14568800Y-12547600D02*
G75*
G03*
X14488800Y-12547600I-40000J0D01*
G01*
X14488800Y-12547600D02*
G75*
G03*
X14568800Y-12547600I40000J0D01*
G01*
X14619600Y-8585200D02*
G75*
G03*
X14539600Y-8585200I-40000J0D01*
G01*
X14539600Y-8585200D02*
G75*
G03*
X14619600Y-8585200I40000J0D01*
G01*
X14619600Y-9347200D02*
G75*
G03*
X14539600Y-9347200I-40000J0D01*
G01*
X14539600Y-9347200D02*
G75*
G03*
X14619600Y-9347200I40000J0D01*
G01*
X14630000Y-7226000D02*
G75*
G03*
X14550000Y-7226000I-40000J0D01*
G01*
X14550000Y-7226000D02*
G75*
G03*
X14630000Y-7226000I40000J0D01*
G01*
X14630000Y-7988000D02*
G75*
G03*
X14550000Y-7988000I-40000J0D01*
G01*
X14550000Y-7988000D02*
G75*
G03*
X14630000Y-7988000I40000J0D01*
G01*
X14758000Y-6102000D02*
G75*
G03*
X14678000Y-6102000I-40000J0D01*
G01*
X14678000Y-6102000D02*
G75*
G03*
X14758000Y-6102000I40000J0D01*
G01*
X14758000Y-6356000D02*
G75*
G03*
X14678000Y-6356000I-40000J0D01*
G01*
X14678000Y-6356000D02*
G75*
G03*
X14758000Y-6356000I40000J0D01*
G01*
X14758000Y-6610000D02*
G75*
G03*
X14678000Y-6610000I-40000J0D01*
G01*
X14678000Y-6610000D02*
G75*
G03*
X14758000Y-6610000I40000J0D01*
G01*
X14822800Y-12141200D02*
G75*
G03*
X14742800Y-12141200I-40000J0D01*
G01*
X14742800Y-12141200D02*
G75*
G03*
X14822800Y-12141200I40000J0D01*
G01*
X14822800Y-12903200D02*
G75*
G03*
X14742800Y-12903200I-40000J0D01*
G01*
X14742800Y-12903200D02*
G75*
G03*
X14822800Y-12903200I40000J0D01*
G01*
X14822800Y-13157200D02*
G75*
G03*
X14742800Y-13157200I-40000J0D01*
G01*
X14742800Y-13157200D02*
G75*
G03*
X14822800Y-13157200I40000J0D01*
G01*
X14822800Y-13919200D02*
G75*
G03*
X14742800Y-13919200I-40000J0D01*
G01*
X14742800Y-13919200D02*
G75*
G03*
X14822800Y-13919200I40000J0D01*
G01*
X8166000Y-14153400D02*
X8166000Y-14253400D01*
X8116000Y-14203400D02*
X8216000Y-14203400D01*
X8066000Y-14253400D02*
X8266000Y-14253400D01*
X8266000Y-14253400D02*
G75*
G03*
X8266000Y-14153400I0J50000D01*
G01*
X8266000Y-14153400D02*
X8066000Y-14153400D01*
X8066000Y-14153400D02*
G75*
G03*
X8066000Y-14253400I0J-50000D01*
G01*
X8166000Y-14753400D02*
X8166000Y-14853400D01*
X8116000Y-14803400D02*
X8216000Y-14803400D01*
X8066000Y-14853400D02*
X8266000Y-14853400D01*
X8266000Y-14853400D02*
G75*
G03*
X8266000Y-14753400I0J50000D01*
G01*
X8266000Y-14753400D02*
X8066000Y-14753400D01*
X8066000Y-14753400D02*
G75*
G03*
X8066000Y-14853400I0J-50000D01*
G01*
X8636000Y-14453400D02*
X8636000Y-14553400D01*
X8586000Y-14503400D02*
X8686000Y-14503400D01*
X8686000Y-14603400D02*
X8686000Y-14403400D01*
X8686000Y-14403400D02*
G75*
G03*
X8586000Y-14403400I-50000J0D01*
G01*
X8586000Y-14403400D02*
X8586000Y-14603400D01*
X8586000Y-14603400D02*
G75*
G03*
X8686000Y-14603400I50000J0D01*
G01*
D12*
X9609063Y-10213063D02*
X9609063Y-10140937D01*
X9536937Y-10140937D01*
X9536937Y-10213063D01*
X9609063Y-10213063D01*
X9609063Y-11991063D02*
X9609063Y-11918937D01*
X9536937Y-11918937D01*
X9536937Y-11991063D01*
X9609063Y-11991063D01*
X9632063Y-10848063D02*
X9632063Y-10775937D01*
X9559937Y-10775937D01*
X9559937Y-10848063D01*
X9632063Y-10848063D01*
X9632063Y-11102063D02*
X9632063Y-11029937D01*
X9559937Y-11029937D01*
X9559937Y-11102063D01*
X9632063Y-11102063D01*
X9632063Y-11356063D02*
X9632063Y-11283937D01*
X9559937Y-11283937D01*
X9559937Y-11356063D01*
X9632063Y-11356063D01*
X9863063Y-10213063D02*
X9863063Y-10140937D01*
X9790937Y-10140937D01*
X9790937Y-10213063D01*
X9863063Y-10213063D01*
X9863063Y-11991063D02*
X9863063Y-11918937D01*
X9790937Y-11918937D01*
X9790937Y-11991063D01*
X9863063Y-11991063D01*
X10117063Y-10213063D02*
X10117063Y-10140937D01*
X10044937Y-10140937D01*
X10044937Y-10213063D01*
X10117063Y-10213063D01*
X10117063Y-11991063D02*
X10117063Y-11918937D01*
X10044937Y-11918937D01*
X10044937Y-11991063D01*
X10117063Y-11991063D01*
X10371063Y-10213063D02*
X10371063Y-10140937D01*
X10298937Y-10140937D01*
X10298937Y-10213063D01*
X10371063Y-10213063D01*
X10371063Y-11991063D02*
X10371063Y-11918937D01*
X10298937Y-11918937D01*
X10298937Y-11991063D01*
X10371063Y-11991063D01*
X10625063Y-10213063D02*
X10625063Y-10140937D01*
X10552937Y-10140937D01*
X10552937Y-10213063D01*
X10625063Y-10213063D01*
X10625063Y-11991063D02*
X10625063Y-11918937D01*
X10552937Y-11918937D01*
X10552937Y-11991063D01*
X10625063Y-11991063D01*
X10879063Y-10213063D02*
X10879063Y-10140937D01*
X10806937Y-10140937D01*
X10806937Y-10213063D01*
X10879063Y-10213063D01*
X10879063Y-11991063D02*
X10879063Y-11918937D01*
X10806937Y-11918937D01*
X10806937Y-11991063D01*
X10879063Y-11991063D01*
X11133063Y-10213063D02*
X11133063Y-10140937D01*
X11060937Y-10140937D01*
X11060937Y-10213063D01*
X11133063Y-10213063D01*
X11133063Y-11991063D02*
X11133063Y-11918937D01*
X11060937Y-11918937D01*
X11060937Y-11991063D01*
X11133063Y-11991063D01*
X11387063Y-10213063D02*
X11387063Y-10140937D01*
X11314937Y-10140937D01*
X11314937Y-10213063D01*
X11387063Y-10213063D01*
X11387063Y-11991063D02*
X11387063Y-11918937D01*
X11314937Y-11918937D01*
X11314937Y-11991063D01*
X11387063Y-11991063D01*
X11641063Y-10213063D02*
X11641063Y-10140937D01*
X11568937Y-10140937D01*
X11568937Y-10213063D01*
X11641063Y-10213063D01*
X11641063Y-11991063D02*
X11641063Y-11918937D01*
X11568937Y-11918937D01*
X11568937Y-11991063D01*
X11641063Y-11991063D01*
X11895063Y-10213063D02*
X11895063Y-10140937D01*
X11822937Y-10140937D01*
X11822937Y-10213063D01*
X11895063Y-10213063D01*
X11895063Y-11991063D02*
X11895063Y-11918937D01*
X11822937Y-11918937D01*
X11822937Y-11991063D01*
X11895063Y-11991063D01*
X12149063Y-10213063D02*
X12149063Y-10140937D01*
X12076937Y-10140937D01*
X12076937Y-10213063D01*
X12149063Y-10213063D01*
X12149063Y-11991063D02*
X12149063Y-11918937D01*
X12076937Y-11918937D01*
X12076937Y-11991063D01*
X12149063Y-11991063D01*
X12403063Y-10213063D02*
X12403063Y-10140937D01*
X12330937Y-10140937D01*
X12330937Y-10213063D01*
X12403063Y-10213063D01*
X12403063Y-11991063D02*
X12403063Y-11918937D01*
X12330937Y-11918937D01*
X12330937Y-11991063D01*
X12403063Y-11991063D01*
X12657063Y-10213063D02*
X12657063Y-10140937D01*
X12584937Y-10140937D01*
X12584937Y-10213063D01*
X12657063Y-10213063D01*
X12657063Y-11991063D02*
X12657063Y-11918937D01*
X12584937Y-11918937D01*
X12584937Y-11991063D01*
X12657063Y-11991063D01*
X12911063Y-10213063D02*
X12911063Y-10140937D01*
X12838937Y-10140937D01*
X12838937Y-10213063D01*
X12911063Y-10213063D01*
X12911063Y-11991063D02*
X12911063Y-11918937D01*
X12838937Y-11918937D01*
X12838937Y-11991063D01*
X12911063Y-11991063D01*
X13165063Y-10213063D02*
X13165063Y-10140937D01*
X13092937Y-10140937D01*
X13092937Y-10213063D01*
X13165063Y-10213063D01*
X13165063Y-11991063D02*
X13165063Y-11918937D01*
X13092937Y-11918937D01*
X13092937Y-11991063D01*
X13165063Y-11991063D01*
X13419063Y-10213063D02*
X13419063Y-10140937D01*
X13346937Y-10140937D01*
X13346937Y-10213063D01*
X13419063Y-10213063D01*
X13419063Y-11991063D02*
X13419063Y-11918937D01*
X13346937Y-11918937D01*
X13346937Y-11991063D01*
X13419063Y-11991063D01*
X13673063Y-10213063D02*
X13673063Y-10140937D01*
X13600937Y-10140937D01*
X13600937Y-10213063D01*
X13673063Y-10213063D01*
X13673063Y-11991063D02*
X13673063Y-11918937D01*
X13600937Y-11918937D01*
X13600937Y-11991063D01*
X13673063Y-11991063D01*
X13927063Y-10213063D02*
X13927063Y-10140937D01*
X13854937Y-10140937D01*
X13854937Y-10213063D01*
X13927063Y-10213063D01*
X13927063Y-11991063D02*
X13927063Y-11918937D01*
X13854937Y-11918937D01*
X13854937Y-11991063D01*
X13927063Y-11991063D01*
X14181063Y-10213063D02*
X14181063Y-10140937D01*
X14108937Y-10140937D01*
X14108937Y-10213063D01*
X14181063Y-10213063D01*
X14181063Y-11991063D02*
X14181063Y-11918937D01*
X14108937Y-11918937D01*
X14108937Y-11991063D01*
X14181063Y-11991063D01*
X14435063Y-10213063D02*
X14435063Y-10140937D01*
X14362937Y-10140937D01*
X14362937Y-10213063D01*
X14435063Y-10213063D01*
X14435063Y-11991063D02*
X14435063Y-11918937D01*
X14362937Y-11918937D01*
X14362937Y-11991063D01*
X14435063Y-11991063D01*
D13*
X6502000Y-13548000D02*
X6557000Y-13493000D01*
X6502000Y-13438000D01*
X6447000Y-13493000D01*
X6502000Y-13548000D01*
X6737000Y-14812000D02*
X6792000Y-14757000D01*
X6737000Y-14702000D01*
X6682000Y-14757000D01*
X6737000Y-14812000D01*
X6756000Y-13548000D02*
X6811000Y-13493000D01*
X6756000Y-13438000D01*
X6701000Y-13493000D01*
X6756000Y-13548000D01*
X7010000Y-13548000D02*
X7065000Y-13493000D01*
X7010000Y-13438000D01*
X6955000Y-13493000D01*
X7010000Y-13548000D01*
X7499000Y-14812000D02*
X7554000Y-14757000D01*
X7499000Y-14702000D01*
X7444000Y-14757000D01*
X7499000Y-14812000D01*
X9350000Y-9009000D02*
X9405000Y-8954000D01*
X9350000Y-8899000D01*
X9295000Y-8954000D01*
X9350000Y-9009000D01*
X9350000Y-9459000D02*
X9405000Y-9404000D01*
X9350000Y-9349000D01*
X9295000Y-9404000D01*
X9350000Y-9459000D01*
X10000000Y-9009000D02*
X10055000Y-8954000D01*
X10000000Y-8899000D01*
X9945000Y-8954000D01*
X10000000Y-9009000D01*
X10000000Y-9459000D02*
X10055000Y-9404000D01*
X10000000Y-9349000D01*
X9945000Y-9404000D01*
X10000000Y-9459000D01*
X10390000Y-9017000D02*
X10445000Y-8962000D01*
X10390000Y-8907000D01*
X10335000Y-8962000D01*
X10390000Y-9017000D01*
X10390000Y-9467000D02*
X10445000Y-9412000D01*
X10390000Y-9357000D01*
X10335000Y-9412000D01*
X10390000Y-9467000D01*
X11040000Y-9017000D02*
X11095000Y-8962000D01*
X11040000Y-8907000D01*
X10985000Y-8962000D01*
X11040000Y-9017000D01*
X11040000Y-9467000D02*
X11095000Y-9412000D01*
X11040000Y-9357000D01*
X10985000Y-9412000D01*
X11040000Y-9467000D01*
X11450000Y-9015000D02*
X11505000Y-8960000D01*
X11450000Y-8905000D01*
X11395000Y-8960000D01*
X11450000Y-9015000D01*
X11450000Y-9465000D02*
X11505000Y-9410000D01*
X11450000Y-9355000D01*
X11395000Y-9410000D01*
X11450000Y-9465000D01*
X12100000Y-9015000D02*
X12155000Y-8960000D01*
X12100000Y-8905000D01*
X12045000Y-8960000D01*
X12100000Y-9015000D01*
X12100000Y-9465000D02*
X12155000Y-9410000D01*
X12100000Y-9355000D01*
X12045000Y-9410000D01*
X12100000Y-9465000D01*
X12522000Y-9015000D02*
X12577000Y-8960000D01*
X12522000Y-8905000D01*
X12467000Y-8960000D01*
X12522000Y-9015000D01*
X12522000Y-9465000D02*
X12577000Y-9410000D01*
X12522000Y-9355000D01*
X12467000Y-9410000D01*
X12522000Y-9465000D01*
X13172000Y-9015000D02*
X13227000Y-8960000D01*
X13172000Y-8905000D01*
X13117000Y-8960000D01*
X13172000Y-9015000D01*
X13172000Y-9465000D02*
X13227000Y-9410000D01*
X13172000Y-9355000D01*
X13117000Y-9410000D01*
X13172000Y-9465000D01*
X13550000Y-9021000D02*
X13605000Y-8966000D01*
X13550000Y-8911000D01*
X13495000Y-8966000D01*
X13550000Y-9021000D01*
X13550000Y-9471000D02*
X13605000Y-9416000D01*
X13550000Y-9361000D01*
X13495000Y-9416000D01*
X13550000Y-9471000D01*
X14200000Y-9021000D02*
X14255000Y-8966000D01*
X14200000Y-8911000D01*
X14145000Y-8966000D01*
X14200000Y-9021000D01*
X14200000Y-9471000D02*
X14255000Y-9416000D01*
X14200000Y-9361000D01*
X14145000Y-9416000D01*
X14200000Y-9471000D01*
D14*
X6937000Y-5244000D02*
X7057000Y-5364000D01*
X7057000Y-5244000D02*
X6937000Y-5364000D01*
X7057000Y-5304000D02*
G75*
G03*
X6937000Y-5304000I-60000J0D01*
G01*
X6937000Y-5304000D02*
G75*
G03*
X7057000Y-5304000I60000J0D01*
G01*
X7191000Y-5244000D02*
X7311000Y-5364000D01*
X7311000Y-5244000D02*
X7191000Y-5364000D01*
X7311000Y-5304000D02*
G75*
G03*
X7191000Y-5304000I-60000J0D01*
G01*
X7191000Y-5304000D02*
G75*
G03*
X7311000Y-5304000I60000J0D01*
G01*
X7445000Y-5244000D02*
X7565000Y-5364000D01*
X7565000Y-5244000D02*
X7445000Y-5364000D01*
X7565000Y-5304000D02*
G75*
G03*
X7445000Y-5304000I-60000J0D01*
G01*
X7445000Y-5304000D02*
G75*
G03*
X7565000Y-5304000I60000J0D01*
G01*
X7699000Y-5244000D02*
X7819000Y-5364000D01*
X7819000Y-5244000D02*
X7699000Y-5364000D01*
X7819000Y-5304000D02*
G75*
G03*
X7699000Y-5304000I-60000J0D01*
G01*
X7699000Y-5304000D02*
G75*
G03*
X7819000Y-5304000I60000J0D01*
G01*
X7953000Y-5244000D02*
X8073000Y-5364000D01*
X8073000Y-5244000D02*
X7953000Y-5364000D01*
X8073000Y-5304000D02*
G75*
G03*
X7953000Y-5304000I-60000J0D01*
G01*
X7953000Y-5304000D02*
G75*
G03*
X8073000Y-5304000I60000J0D01*
G01*
X8207000Y-5244000D02*
X8327000Y-5364000D01*
X8327000Y-5244000D02*
X8207000Y-5364000D01*
X8327000Y-5304000D02*
G75*
G03*
X8207000Y-5304000I-60000J0D01*
G01*
X8207000Y-5304000D02*
G75*
G03*
X8327000Y-5304000I60000J0D01*
G01*
X8461000Y-5244000D02*
X8581000Y-5364000D01*
X8581000Y-5244000D02*
X8461000Y-5364000D01*
X8581000Y-5304000D02*
G75*
G03*
X8461000Y-5304000I-60000J0D01*
G01*
X8461000Y-5304000D02*
G75*
G03*
X8581000Y-5304000I60000J0D01*
G01*
X8715000Y-5244000D02*
X8835000Y-5364000D01*
X8835000Y-5244000D02*
X8715000Y-5364000D01*
X8835000Y-5304000D02*
G75*
G03*
X8715000Y-5304000I-60000J0D01*
G01*
X8715000Y-5304000D02*
G75*
G03*
X8835000Y-5304000I60000J0D01*
G01*
X8969000Y-5244000D02*
X9089000Y-5364000D01*
X9089000Y-5244000D02*
X8969000Y-5364000D01*
X9089000Y-5304000D02*
G75*
G03*
X8969000Y-5304000I-60000J0D01*
G01*
X8969000Y-5304000D02*
G75*
G03*
X9089000Y-5304000I60000J0D01*
G01*
X9223000Y-5244000D02*
X9343000Y-5364000D01*
X9343000Y-5244000D02*
X9223000Y-5364000D01*
X9343000Y-5304000D02*
G75*
G03*
X9223000Y-5304000I-60000J0D01*
G01*
X9223000Y-5304000D02*
G75*
G03*
X9343000Y-5304000I60000J0D01*
G01*
X9477000Y-5244000D02*
X9597000Y-5364000D01*
X9597000Y-5244000D02*
X9477000Y-5364000D01*
X9597000Y-5304000D02*
G75*
G03*
X9477000Y-5304000I-60000J0D01*
G01*
X9477000Y-5304000D02*
G75*
G03*
X9597000Y-5304000I60000J0D01*
G01*
X9731000Y-5244000D02*
X9851000Y-5364000D01*
X9851000Y-5244000D02*
X9731000Y-5364000D01*
X9851000Y-5304000D02*
G75*
G03*
X9731000Y-5304000I-60000J0D01*
G01*
X9731000Y-5304000D02*
G75*
G03*
X9851000Y-5304000I60000J0D01*
G01*
X9985000Y-5244000D02*
X10105000Y-5364000D01*
X10105000Y-5244000D02*
X9985000Y-5364000D01*
X10105000Y-5304000D02*
G75*
G03*
X9985000Y-5304000I-60000J0D01*
G01*
X9985000Y-5304000D02*
G75*
G03*
X10105000Y-5304000I60000J0D01*
G01*
X10239000Y-5244000D02*
X10359000Y-5364000D01*
X10359000Y-5244000D02*
X10239000Y-5364000D01*
X10359000Y-5304000D02*
G75*
G03*
X10239000Y-5304000I-60000J0D01*
G01*
X10239000Y-5304000D02*
G75*
G03*
X10359000Y-5304000I60000J0D01*
G01*
X10493000Y-5244000D02*
X10613000Y-5364000D01*
X10613000Y-5244000D02*
X10493000Y-5364000D01*
X10613000Y-5304000D02*
G75*
G03*
X10493000Y-5304000I-60000J0D01*
G01*
X10493000Y-5304000D02*
G75*
G03*
X10613000Y-5304000I60000J0D01*
G01*
X10747000Y-5244000D02*
X10867000Y-5364000D01*
X10867000Y-5244000D02*
X10747000Y-5364000D01*
X10867000Y-5304000D02*
G75*
G03*
X10747000Y-5304000I-60000J0D01*
G01*
X10747000Y-5304000D02*
G75*
G03*
X10867000Y-5304000I60000J0D01*
G01*
D15*
X8048000Y-13686000D02*
X8178000Y-13816000D01*
X8178000Y-13686000D02*
X8048000Y-13816000D01*
X8113000Y-13686000D02*
X8113000Y-13816000D01*
X8048000Y-13751000D02*
X8178000Y-13751000D01*
X8701000Y-13833000D02*
X8831000Y-13963000D01*
X8831000Y-13833000D02*
X8701000Y-13963000D01*
X8766000Y-13833000D02*
X8766000Y-13963000D01*
X8701000Y-13898000D02*
X8831000Y-13898000D01*
D16*
X5308000Y-6147000D02*
X5460000Y-6299000D01*
X5460000Y-6147000D02*
X5308000Y-6299000D01*
X5437741Y-6276741D02*
X5437741Y-6169259D01*
X5330259Y-6169259D01*
X5330259Y-6276741D01*
X5437741Y-6276741D01*
X5308000Y-6655000D02*
X5460000Y-6807000D01*
X5460000Y-6655000D02*
X5308000Y-6807000D01*
X5437741Y-6784741D02*
X5437741Y-6677259D01*
X5330259Y-6677259D01*
X5330259Y-6784741D01*
X5437741Y-6784741D01*
X5308000Y-7163000D02*
X5460000Y-7315000D01*
X5460000Y-7163000D02*
X5308000Y-7315000D01*
X5437741Y-7292741D02*
X5437741Y-7185259D01*
X5330259Y-7185259D01*
X5330259Y-7292741D01*
X5437741Y-7292741D01*
X5308000Y-7671000D02*
X5460000Y-7823000D01*
X5460000Y-7671000D02*
X5308000Y-7823000D01*
X5437741Y-7800741D02*
X5437741Y-7693259D01*
X5330259Y-7693259D01*
X5330259Y-7800741D01*
X5437741Y-7800741D01*
X5308000Y-8179000D02*
X5460000Y-8331000D01*
X5460000Y-8179000D02*
X5308000Y-8331000D01*
X5437741Y-8308741D02*
X5437741Y-8201259D01*
X5330259Y-8201259D01*
X5330259Y-8308741D01*
X5437741Y-8308741D01*
X5308000Y-8687000D02*
X5460000Y-8839000D01*
X5460000Y-8687000D02*
X5308000Y-8839000D01*
X5437741Y-8816741D02*
X5437741Y-8709259D01*
X5330259Y-8709259D01*
X5330259Y-8816741D01*
X5437741Y-8816741D01*
X5308000Y-9195000D02*
X5460000Y-9347000D01*
X5460000Y-9195000D02*
X5308000Y-9347000D01*
X5437741Y-9324741D02*
X5437741Y-9217259D01*
X5330259Y-9217259D01*
X5330259Y-9324741D01*
X5437741Y-9324741D01*
X5308000Y-9703000D02*
X5460000Y-9855000D01*
X5460000Y-9703000D02*
X5308000Y-9855000D01*
X5437741Y-9832741D02*
X5437741Y-9725259D01*
X5330259Y-9725259D01*
X5330259Y-9832741D01*
X5437741Y-9832741D01*
X5308000Y-10211000D02*
X5460000Y-10363000D01*
X5460000Y-10211000D02*
X5308000Y-10363000D01*
X5437741Y-10340741D02*
X5437741Y-10233259D01*
X5330259Y-10233259D01*
X5330259Y-10340741D01*
X5437741Y-10340741D01*
X5308000Y-10719000D02*
X5460000Y-10871000D01*
X5460000Y-10719000D02*
X5308000Y-10871000D01*
X5437741Y-10848741D02*
X5437741Y-10741259D01*
X5330259Y-10741259D01*
X5330259Y-10848741D01*
X5437741Y-10848741D01*
X5308000Y-11227000D02*
X5460000Y-11379000D01*
X5460000Y-11227000D02*
X5308000Y-11379000D01*
X5437741Y-11356741D02*
X5437741Y-11249259D01*
X5330259Y-11249259D01*
X5330259Y-11356741D01*
X5437741Y-11356741D01*
X5308000Y-11735000D02*
X5460000Y-11887000D01*
X5460000Y-11735000D02*
X5308000Y-11887000D01*
X5437741Y-11864741D02*
X5437741Y-11757259D01*
X5330259Y-11757259D01*
X5330259Y-11864741D01*
X5437741Y-11864741D01*
X5308000Y-12243000D02*
X5460000Y-12395000D01*
X5460000Y-12243000D02*
X5308000Y-12395000D01*
X5437741Y-12372741D02*
X5437741Y-12265259D01*
X5330259Y-12265259D01*
X5330259Y-12372741D01*
X5437741Y-12372741D01*
X5308000Y-12751000D02*
X5460000Y-12903000D01*
X5460000Y-12751000D02*
X5308000Y-12903000D01*
X5437741Y-12880741D02*
X5437741Y-12773259D01*
X5330259Y-12773259D01*
X5330259Y-12880741D01*
X5437741Y-12880741D01*
X5308000Y-13259000D02*
X5460000Y-13411000D01*
X5460000Y-13259000D02*
X5308000Y-13411000D01*
X5437741Y-13388741D02*
X5437741Y-13281259D01*
X5330259Y-13281259D01*
X5330259Y-13388741D01*
X5437741Y-13388741D01*
X5308000Y-13767000D02*
X5460000Y-13919000D01*
X5460000Y-13767000D02*
X5308000Y-13919000D01*
X5437741Y-13896741D02*
X5437741Y-13789259D01*
X5330259Y-13789259D01*
X5330259Y-13896741D01*
X5437741Y-13896741D01*
X9068000Y-14402000D02*
X9220000Y-14554000D01*
X9220000Y-14402000D02*
X9068000Y-14554000D01*
X9197741Y-14531741D02*
X9197741Y-14424259D01*
X9090259Y-14424259D01*
X9090259Y-14531741D01*
X9197741Y-14531741D01*
X9576000Y-14402000D02*
X9728000Y-14554000D01*
X9728000Y-14402000D02*
X9576000Y-14554000D01*
X9705741Y-14531741D02*
X9705741Y-14424259D01*
X9598259Y-14424259D01*
X9598259Y-14531741D01*
X9705741Y-14531741D01*
X10084000Y-14402000D02*
X10236000Y-14554000D01*
X10236000Y-14402000D02*
X10084000Y-14554000D01*
X10213741Y-14531741D02*
X10213741Y-14424259D01*
X10106259Y-14424259D01*
X10106259Y-14531741D01*
X10213741Y-14531741D01*
X10592000Y-14402000D02*
X10744000Y-14554000D01*
X10744000Y-14402000D02*
X10592000Y-14554000D01*
X10721741Y-14531741D02*
X10721741Y-14424259D01*
X10614259Y-14424259D01*
X10614259Y-14531741D01*
X10721741Y-14531741D01*
X11100000Y-14402000D02*
X11252000Y-14554000D01*
X11252000Y-14402000D02*
X11100000Y-14554000D01*
X11229741Y-14531741D02*
X11229741Y-14424259D01*
X11122259Y-14424259D01*
X11122259Y-14531741D01*
X11229741Y-14531741D01*
X11608000Y-14402000D02*
X11760000Y-14554000D01*
X11760000Y-14402000D02*
X11608000Y-14554000D01*
X11737741Y-14531741D02*
X11737741Y-14424259D01*
X11630259Y-14424259D01*
X11630259Y-14531741D01*
X11737741Y-14531741D01*
X12116000Y-14402000D02*
X12268000Y-14554000D01*
X12268000Y-14402000D02*
X12116000Y-14554000D01*
X12245741Y-14531741D02*
X12245741Y-14424259D01*
X12138259Y-14424259D01*
X12138259Y-14531741D01*
X12245741Y-14531741D01*
X12624000Y-14402000D02*
X12776000Y-14554000D01*
X12776000Y-14402000D02*
X12624000Y-14554000D01*
X12753741Y-14531741D02*
X12753741Y-14424259D01*
X12646259Y-14424259D01*
X12646259Y-14531741D01*
X12753741Y-14531741D01*
X13132000Y-14402000D02*
X13284000Y-14554000D01*
X13284000Y-14402000D02*
X13132000Y-14554000D01*
X13261741Y-14531741D02*
X13261741Y-14424259D01*
X13154259Y-14424259D01*
X13154259Y-14531741D01*
X13261741Y-14531741D01*
X13640000Y-14402000D02*
X13792000Y-14554000D01*
X13792000Y-14402000D02*
X13640000Y-14554000D01*
X13769741Y-14531741D02*
X13769741Y-14424259D01*
X13662259Y-14424259D01*
X13662259Y-14531741D01*
X13769741Y-14531741D01*
D17*
X6322090Y-5179000D02*
X6572090Y-5429000D01*
X6572090Y-5179000D02*
X6322090Y-5429000D01*
X6447090Y-5429000D02*
X6572090Y-5304000D01*
X6447090Y-5179000D01*
X6322090Y-5304000D01*
X6447090Y-5429000D01*
X6322090Y-8279070D02*
X6572090Y-8529070D01*
X6572090Y-8279070D02*
X6322090Y-8529070D01*
X6447090Y-8529070D02*
X6572090Y-8404070D01*
X6447090Y-8279070D01*
X6322090Y-8404070D01*
X6447090Y-8529070D01*
X13821948Y-8279070D02*
X14071948Y-8529070D01*
X14071948Y-8279070D02*
X13821948Y-8529070D01*
X13946948Y-8529070D02*
X14071948Y-8404070D01*
X13946948Y-8279070D01*
X13821948Y-8404070D01*
X13946948Y-8529070D01*
X13822000Y-5179000D02*
X14072000Y-5429000D01*
X14072000Y-5179000D02*
X13822000Y-5429000D01*
X13947000Y-5429000D02*
X14072000Y-5304000D01*
X13947000Y-5179000D01*
X13822000Y-5304000D01*
X13947000Y-5429000D01*
D11*
X5255777Y-15316484D02*
X5255777Y-15116484D01*
X5255777Y-15116484D02*
X5303396Y-15116484D01*
X5303396Y-15116484D02*
X5331967Y-15126008D01*
X5331967Y-15126008D02*
X5351015Y-15145055D01*
X5351015Y-15145055D02*
X5360539Y-15164103D01*
X5360539Y-15164103D02*
X5370063Y-15202198D01*
X5370063Y-15202198D02*
X5370063Y-15230769D01*
X5370063Y-15230769D02*
X5360539Y-15268865D01*
X5360539Y-15268865D02*
X5351015Y-15287912D01*
X5351015Y-15287912D02*
X5331967Y-15306960D01*
X5331967Y-15306960D02*
X5303396Y-15316484D01*
X5303396Y-15316484D02*
X5255777Y-15316484D01*
X5455777Y-15316484D02*
X5455777Y-15183150D01*
X5455777Y-15221246D02*
X5465301Y-15202198D01*
X5465301Y-15202198D02*
X5474824Y-15192674D01*
X5474824Y-15192674D02*
X5493872Y-15183150D01*
X5493872Y-15183150D02*
X5512920Y-15183150D01*
X5579586Y-15316484D02*
X5579586Y-15183150D01*
X5579586Y-15116484D02*
X5570063Y-15126008D01*
X5570063Y-15126008D02*
X5579586Y-15135531D01*
X5579586Y-15135531D02*
X5589110Y-15126008D01*
X5589110Y-15126008D02*
X5579586Y-15116484D01*
X5579586Y-15116484D02*
X5579586Y-15135531D01*
X5703396Y-15316484D02*
X5684348Y-15306960D01*
X5684348Y-15306960D02*
X5674824Y-15287912D01*
X5674824Y-15287912D02*
X5674824Y-15116484D01*
X5808158Y-15316484D02*
X5789110Y-15306960D01*
X5789110Y-15306960D02*
X5779586Y-15287912D01*
X5779586Y-15287912D02*
X5779586Y-15116484D01*
X6036729Y-15316484D02*
X6036729Y-15116484D01*
X6036729Y-15116484D02*
X6103396Y-15259341D01*
X6103396Y-15259341D02*
X6170062Y-15116484D01*
X6170062Y-15116484D02*
X6170062Y-15316484D01*
X6351015Y-15316484D02*
X6351015Y-15211722D01*
X6351015Y-15211722D02*
X6341491Y-15192674D01*
X6341491Y-15192674D02*
X6322443Y-15183150D01*
X6322443Y-15183150D02*
X6284348Y-15183150D01*
X6284348Y-15183150D02*
X6265301Y-15192674D01*
X6351015Y-15306960D02*
X6331967Y-15316484D01*
X6331967Y-15316484D02*
X6284348Y-15316484D01*
X6284348Y-15316484D02*
X6265301Y-15306960D01*
X6265301Y-15306960D02*
X6255777Y-15287912D01*
X6255777Y-15287912D02*
X6255777Y-15268865D01*
X6255777Y-15268865D02*
X6265301Y-15249817D01*
X6265301Y-15249817D02*
X6284348Y-15240293D01*
X6284348Y-15240293D02*
X6331967Y-15240293D01*
X6331967Y-15240293D02*
X6351015Y-15230769D01*
X6446253Y-15183150D02*
X6446253Y-15383150D01*
X6446253Y-15192674D02*
X6465301Y-15183150D01*
X6465301Y-15183150D02*
X6503396Y-15183150D01*
X6503396Y-15183150D02*
X6522443Y-15192674D01*
X6522443Y-15192674D02*
X6531967Y-15202198D01*
X6531967Y-15202198D02*
X6541491Y-15221246D01*
X6541491Y-15221246D02*
X6541491Y-15278388D01*
X6541491Y-15278388D02*
X6531967Y-15297436D01*
X6531967Y-15297436D02*
X6522443Y-15306960D01*
X6522443Y-15306960D02*
X6503396Y-15316484D01*
X6503396Y-15316484D02*
X6465301Y-15316484D01*
X6465301Y-15316484D02*
X6446253Y-15306960D01*
X6627205Y-15297436D02*
X6636729Y-15306960D01*
X6636729Y-15306960D02*
X6627205Y-15316484D01*
X6627205Y-15316484D02*
X6617682Y-15306960D01*
X6617682Y-15306960D02*
X6627205Y-15297436D01*
X6627205Y-15297436D02*
X6627205Y-15316484D01*
X6627205Y-15192674D02*
X6636729Y-15202198D01*
X6636729Y-15202198D02*
X6627205Y-15211722D01*
X6627205Y-15211722D02*
X6617682Y-15202198D01*
X6617682Y-15202198D02*
X6627205Y-15192674D01*
X6627205Y-15192674D02*
X6627205Y-15211722D01*
D10*
X4955000Y-15625000D02*
X4995000Y-15665000D01*
X4995000Y-15625000D02*
X4955000Y-15665000D01*
D11*
X5293872Y-15536484D02*
X5312920Y-15536484D01*
X5312920Y-15536484D02*
X5331967Y-15546008D01*
X5331967Y-15546008D02*
X5341491Y-15555531D01*
X5341491Y-15555531D02*
X5351015Y-15574579D01*
X5351015Y-15574579D02*
X5360539Y-15612674D01*
X5360539Y-15612674D02*
X5360539Y-15660293D01*
X5360539Y-15660293D02*
X5351015Y-15698388D01*
X5351015Y-15698388D02*
X5341491Y-15717436D01*
X5341491Y-15717436D02*
X5331967Y-15726960D01*
X5331967Y-15726960D02*
X5312920Y-15736484D01*
X5312920Y-15736484D02*
X5293872Y-15736484D01*
X5293872Y-15736484D02*
X5274824Y-15726960D01*
X5274824Y-15726960D02*
X5265301Y-15717436D01*
X5265301Y-15717436D02*
X5255777Y-15698388D01*
X5255777Y-15698388D02*
X5246253Y-15660293D01*
X5246253Y-15660293D02*
X5246253Y-15612674D01*
X5246253Y-15612674D02*
X5255777Y-15574579D01*
X5255777Y-15574579D02*
X5265301Y-15555531D01*
X5265301Y-15555531D02*
X5274824Y-15546008D01*
X5274824Y-15546008D02*
X5293872Y-15536484D01*
X5446253Y-15717436D02*
X5455777Y-15726960D01*
X5455777Y-15726960D02*
X5446253Y-15736484D01*
X5446253Y-15736484D02*
X5436729Y-15726960D01*
X5436729Y-15726960D02*
X5446253Y-15717436D01*
X5446253Y-15717436D02*
X5446253Y-15736484D01*
X5627205Y-15603150D02*
X5627205Y-15736484D01*
X5579586Y-15526960D02*
X5531967Y-15669817D01*
X5531967Y-15669817D02*
X5655777Y-15669817D01*
X5770062Y-15536484D02*
X5789110Y-15536484D01*
X5789110Y-15536484D02*
X5808158Y-15546008D01*
X5808158Y-15546008D02*
X5817682Y-15555531D01*
X5817682Y-15555531D02*
X5827205Y-15574579D01*
X5827205Y-15574579D02*
X5836729Y-15612674D01*
X5836729Y-15612674D02*
X5836729Y-15660293D01*
X5836729Y-15660293D02*
X5827205Y-15698388D01*
X5827205Y-15698388D02*
X5817682Y-15717436D01*
X5817682Y-15717436D02*
X5808158Y-15726960D01*
X5808158Y-15726960D02*
X5789110Y-15736484D01*
X5789110Y-15736484D02*
X5770062Y-15736484D01*
X5770062Y-15736484D02*
X5751015Y-15726960D01*
X5751015Y-15726960D02*
X5741491Y-15717436D01*
X5741491Y-15717436D02*
X5731967Y-15698388D01*
X5731967Y-15698388D02*
X5722443Y-15660293D01*
X5722443Y-15660293D02*
X5722443Y-15612674D01*
X5722443Y-15612674D02*
X5731967Y-15574579D01*
X5731967Y-15574579D02*
X5741491Y-15555531D01*
X5741491Y-15555531D02*
X5751015Y-15546008D01*
X5751015Y-15546008D02*
X5770062Y-15536484D01*
X5960539Y-15536484D02*
X5979586Y-15536484D01*
X5979586Y-15536484D02*
X5998634Y-15546008D01*
X5998634Y-15546008D02*
X6008158Y-15555531D01*
X6008158Y-15555531D02*
X6017682Y-15574579D01*
X6017682Y-15574579D02*
X6027205Y-15612674D01*
X6027205Y-15612674D02*
X6027205Y-15660293D01*
X6027205Y-15660293D02*
X6017682Y-15698388D01*
X6017682Y-15698388D02*
X6008158Y-15717436D01*
X6008158Y-15717436D02*
X5998634Y-15726960D01*
X5998634Y-15726960D02*
X5979586Y-15736484D01*
X5979586Y-15736484D02*
X5960539Y-15736484D01*
X5960539Y-15736484D02*
X5941491Y-15726960D01*
X5941491Y-15726960D02*
X5931967Y-15717436D01*
X5931967Y-15717436D02*
X5922443Y-15698388D01*
X5922443Y-15698388D02*
X5912920Y-15660293D01*
X5912920Y-15660293D02*
X5912920Y-15612674D01*
X5912920Y-15612674D02*
X5922443Y-15574579D01*
X5922443Y-15574579D02*
X5931967Y-15555531D01*
X5931967Y-15555531D02*
X5941491Y-15546008D01*
X5941491Y-15546008D02*
X5960539Y-15536484D01*
X6112920Y-15736484D02*
X6112920Y-15603150D01*
X6112920Y-15622198D02*
X6122443Y-15612674D01*
X6122443Y-15612674D02*
X6141491Y-15603150D01*
X6141491Y-15603150D02*
X6170063Y-15603150D01*
X6170063Y-15603150D02*
X6189110Y-15612674D01*
X6189110Y-15612674D02*
X6198634Y-15631722D01*
X6198634Y-15631722D02*
X6198634Y-15736484D01*
X6198634Y-15631722D02*
X6208158Y-15612674D01*
X6208158Y-15612674D02*
X6227205Y-15603150D01*
X6227205Y-15603150D02*
X6255777Y-15603150D01*
X6255777Y-15603150D02*
X6274824Y-15612674D01*
X6274824Y-15612674D02*
X6284348Y-15631722D01*
X6284348Y-15631722D02*
X6284348Y-15736484D01*
X6379586Y-15736484D02*
X6379586Y-15603150D01*
X6379586Y-15622198D02*
X6389110Y-15612674D01*
X6389110Y-15612674D02*
X6408158Y-15603150D01*
X6408158Y-15603150D02*
X6436729Y-15603150D01*
X6436729Y-15603150D02*
X6455777Y-15612674D01*
X6455777Y-15612674D02*
X6465301Y-15631722D01*
X6465301Y-15631722D02*
X6465301Y-15736484D01*
X6465301Y-15631722D02*
X6474824Y-15612674D01*
X6474824Y-15612674D02*
X6493872Y-15603150D01*
X6493872Y-15603150D02*
X6522443Y-15603150D01*
X6522443Y-15603150D02*
X6541491Y-15612674D01*
X6541491Y-15612674D02*
X6551015Y-15631722D01*
X6551015Y-15631722D02*
X6551015Y-15736484D01*
X6941491Y-15526960D02*
X6770063Y-15784103D01*
X7198634Y-15536484D02*
X7217682Y-15536484D01*
X7217682Y-15536484D02*
X7236729Y-15546008D01*
X7236729Y-15546008D02*
X7246253Y-15555531D01*
X7246253Y-15555531D02*
X7255777Y-15574579D01*
X7255777Y-15574579D02*
X7265301Y-15612674D01*
X7265301Y-15612674D02*
X7265301Y-15660293D01*
X7265301Y-15660293D02*
X7255777Y-15698388D01*
X7255777Y-15698388D02*
X7246253Y-15717436D01*
X7246253Y-15717436D02*
X7236729Y-15726960D01*
X7236729Y-15726960D02*
X7217682Y-15736484D01*
X7217682Y-15736484D02*
X7198634Y-15736484D01*
X7198634Y-15736484D02*
X7179586Y-15726960D01*
X7179586Y-15726960D02*
X7170063Y-15717436D01*
X7170063Y-15717436D02*
X7160539Y-15698388D01*
X7160539Y-15698388D02*
X7151015Y-15660293D01*
X7151015Y-15660293D02*
X7151015Y-15612674D01*
X7151015Y-15612674D02*
X7160539Y-15574579D01*
X7160539Y-15574579D02*
X7170063Y-15555531D01*
X7170063Y-15555531D02*
X7179586Y-15546008D01*
X7179586Y-15546008D02*
X7198634Y-15536484D01*
X7351015Y-15717436D02*
X7360539Y-15726960D01*
X7360539Y-15726960D02*
X7351015Y-15736484D01*
X7351015Y-15736484D02*
X7341491Y-15726960D01*
X7341491Y-15726960D02*
X7351015Y-15717436D01*
X7351015Y-15717436D02*
X7351015Y-15736484D01*
X7484348Y-15536484D02*
X7503396Y-15536484D01*
X7503396Y-15536484D02*
X7522444Y-15546008D01*
X7522444Y-15546008D02*
X7531967Y-15555531D01*
X7531967Y-15555531D02*
X7541491Y-15574579D01*
X7541491Y-15574579D02*
X7551015Y-15612674D01*
X7551015Y-15612674D02*
X7551015Y-15660293D01*
X7551015Y-15660293D02*
X7541491Y-15698388D01*
X7541491Y-15698388D02*
X7531967Y-15717436D01*
X7531967Y-15717436D02*
X7522444Y-15726960D01*
X7522444Y-15726960D02*
X7503396Y-15736484D01*
X7503396Y-15736484D02*
X7484348Y-15736484D01*
X7484348Y-15736484D02*
X7465301Y-15726960D01*
X7465301Y-15726960D02*
X7455777Y-15717436D01*
X7455777Y-15717436D02*
X7446253Y-15698388D01*
X7446253Y-15698388D02*
X7436729Y-15660293D01*
X7436729Y-15660293D02*
X7436729Y-15612674D01*
X7436729Y-15612674D02*
X7446253Y-15574579D01*
X7446253Y-15574579D02*
X7455777Y-15555531D01*
X7455777Y-15555531D02*
X7465301Y-15546008D01*
X7465301Y-15546008D02*
X7484348Y-15536484D01*
X7741491Y-15736484D02*
X7627206Y-15736484D01*
X7684348Y-15736484D02*
X7684348Y-15536484D01*
X7684348Y-15536484D02*
X7665301Y-15565055D01*
X7665301Y-15565055D02*
X7646253Y-15584103D01*
X7646253Y-15584103D02*
X7627206Y-15593627D01*
X7922444Y-15536484D02*
X7827206Y-15536484D01*
X7827206Y-15536484D02*
X7817682Y-15631722D01*
X7817682Y-15631722D02*
X7827206Y-15622198D01*
X7827206Y-15622198D02*
X7846253Y-15612674D01*
X7846253Y-15612674D02*
X7893872Y-15612674D01*
X7893872Y-15612674D02*
X7912920Y-15622198D01*
X7912920Y-15622198D02*
X7922444Y-15631722D01*
X7922444Y-15631722D02*
X7931967Y-15650769D01*
X7931967Y-15650769D02*
X7931967Y-15698388D01*
X7931967Y-15698388D02*
X7922444Y-15717436D01*
X7922444Y-15717436D02*
X7912920Y-15726960D01*
X7912920Y-15726960D02*
X7893872Y-15736484D01*
X7893872Y-15736484D02*
X7846253Y-15736484D01*
X7846253Y-15736484D02*
X7827206Y-15726960D01*
X7827206Y-15726960D02*
X7817682Y-15717436D01*
X7998634Y-15536484D02*
X8131967Y-15536484D01*
X8131967Y-15536484D02*
X8046253Y-15736484D01*
X8198634Y-15536484D02*
X8198634Y-15574579D01*
X8274825Y-15536484D02*
X8274825Y-15574579D01*
X8570063Y-15812674D02*
X8560539Y-15803150D01*
X8560539Y-15803150D02*
X8541491Y-15774579D01*
X8541491Y-15774579D02*
X8531968Y-15755531D01*
X8531968Y-15755531D02*
X8522444Y-15726960D01*
X8522444Y-15726960D02*
X8512920Y-15679341D01*
X8512920Y-15679341D02*
X8512920Y-15641246D01*
X8512920Y-15641246D02*
X8522444Y-15593627D01*
X8522444Y-15593627D02*
X8531968Y-15565055D01*
X8531968Y-15565055D02*
X8541491Y-15546008D01*
X8541491Y-15546008D02*
X8560539Y-15517436D01*
X8560539Y-15517436D02*
X8570063Y-15507912D01*
X8636730Y-15555531D02*
X8646253Y-15546008D01*
X8646253Y-15546008D02*
X8665301Y-15536484D01*
X8665301Y-15536484D02*
X8712920Y-15536484D01*
X8712920Y-15536484D02*
X8731968Y-15546008D01*
X8731968Y-15546008D02*
X8741491Y-15555531D01*
X8741491Y-15555531D02*
X8751015Y-15574579D01*
X8751015Y-15574579D02*
X8751015Y-15593627D01*
X8751015Y-15593627D02*
X8741491Y-15622198D01*
X8741491Y-15622198D02*
X8627206Y-15736484D01*
X8627206Y-15736484D02*
X8751015Y-15736484D01*
X8941491Y-15736484D02*
X8827206Y-15736484D01*
X8884349Y-15736484D02*
X8884349Y-15536484D01*
X8884349Y-15536484D02*
X8865301Y-15565055D01*
X8865301Y-15565055D02*
X8846253Y-15584103D01*
X8846253Y-15584103D02*
X8827206Y-15593627D01*
X9179587Y-15736484D02*
X9179587Y-15536484D01*
X9265301Y-15736484D02*
X9265301Y-15631722D01*
X9265301Y-15631722D02*
X9255777Y-15612674D01*
X9255777Y-15612674D02*
X9236730Y-15603150D01*
X9236730Y-15603150D02*
X9208158Y-15603150D01*
X9208158Y-15603150D02*
X9189111Y-15612674D01*
X9189111Y-15612674D02*
X9179587Y-15622198D01*
X9389111Y-15736484D02*
X9370063Y-15726960D01*
X9370063Y-15726960D02*
X9360539Y-15717436D01*
X9360539Y-15717436D02*
X9351015Y-15698388D01*
X9351015Y-15698388D02*
X9351015Y-15641246D01*
X9351015Y-15641246D02*
X9360539Y-15622198D01*
X9360539Y-15622198D02*
X9370063Y-15612674D01*
X9370063Y-15612674D02*
X9389111Y-15603150D01*
X9389111Y-15603150D02*
X9417682Y-15603150D01*
X9417682Y-15603150D02*
X9436730Y-15612674D01*
X9436730Y-15612674D02*
X9446253Y-15622198D01*
X9446253Y-15622198D02*
X9455777Y-15641246D01*
X9455777Y-15641246D02*
X9455777Y-15698388D01*
X9455777Y-15698388D02*
X9446253Y-15717436D01*
X9446253Y-15717436D02*
X9436730Y-15726960D01*
X9436730Y-15726960D02*
X9417682Y-15736484D01*
X9417682Y-15736484D02*
X9389111Y-15736484D01*
X9570063Y-15736484D02*
X9551015Y-15726960D01*
X9551015Y-15726960D02*
X9541492Y-15707912D01*
X9541492Y-15707912D02*
X9541492Y-15536484D01*
X9722444Y-15726960D02*
X9703396Y-15736484D01*
X9703396Y-15736484D02*
X9665301Y-15736484D01*
X9665301Y-15736484D02*
X9646253Y-15726960D01*
X9646253Y-15726960D02*
X9636730Y-15707912D01*
X9636730Y-15707912D02*
X9636730Y-15631722D01*
X9636730Y-15631722D02*
X9646253Y-15612674D01*
X9646253Y-15612674D02*
X9665301Y-15603150D01*
X9665301Y-15603150D02*
X9703396Y-15603150D01*
X9703396Y-15603150D02*
X9722444Y-15612674D01*
X9722444Y-15612674D02*
X9731968Y-15631722D01*
X9731968Y-15631722D02*
X9731968Y-15650769D01*
X9731968Y-15650769D02*
X9636730Y-15669817D01*
X9808158Y-15726960D02*
X9827206Y-15736484D01*
X9827206Y-15736484D02*
X9865301Y-15736484D01*
X9865301Y-15736484D02*
X9884349Y-15726960D01*
X9884349Y-15726960D02*
X9893873Y-15707912D01*
X9893873Y-15707912D02*
X9893873Y-15698388D01*
X9893873Y-15698388D02*
X9884349Y-15679341D01*
X9884349Y-15679341D02*
X9865301Y-15669817D01*
X9865301Y-15669817D02*
X9836730Y-15669817D01*
X9836730Y-15669817D02*
X9817682Y-15660293D01*
X9817682Y-15660293D02*
X9808158Y-15641246D01*
X9808158Y-15641246D02*
X9808158Y-15631722D01*
X9808158Y-15631722D02*
X9817682Y-15612674D01*
X9817682Y-15612674D02*
X9836730Y-15603150D01*
X9836730Y-15603150D02*
X9865301Y-15603150D01*
X9865301Y-15603150D02*
X9884349Y-15612674D01*
X9960539Y-15812674D02*
X9970063Y-15803150D01*
X9970063Y-15803150D02*
X9989111Y-15774579D01*
X9989111Y-15774579D02*
X9998634Y-15755531D01*
X9998634Y-15755531D02*
X10008158Y-15726960D01*
X10008158Y-15726960D02*
X10017682Y-15679341D01*
X10017682Y-15679341D02*
X10017682Y-15641246D01*
X10017682Y-15641246D02*
X10008158Y-15593627D01*
X10008158Y-15593627D02*
X9998634Y-15565055D01*
X9998634Y-15565055D02*
X9989111Y-15546008D01*
X9989111Y-15546008D02*
X9970063Y-15517436D01*
X9970063Y-15517436D02*
X9960539Y-15507912D01*
D10*
X4995000Y-15909000D02*
G75*
G03*
X4915000Y-15909000I-40000J0D01*
G01*
X4915000Y-15909000D02*
G75*
G03*
X4995000Y-15909000I40000J0D01*
G01*
D11*
X5293872Y-15800484D02*
X5312920Y-15800484D01*
X5312920Y-15800484D02*
X5331967Y-15810008D01*
X5331967Y-15810008D02*
X5341491Y-15819531D01*
X5341491Y-15819531D02*
X5351015Y-15838579D01*
X5351015Y-15838579D02*
X5360539Y-15876674D01*
X5360539Y-15876674D02*
X5360539Y-15924293D01*
X5360539Y-15924293D02*
X5351015Y-15962388D01*
X5351015Y-15962388D02*
X5341491Y-15981436D01*
X5341491Y-15981436D02*
X5331967Y-15990960D01*
X5331967Y-15990960D02*
X5312920Y-16000484D01*
X5312920Y-16000484D02*
X5293872Y-16000484D01*
X5293872Y-16000484D02*
X5274824Y-15990960D01*
X5274824Y-15990960D02*
X5265301Y-15981436D01*
X5265301Y-15981436D02*
X5255777Y-15962388D01*
X5255777Y-15962388D02*
X5246253Y-15924293D01*
X5246253Y-15924293D02*
X5246253Y-15876674D01*
X5246253Y-15876674D02*
X5255777Y-15838579D01*
X5255777Y-15838579D02*
X5265301Y-15819531D01*
X5265301Y-15819531D02*
X5274824Y-15810008D01*
X5274824Y-15810008D02*
X5293872Y-15800484D01*
X5446253Y-15981436D02*
X5455777Y-15990960D01*
X5455777Y-15990960D02*
X5446253Y-16000484D01*
X5446253Y-16000484D02*
X5436729Y-15990960D01*
X5436729Y-15990960D02*
X5446253Y-15981436D01*
X5446253Y-15981436D02*
X5446253Y-16000484D01*
X5570063Y-15886198D02*
X5551015Y-15876674D01*
X5551015Y-15876674D02*
X5541491Y-15867150D01*
X5541491Y-15867150D02*
X5531967Y-15848103D01*
X5531967Y-15848103D02*
X5531967Y-15838579D01*
X5531967Y-15838579D02*
X5541491Y-15819531D01*
X5541491Y-15819531D02*
X5551015Y-15810008D01*
X5551015Y-15810008D02*
X5570063Y-15800484D01*
X5570063Y-15800484D02*
X5608158Y-15800484D01*
X5608158Y-15800484D02*
X5627205Y-15810008D01*
X5627205Y-15810008D02*
X5636729Y-15819531D01*
X5636729Y-15819531D02*
X5646253Y-15838579D01*
X5646253Y-15838579D02*
X5646253Y-15848103D01*
X5646253Y-15848103D02*
X5636729Y-15867150D01*
X5636729Y-15867150D02*
X5627205Y-15876674D01*
X5627205Y-15876674D02*
X5608158Y-15886198D01*
X5608158Y-15886198D02*
X5570063Y-15886198D01*
X5570063Y-15886198D02*
X5551015Y-15895722D01*
X5551015Y-15895722D02*
X5541491Y-15905246D01*
X5541491Y-15905246D02*
X5531967Y-15924293D01*
X5531967Y-15924293D02*
X5531967Y-15962388D01*
X5531967Y-15962388D02*
X5541491Y-15981436D01*
X5541491Y-15981436D02*
X5551015Y-15990960D01*
X5551015Y-15990960D02*
X5570063Y-16000484D01*
X5570063Y-16000484D02*
X5608158Y-16000484D01*
X5608158Y-16000484D02*
X5627205Y-15990960D01*
X5627205Y-15990960D02*
X5636729Y-15981436D01*
X5636729Y-15981436D02*
X5646253Y-15962388D01*
X5646253Y-15962388D02*
X5646253Y-15924293D01*
X5646253Y-15924293D02*
X5636729Y-15905246D01*
X5636729Y-15905246D02*
X5627205Y-15895722D01*
X5627205Y-15895722D02*
X5608158Y-15886198D01*
X5770062Y-15800484D02*
X5789110Y-15800484D01*
X5789110Y-15800484D02*
X5808158Y-15810008D01*
X5808158Y-15810008D02*
X5817682Y-15819531D01*
X5817682Y-15819531D02*
X5827205Y-15838579D01*
X5827205Y-15838579D02*
X5836729Y-15876674D01*
X5836729Y-15876674D02*
X5836729Y-15924293D01*
X5836729Y-15924293D02*
X5827205Y-15962388D01*
X5827205Y-15962388D02*
X5817682Y-15981436D01*
X5817682Y-15981436D02*
X5808158Y-15990960D01*
X5808158Y-15990960D02*
X5789110Y-16000484D01*
X5789110Y-16000484D02*
X5770062Y-16000484D01*
X5770062Y-16000484D02*
X5751015Y-15990960D01*
X5751015Y-15990960D02*
X5741491Y-15981436D01*
X5741491Y-15981436D02*
X5731967Y-15962388D01*
X5731967Y-15962388D02*
X5722443Y-15924293D01*
X5722443Y-15924293D02*
X5722443Y-15876674D01*
X5722443Y-15876674D02*
X5731967Y-15838579D01*
X5731967Y-15838579D02*
X5741491Y-15819531D01*
X5741491Y-15819531D02*
X5751015Y-15810008D01*
X5751015Y-15810008D02*
X5770062Y-15800484D01*
X5960539Y-15800484D02*
X5979586Y-15800484D01*
X5979586Y-15800484D02*
X5998634Y-15810008D01*
X5998634Y-15810008D02*
X6008158Y-15819531D01*
X6008158Y-15819531D02*
X6017682Y-15838579D01*
X6017682Y-15838579D02*
X6027205Y-15876674D01*
X6027205Y-15876674D02*
X6027205Y-15924293D01*
X6027205Y-15924293D02*
X6017682Y-15962388D01*
X6017682Y-15962388D02*
X6008158Y-15981436D01*
X6008158Y-15981436D02*
X5998634Y-15990960D01*
X5998634Y-15990960D02*
X5979586Y-16000484D01*
X5979586Y-16000484D02*
X5960539Y-16000484D01*
X5960539Y-16000484D02*
X5941491Y-15990960D01*
X5941491Y-15990960D02*
X5931967Y-15981436D01*
X5931967Y-15981436D02*
X5922443Y-15962388D01*
X5922443Y-15962388D02*
X5912920Y-15924293D01*
X5912920Y-15924293D02*
X5912920Y-15876674D01*
X5912920Y-15876674D02*
X5922443Y-15838579D01*
X5922443Y-15838579D02*
X5931967Y-15819531D01*
X5931967Y-15819531D02*
X5941491Y-15810008D01*
X5941491Y-15810008D02*
X5960539Y-15800484D01*
X6112920Y-16000484D02*
X6112920Y-15867150D01*
X6112920Y-15886198D02*
X6122443Y-15876674D01*
X6122443Y-15876674D02*
X6141491Y-15867150D01*
X6141491Y-15867150D02*
X6170063Y-15867150D01*
X6170063Y-15867150D02*
X6189110Y-15876674D01*
X6189110Y-15876674D02*
X6198634Y-15895722D01*
X6198634Y-15895722D02*
X6198634Y-16000484D01*
X6198634Y-15895722D02*
X6208158Y-15876674D01*
X6208158Y-15876674D02*
X6227205Y-15867150D01*
X6227205Y-15867150D02*
X6255777Y-15867150D01*
X6255777Y-15867150D02*
X6274824Y-15876674D01*
X6274824Y-15876674D02*
X6284348Y-15895722D01*
X6284348Y-15895722D02*
X6284348Y-16000484D01*
X6379586Y-16000484D02*
X6379586Y-15867150D01*
X6379586Y-15886198D02*
X6389110Y-15876674D01*
X6389110Y-15876674D02*
X6408158Y-15867150D01*
X6408158Y-15867150D02*
X6436729Y-15867150D01*
X6436729Y-15867150D02*
X6455777Y-15876674D01*
X6455777Y-15876674D02*
X6465301Y-15895722D01*
X6465301Y-15895722D02*
X6465301Y-16000484D01*
X6465301Y-15895722D02*
X6474824Y-15876674D01*
X6474824Y-15876674D02*
X6493872Y-15867150D01*
X6493872Y-15867150D02*
X6522443Y-15867150D01*
X6522443Y-15867150D02*
X6541491Y-15876674D01*
X6541491Y-15876674D02*
X6551015Y-15895722D01*
X6551015Y-15895722D02*
X6551015Y-16000484D01*
X6941491Y-15790960D02*
X6770063Y-16048103D01*
X7198634Y-15800484D02*
X7217682Y-15800484D01*
X7217682Y-15800484D02*
X7236729Y-15810008D01*
X7236729Y-15810008D02*
X7246253Y-15819531D01*
X7246253Y-15819531D02*
X7255777Y-15838579D01*
X7255777Y-15838579D02*
X7265301Y-15876674D01*
X7265301Y-15876674D02*
X7265301Y-15924293D01*
X7265301Y-15924293D02*
X7255777Y-15962388D01*
X7255777Y-15962388D02*
X7246253Y-15981436D01*
X7246253Y-15981436D02*
X7236729Y-15990960D01*
X7236729Y-15990960D02*
X7217682Y-16000484D01*
X7217682Y-16000484D02*
X7198634Y-16000484D01*
X7198634Y-16000484D02*
X7179586Y-15990960D01*
X7179586Y-15990960D02*
X7170063Y-15981436D01*
X7170063Y-15981436D02*
X7160539Y-15962388D01*
X7160539Y-15962388D02*
X7151015Y-15924293D01*
X7151015Y-15924293D02*
X7151015Y-15876674D01*
X7151015Y-15876674D02*
X7160539Y-15838579D01*
X7160539Y-15838579D02*
X7170063Y-15819531D01*
X7170063Y-15819531D02*
X7179586Y-15810008D01*
X7179586Y-15810008D02*
X7198634Y-15800484D01*
X7351015Y-15981436D02*
X7360539Y-15990960D01*
X7360539Y-15990960D02*
X7351015Y-16000484D01*
X7351015Y-16000484D02*
X7341491Y-15990960D01*
X7341491Y-15990960D02*
X7351015Y-15981436D01*
X7351015Y-15981436D02*
X7351015Y-16000484D01*
X7484348Y-15800484D02*
X7503396Y-15800484D01*
X7503396Y-15800484D02*
X7522444Y-15810008D01*
X7522444Y-15810008D02*
X7531967Y-15819531D01*
X7531967Y-15819531D02*
X7541491Y-15838579D01*
X7541491Y-15838579D02*
X7551015Y-15876674D01*
X7551015Y-15876674D02*
X7551015Y-15924293D01*
X7551015Y-15924293D02*
X7541491Y-15962388D01*
X7541491Y-15962388D02*
X7531967Y-15981436D01*
X7531967Y-15981436D02*
X7522444Y-15990960D01*
X7522444Y-15990960D02*
X7503396Y-16000484D01*
X7503396Y-16000484D02*
X7484348Y-16000484D01*
X7484348Y-16000484D02*
X7465301Y-15990960D01*
X7465301Y-15990960D02*
X7455777Y-15981436D01*
X7455777Y-15981436D02*
X7446253Y-15962388D01*
X7446253Y-15962388D02*
X7436729Y-15924293D01*
X7436729Y-15924293D02*
X7436729Y-15876674D01*
X7436729Y-15876674D02*
X7446253Y-15838579D01*
X7446253Y-15838579D02*
X7455777Y-15819531D01*
X7455777Y-15819531D02*
X7465301Y-15810008D01*
X7465301Y-15810008D02*
X7484348Y-15800484D01*
X7617682Y-15800484D02*
X7741491Y-15800484D01*
X7741491Y-15800484D02*
X7674825Y-15876674D01*
X7674825Y-15876674D02*
X7703396Y-15876674D01*
X7703396Y-15876674D02*
X7722444Y-15886198D01*
X7722444Y-15886198D02*
X7731967Y-15895722D01*
X7731967Y-15895722D02*
X7741491Y-15914769D01*
X7741491Y-15914769D02*
X7741491Y-15962388D01*
X7741491Y-15962388D02*
X7731967Y-15981436D01*
X7731967Y-15981436D02*
X7722444Y-15990960D01*
X7722444Y-15990960D02*
X7703396Y-16000484D01*
X7703396Y-16000484D02*
X7646253Y-16000484D01*
X7646253Y-16000484D02*
X7627206Y-15990960D01*
X7627206Y-15990960D02*
X7617682Y-15981436D01*
X7931967Y-16000484D02*
X7817682Y-16000484D01*
X7874825Y-16000484D02*
X7874825Y-15800484D01*
X7874825Y-15800484D02*
X7855777Y-15829055D01*
X7855777Y-15829055D02*
X7836729Y-15848103D01*
X7836729Y-15848103D02*
X7817682Y-15857627D01*
X8112920Y-15800484D02*
X8017682Y-15800484D01*
X8017682Y-15800484D02*
X8008158Y-15895722D01*
X8008158Y-15895722D02*
X8017682Y-15886198D01*
X8017682Y-15886198D02*
X8036729Y-15876674D01*
X8036729Y-15876674D02*
X8084348Y-15876674D01*
X8084348Y-15876674D02*
X8103396Y-15886198D01*
X8103396Y-15886198D02*
X8112920Y-15895722D01*
X8112920Y-15895722D02*
X8122444Y-15914769D01*
X8122444Y-15914769D02*
X8122444Y-15962388D01*
X8122444Y-15962388D02*
X8112920Y-15981436D01*
X8112920Y-15981436D02*
X8103396Y-15990960D01*
X8103396Y-15990960D02*
X8084348Y-16000484D01*
X8084348Y-16000484D02*
X8036729Y-16000484D01*
X8036729Y-16000484D02*
X8017682Y-15990960D01*
X8017682Y-15990960D02*
X8008158Y-15981436D01*
X8198634Y-15800484D02*
X8198634Y-15838579D01*
X8274825Y-15800484D02*
X8274825Y-15838579D01*
X8570063Y-16076674D02*
X8560539Y-16067150D01*
X8560539Y-16067150D02*
X8541491Y-16038579D01*
X8541491Y-16038579D02*
X8531968Y-16019531D01*
X8531968Y-16019531D02*
X8522444Y-15990960D01*
X8522444Y-15990960D02*
X8512920Y-15943341D01*
X8512920Y-15943341D02*
X8512920Y-15905246D01*
X8512920Y-15905246D02*
X8522444Y-15857627D01*
X8522444Y-15857627D02*
X8531968Y-15829055D01*
X8531968Y-15829055D02*
X8541491Y-15810008D01*
X8541491Y-15810008D02*
X8560539Y-15781436D01*
X8560539Y-15781436D02*
X8570063Y-15771912D01*
X8636730Y-15819531D02*
X8646253Y-15810008D01*
X8646253Y-15810008D02*
X8665301Y-15800484D01*
X8665301Y-15800484D02*
X8712920Y-15800484D01*
X8712920Y-15800484D02*
X8731968Y-15810008D01*
X8731968Y-15810008D02*
X8741491Y-15819531D01*
X8741491Y-15819531D02*
X8751015Y-15838579D01*
X8751015Y-15838579D02*
X8751015Y-15857627D01*
X8751015Y-15857627D02*
X8741491Y-15886198D01*
X8741491Y-15886198D02*
X8627206Y-16000484D01*
X8627206Y-16000484D02*
X8751015Y-16000484D01*
X8931968Y-15800484D02*
X8836730Y-15800484D01*
X8836730Y-15800484D02*
X8827206Y-15895722D01*
X8827206Y-15895722D02*
X8836730Y-15886198D01*
X8836730Y-15886198D02*
X8855777Y-15876674D01*
X8855777Y-15876674D02*
X8903396Y-15876674D01*
X8903396Y-15876674D02*
X8922444Y-15886198D01*
X8922444Y-15886198D02*
X8931968Y-15895722D01*
X8931968Y-15895722D02*
X8941491Y-15914769D01*
X8941491Y-15914769D02*
X8941491Y-15962388D01*
X8941491Y-15962388D02*
X8931968Y-15981436D01*
X8931968Y-15981436D02*
X8922444Y-15990960D01*
X8922444Y-15990960D02*
X8903396Y-16000484D01*
X8903396Y-16000484D02*
X8855777Y-16000484D01*
X8855777Y-16000484D02*
X8836730Y-15990960D01*
X8836730Y-15990960D02*
X8827206Y-15981436D01*
X9055777Y-15886198D02*
X9036730Y-15876674D01*
X9036730Y-15876674D02*
X9027206Y-15867150D01*
X9027206Y-15867150D02*
X9017682Y-15848103D01*
X9017682Y-15848103D02*
X9017682Y-15838579D01*
X9017682Y-15838579D02*
X9027206Y-15819531D01*
X9027206Y-15819531D02*
X9036730Y-15810008D01*
X9036730Y-15810008D02*
X9055777Y-15800484D01*
X9055777Y-15800484D02*
X9093872Y-15800484D01*
X9093872Y-15800484D02*
X9112920Y-15810008D01*
X9112920Y-15810008D02*
X9122444Y-15819531D01*
X9122444Y-15819531D02*
X9131968Y-15838579D01*
X9131968Y-15838579D02*
X9131968Y-15848103D01*
X9131968Y-15848103D02*
X9122444Y-15867150D01*
X9122444Y-15867150D02*
X9112920Y-15876674D01*
X9112920Y-15876674D02*
X9093872Y-15886198D01*
X9093872Y-15886198D02*
X9055777Y-15886198D01*
X9055777Y-15886198D02*
X9036730Y-15895722D01*
X9036730Y-15895722D02*
X9027206Y-15905246D01*
X9027206Y-15905246D02*
X9017682Y-15924293D01*
X9017682Y-15924293D02*
X9017682Y-15962388D01*
X9017682Y-15962388D02*
X9027206Y-15981436D01*
X9027206Y-15981436D02*
X9036730Y-15990960D01*
X9036730Y-15990960D02*
X9055777Y-16000484D01*
X9055777Y-16000484D02*
X9093872Y-16000484D01*
X9093872Y-16000484D02*
X9112920Y-15990960D01*
X9112920Y-15990960D02*
X9122444Y-15981436D01*
X9122444Y-15981436D02*
X9131968Y-15962388D01*
X9131968Y-15962388D02*
X9131968Y-15924293D01*
X9131968Y-15924293D02*
X9122444Y-15905246D01*
X9122444Y-15905246D02*
X9112920Y-15895722D01*
X9112920Y-15895722D02*
X9093872Y-15886198D01*
X9370063Y-16000484D02*
X9370063Y-15800484D01*
X9455777Y-16000484D02*
X9455777Y-15895722D01*
X9455777Y-15895722D02*
X9446253Y-15876674D01*
X9446253Y-15876674D02*
X9427206Y-15867150D01*
X9427206Y-15867150D02*
X9398634Y-15867150D01*
X9398634Y-15867150D02*
X9379587Y-15876674D01*
X9379587Y-15876674D02*
X9370063Y-15886198D01*
X9579587Y-16000484D02*
X9560539Y-15990960D01*
X9560539Y-15990960D02*
X9551015Y-15981436D01*
X9551015Y-15981436D02*
X9541492Y-15962388D01*
X9541492Y-15962388D02*
X9541492Y-15905246D01*
X9541492Y-15905246D02*
X9551015Y-15886198D01*
X9551015Y-15886198D02*
X9560539Y-15876674D01*
X9560539Y-15876674D02*
X9579587Y-15867150D01*
X9579587Y-15867150D02*
X9608158Y-15867150D01*
X9608158Y-15867150D02*
X9627206Y-15876674D01*
X9627206Y-15876674D02*
X9636730Y-15886198D01*
X9636730Y-15886198D02*
X9646253Y-15905246D01*
X9646253Y-15905246D02*
X9646253Y-15962388D01*
X9646253Y-15962388D02*
X9636730Y-15981436D01*
X9636730Y-15981436D02*
X9627206Y-15990960D01*
X9627206Y-15990960D02*
X9608158Y-16000484D01*
X9608158Y-16000484D02*
X9579587Y-16000484D01*
X9760539Y-16000484D02*
X9741492Y-15990960D01*
X9741492Y-15990960D02*
X9731968Y-15971912D01*
X9731968Y-15971912D02*
X9731968Y-15800484D01*
X9912920Y-15990960D02*
X9893873Y-16000484D01*
X9893873Y-16000484D02*
X9855777Y-16000484D01*
X9855777Y-16000484D02*
X9836730Y-15990960D01*
X9836730Y-15990960D02*
X9827206Y-15971912D01*
X9827206Y-15971912D02*
X9827206Y-15895722D01*
X9827206Y-15895722D02*
X9836730Y-15876674D01*
X9836730Y-15876674D02*
X9855777Y-15867150D01*
X9855777Y-15867150D02*
X9893873Y-15867150D01*
X9893873Y-15867150D02*
X9912920Y-15876674D01*
X9912920Y-15876674D02*
X9922444Y-15895722D01*
X9922444Y-15895722D02*
X9922444Y-15914769D01*
X9922444Y-15914769D02*
X9827206Y-15933817D01*
X9998634Y-15990960D02*
X10017682Y-16000484D01*
X10017682Y-16000484D02*
X10055777Y-16000484D01*
X10055777Y-16000484D02*
X10074825Y-15990960D01*
X10074825Y-15990960D02*
X10084349Y-15971912D01*
X10084349Y-15971912D02*
X10084349Y-15962388D01*
X10084349Y-15962388D02*
X10074825Y-15943341D01*
X10074825Y-15943341D02*
X10055777Y-15933817D01*
X10055777Y-15933817D02*
X10027206Y-15933817D01*
X10027206Y-15933817D02*
X10008158Y-15924293D01*
X10008158Y-15924293D02*
X9998634Y-15905246D01*
X9998634Y-15905246D02*
X9998634Y-15895722D01*
X9998634Y-15895722D02*
X10008158Y-15876674D01*
X10008158Y-15876674D02*
X10027206Y-15867150D01*
X10027206Y-15867150D02*
X10055777Y-15867150D01*
X10055777Y-15867150D02*
X10074825Y-15876674D01*
X10151015Y-16076674D02*
X10160539Y-16067150D01*
X10160539Y-16067150D02*
X10179587Y-16038579D01*
X10179587Y-16038579D02*
X10189111Y-16019531D01*
X10189111Y-16019531D02*
X10198634Y-15990960D01*
X10198634Y-15990960D02*
X10208158Y-15943341D01*
X10208158Y-15943341D02*
X10208158Y-15905246D01*
X10208158Y-15905246D02*
X10198634Y-15857627D01*
X10198634Y-15857627D02*
X10189111Y-15829055D01*
X10189111Y-15829055D02*
X10179587Y-15810008D01*
X10179587Y-15810008D02*
X10160539Y-15781436D01*
X10160539Y-15781436D02*
X10151015Y-15771912D01*
D10*
X4945000Y-16123000D02*
X4945000Y-16223000D01*
X4895000Y-16173000D02*
X4995000Y-16173000D01*
D11*
X5360539Y-16264484D02*
X5246253Y-16264484D01*
X5303396Y-16264484D02*
X5303396Y-16064484D01*
X5303396Y-16064484D02*
X5284348Y-16093055D01*
X5284348Y-16093055D02*
X5265301Y-16112103D01*
X5265301Y-16112103D02*
X5246253Y-16121627D01*
X5446253Y-16245436D02*
X5455777Y-16254960D01*
X5455777Y-16254960D02*
X5446253Y-16264484D01*
X5446253Y-16264484D02*
X5436729Y-16254960D01*
X5436729Y-16254960D02*
X5446253Y-16245436D01*
X5446253Y-16245436D02*
X5446253Y-16264484D01*
X5579586Y-16064484D02*
X5598634Y-16064484D01*
X5598634Y-16064484D02*
X5617682Y-16074008D01*
X5617682Y-16074008D02*
X5627205Y-16083531D01*
X5627205Y-16083531D02*
X5636729Y-16102579D01*
X5636729Y-16102579D02*
X5646253Y-16140674D01*
X5646253Y-16140674D02*
X5646253Y-16188293D01*
X5646253Y-16188293D02*
X5636729Y-16226388D01*
X5636729Y-16226388D02*
X5627205Y-16245436D01*
X5627205Y-16245436D02*
X5617682Y-16254960D01*
X5617682Y-16254960D02*
X5598634Y-16264484D01*
X5598634Y-16264484D02*
X5579586Y-16264484D01*
X5579586Y-16264484D02*
X5560539Y-16254960D01*
X5560539Y-16254960D02*
X5551015Y-16245436D01*
X5551015Y-16245436D02*
X5541491Y-16226388D01*
X5541491Y-16226388D02*
X5531967Y-16188293D01*
X5531967Y-16188293D02*
X5531967Y-16140674D01*
X5531967Y-16140674D02*
X5541491Y-16102579D01*
X5541491Y-16102579D02*
X5551015Y-16083531D01*
X5551015Y-16083531D02*
X5560539Y-16074008D01*
X5560539Y-16074008D02*
X5579586Y-16064484D01*
X5770062Y-16064484D02*
X5789110Y-16064484D01*
X5789110Y-16064484D02*
X5808158Y-16074008D01*
X5808158Y-16074008D02*
X5817682Y-16083531D01*
X5817682Y-16083531D02*
X5827205Y-16102579D01*
X5827205Y-16102579D02*
X5836729Y-16140674D01*
X5836729Y-16140674D02*
X5836729Y-16188293D01*
X5836729Y-16188293D02*
X5827205Y-16226388D01*
X5827205Y-16226388D02*
X5817682Y-16245436D01*
X5817682Y-16245436D02*
X5808158Y-16254960D01*
X5808158Y-16254960D02*
X5789110Y-16264484D01*
X5789110Y-16264484D02*
X5770062Y-16264484D01*
X5770062Y-16264484D02*
X5751015Y-16254960D01*
X5751015Y-16254960D02*
X5741491Y-16245436D01*
X5741491Y-16245436D02*
X5731967Y-16226388D01*
X5731967Y-16226388D02*
X5722443Y-16188293D01*
X5722443Y-16188293D02*
X5722443Y-16140674D01*
X5722443Y-16140674D02*
X5731967Y-16102579D01*
X5731967Y-16102579D02*
X5741491Y-16083531D01*
X5741491Y-16083531D02*
X5751015Y-16074008D01*
X5751015Y-16074008D02*
X5770062Y-16064484D01*
X5960539Y-16064484D02*
X5979586Y-16064484D01*
X5979586Y-16064484D02*
X5998634Y-16074008D01*
X5998634Y-16074008D02*
X6008158Y-16083531D01*
X6008158Y-16083531D02*
X6017682Y-16102579D01*
X6017682Y-16102579D02*
X6027205Y-16140674D01*
X6027205Y-16140674D02*
X6027205Y-16188293D01*
X6027205Y-16188293D02*
X6017682Y-16226388D01*
X6017682Y-16226388D02*
X6008158Y-16245436D01*
X6008158Y-16245436D02*
X5998634Y-16254960D01*
X5998634Y-16254960D02*
X5979586Y-16264484D01*
X5979586Y-16264484D02*
X5960539Y-16264484D01*
X5960539Y-16264484D02*
X5941491Y-16254960D01*
X5941491Y-16254960D02*
X5931967Y-16245436D01*
X5931967Y-16245436D02*
X5922443Y-16226388D01*
X5922443Y-16226388D02*
X5912920Y-16188293D01*
X5912920Y-16188293D02*
X5912920Y-16140674D01*
X5912920Y-16140674D02*
X5922443Y-16102579D01*
X5922443Y-16102579D02*
X5931967Y-16083531D01*
X5931967Y-16083531D02*
X5941491Y-16074008D01*
X5941491Y-16074008D02*
X5960539Y-16064484D01*
X6112920Y-16264484D02*
X6112920Y-16131150D01*
X6112920Y-16150198D02*
X6122443Y-16140674D01*
X6122443Y-16140674D02*
X6141491Y-16131150D01*
X6141491Y-16131150D02*
X6170063Y-16131150D01*
X6170063Y-16131150D02*
X6189110Y-16140674D01*
X6189110Y-16140674D02*
X6198634Y-16159722D01*
X6198634Y-16159722D02*
X6198634Y-16264484D01*
X6198634Y-16159722D02*
X6208158Y-16140674D01*
X6208158Y-16140674D02*
X6227205Y-16131150D01*
X6227205Y-16131150D02*
X6255777Y-16131150D01*
X6255777Y-16131150D02*
X6274824Y-16140674D01*
X6274824Y-16140674D02*
X6284348Y-16159722D01*
X6284348Y-16159722D02*
X6284348Y-16264484D01*
X6379586Y-16264484D02*
X6379586Y-16131150D01*
X6379586Y-16150198D02*
X6389110Y-16140674D01*
X6389110Y-16140674D02*
X6408158Y-16131150D01*
X6408158Y-16131150D02*
X6436729Y-16131150D01*
X6436729Y-16131150D02*
X6455777Y-16140674D01*
X6455777Y-16140674D02*
X6465301Y-16159722D01*
X6465301Y-16159722D02*
X6465301Y-16264484D01*
X6465301Y-16159722D02*
X6474824Y-16140674D01*
X6474824Y-16140674D02*
X6493872Y-16131150D01*
X6493872Y-16131150D02*
X6522443Y-16131150D01*
X6522443Y-16131150D02*
X6541491Y-16140674D01*
X6541491Y-16140674D02*
X6551015Y-16159722D01*
X6551015Y-16159722D02*
X6551015Y-16264484D01*
X6941491Y-16054960D02*
X6770063Y-16312103D01*
X7198634Y-16064484D02*
X7217682Y-16064484D01*
X7217682Y-16064484D02*
X7236729Y-16074008D01*
X7236729Y-16074008D02*
X7246253Y-16083531D01*
X7246253Y-16083531D02*
X7255777Y-16102579D01*
X7255777Y-16102579D02*
X7265301Y-16140674D01*
X7265301Y-16140674D02*
X7265301Y-16188293D01*
X7265301Y-16188293D02*
X7255777Y-16226388D01*
X7255777Y-16226388D02*
X7246253Y-16245436D01*
X7246253Y-16245436D02*
X7236729Y-16254960D01*
X7236729Y-16254960D02*
X7217682Y-16264484D01*
X7217682Y-16264484D02*
X7198634Y-16264484D01*
X7198634Y-16264484D02*
X7179586Y-16254960D01*
X7179586Y-16254960D02*
X7170063Y-16245436D01*
X7170063Y-16245436D02*
X7160539Y-16226388D01*
X7160539Y-16226388D02*
X7151015Y-16188293D01*
X7151015Y-16188293D02*
X7151015Y-16140674D01*
X7151015Y-16140674D02*
X7160539Y-16102579D01*
X7160539Y-16102579D02*
X7170063Y-16083531D01*
X7170063Y-16083531D02*
X7179586Y-16074008D01*
X7179586Y-16074008D02*
X7198634Y-16064484D01*
X7351015Y-16245436D02*
X7360539Y-16254960D01*
X7360539Y-16254960D02*
X7351015Y-16264484D01*
X7351015Y-16264484D02*
X7341491Y-16254960D01*
X7341491Y-16254960D02*
X7351015Y-16245436D01*
X7351015Y-16245436D02*
X7351015Y-16264484D01*
X7484348Y-16064484D02*
X7503396Y-16064484D01*
X7503396Y-16064484D02*
X7522444Y-16074008D01*
X7522444Y-16074008D02*
X7531967Y-16083531D01*
X7531967Y-16083531D02*
X7541491Y-16102579D01*
X7541491Y-16102579D02*
X7551015Y-16140674D01*
X7551015Y-16140674D02*
X7551015Y-16188293D01*
X7551015Y-16188293D02*
X7541491Y-16226388D01*
X7541491Y-16226388D02*
X7531967Y-16245436D01*
X7531967Y-16245436D02*
X7522444Y-16254960D01*
X7522444Y-16254960D02*
X7503396Y-16264484D01*
X7503396Y-16264484D02*
X7484348Y-16264484D01*
X7484348Y-16264484D02*
X7465301Y-16254960D01*
X7465301Y-16254960D02*
X7455777Y-16245436D01*
X7455777Y-16245436D02*
X7446253Y-16226388D01*
X7446253Y-16226388D02*
X7436729Y-16188293D01*
X7436729Y-16188293D02*
X7436729Y-16140674D01*
X7436729Y-16140674D02*
X7446253Y-16102579D01*
X7446253Y-16102579D02*
X7455777Y-16083531D01*
X7455777Y-16083531D02*
X7465301Y-16074008D01*
X7465301Y-16074008D02*
X7484348Y-16064484D01*
X7617682Y-16064484D02*
X7741491Y-16064484D01*
X7741491Y-16064484D02*
X7674825Y-16140674D01*
X7674825Y-16140674D02*
X7703396Y-16140674D01*
X7703396Y-16140674D02*
X7722444Y-16150198D01*
X7722444Y-16150198D02*
X7731967Y-16159722D01*
X7731967Y-16159722D02*
X7741491Y-16178769D01*
X7741491Y-16178769D02*
X7741491Y-16226388D01*
X7741491Y-16226388D02*
X7731967Y-16245436D01*
X7731967Y-16245436D02*
X7722444Y-16254960D01*
X7722444Y-16254960D02*
X7703396Y-16264484D01*
X7703396Y-16264484D02*
X7646253Y-16264484D01*
X7646253Y-16264484D02*
X7627206Y-16254960D01*
X7627206Y-16254960D02*
X7617682Y-16245436D01*
X7836729Y-16264484D02*
X7874825Y-16264484D01*
X7874825Y-16264484D02*
X7893872Y-16254960D01*
X7893872Y-16254960D02*
X7903396Y-16245436D01*
X7903396Y-16245436D02*
X7922444Y-16216865D01*
X7922444Y-16216865D02*
X7931967Y-16178769D01*
X7931967Y-16178769D02*
X7931967Y-16102579D01*
X7931967Y-16102579D02*
X7922444Y-16083531D01*
X7922444Y-16083531D02*
X7912920Y-16074008D01*
X7912920Y-16074008D02*
X7893872Y-16064484D01*
X7893872Y-16064484D02*
X7855777Y-16064484D01*
X7855777Y-16064484D02*
X7836729Y-16074008D01*
X7836729Y-16074008D02*
X7827206Y-16083531D01*
X7827206Y-16083531D02*
X7817682Y-16102579D01*
X7817682Y-16102579D02*
X7817682Y-16150198D01*
X7817682Y-16150198D02*
X7827206Y-16169246D01*
X7827206Y-16169246D02*
X7836729Y-16178769D01*
X7836729Y-16178769D02*
X7855777Y-16188293D01*
X7855777Y-16188293D02*
X7893872Y-16188293D01*
X7893872Y-16188293D02*
X7912920Y-16178769D01*
X7912920Y-16178769D02*
X7922444Y-16169246D01*
X7922444Y-16169246D02*
X7931967Y-16150198D01*
X8103396Y-16131150D02*
X8103396Y-16264484D01*
X8055777Y-16054960D02*
X8008158Y-16197817D01*
X8008158Y-16197817D02*
X8131967Y-16197817D01*
X8198634Y-16064484D02*
X8198634Y-16102579D01*
X8274825Y-16064484D02*
X8274825Y-16102579D01*
X8570063Y-16340674D02*
X8560539Y-16331150D01*
X8560539Y-16331150D02*
X8541491Y-16302579D01*
X8541491Y-16302579D02*
X8531968Y-16283531D01*
X8531968Y-16283531D02*
X8522444Y-16254960D01*
X8522444Y-16254960D02*
X8512920Y-16207341D01*
X8512920Y-16207341D02*
X8512920Y-16169246D01*
X8512920Y-16169246D02*
X8522444Y-16121627D01*
X8522444Y-16121627D02*
X8531968Y-16093055D01*
X8531968Y-16093055D02*
X8541491Y-16074008D01*
X8541491Y-16074008D02*
X8560539Y-16045436D01*
X8560539Y-16045436D02*
X8570063Y-16035912D01*
X8684349Y-16064484D02*
X8703396Y-16064484D01*
X8703396Y-16064484D02*
X8722444Y-16074008D01*
X8722444Y-16074008D02*
X8731968Y-16083531D01*
X8731968Y-16083531D02*
X8741491Y-16102579D01*
X8741491Y-16102579D02*
X8751015Y-16140674D01*
X8751015Y-16140674D02*
X8751015Y-16188293D01*
X8751015Y-16188293D02*
X8741491Y-16226388D01*
X8741491Y-16226388D02*
X8731968Y-16245436D01*
X8731968Y-16245436D02*
X8722444Y-16254960D01*
X8722444Y-16254960D02*
X8703396Y-16264484D01*
X8703396Y-16264484D02*
X8684349Y-16264484D01*
X8684349Y-16264484D02*
X8665301Y-16254960D01*
X8665301Y-16254960D02*
X8655777Y-16245436D01*
X8655777Y-16245436D02*
X8646253Y-16226388D01*
X8646253Y-16226388D02*
X8636730Y-16188293D01*
X8636730Y-16188293D02*
X8636730Y-16140674D01*
X8636730Y-16140674D02*
X8646253Y-16102579D01*
X8646253Y-16102579D02*
X8655777Y-16083531D01*
X8655777Y-16083531D02*
X8665301Y-16074008D01*
X8665301Y-16074008D02*
X8684349Y-16064484D01*
X8989111Y-16264484D02*
X8989111Y-16064484D01*
X9074825Y-16264484D02*
X9074825Y-16159722D01*
X9074825Y-16159722D02*
X9065301Y-16140674D01*
X9065301Y-16140674D02*
X9046253Y-16131150D01*
X9046253Y-16131150D02*
X9017682Y-16131150D01*
X9017682Y-16131150D02*
X8998634Y-16140674D01*
X8998634Y-16140674D02*
X8989111Y-16150198D01*
X9198634Y-16264484D02*
X9179587Y-16254960D01*
X9179587Y-16254960D02*
X9170063Y-16245436D01*
X9170063Y-16245436D02*
X9160539Y-16226388D01*
X9160539Y-16226388D02*
X9160539Y-16169246D01*
X9160539Y-16169246D02*
X9170063Y-16150198D01*
X9170063Y-16150198D02*
X9179587Y-16140674D01*
X9179587Y-16140674D02*
X9198634Y-16131150D01*
X9198634Y-16131150D02*
X9227206Y-16131150D01*
X9227206Y-16131150D02*
X9246253Y-16140674D01*
X9246253Y-16140674D02*
X9255777Y-16150198D01*
X9255777Y-16150198D02*
X9265301Y-16169246D01*
X9265301Y-16169246D02*
X9265301Y-16226388D01*
X9265301Y-16226388D02*
X9255777Y-16245436D01*
X9255777Y-16245436D02*
X9246253Y-16254960D01*
X9246253Y-16254960D02*
X9227206Y-16264484D01*
X9227206Y-16264484D02*
X9198634Y-16264484D01*
X9379587Y-16264484D02*
X9360539Y-16254960D01*
X9360539Y-16254960D02*
X9351015Y-16235912D01*
X9351015Y-16235912D02*
X9351015Y-16064484D01*
X9531968Y-16254960D02*
X9512920Y-16264484D01*
X9512920Y-16264484D02*
X9474825Y-16264484D01*
X9474825Y-16264484D02*
X9455777Y-16254960D01*
X9455777Y-16254960D02*
X9446253Y-16235912D01*
X9446253Y-16235912D02*
X9446253Y-16159722D01*
X9446253Y-16159722D02*
X9455777Y-16140674D01*
X9455777Y-16140674D02*
X9474825Y-16131150D01*
X9474825Y-16131150D02*
X9512920Y-16131150D01*
X9512920Y-16131150D02*
X9531968Y-16140674D01*
X9531968Y-16140674D02*
X9541492Y-16159722D01*
X9541492Y-16159722D02*
X9541492Y-16178769D01*
X9541492Y-16178769D02*
X9446253Y-16197817D01*
X9617682Y-16254960D02*
X9636730Y-16264484D01*
X9636730Y-16264484D02*
X9674825Y-16264484D01*
X9674825Y-16264484D02*
X9693873Y-16254960D01*
X9693873Y-16254960D02*
X9703396Y-16235912D01*
X9703396Y-16235912D02*
X9703396Y-16226388D01*
X9703396Y-16226388D02*
X9693873Y-16207341D01*
X9693873Y-16207341D02*
X9674825Y-16197817D01*
X9674825Y-16197817D02*
X9646253Y-16197817D01*
X9646253Y-16197817D02*
X9627206Y-16188293D01*
X9627206Y-16188293D02*
X9617682Y-16169246D01*
X9617682Y-16169246D02*
X9617682Y-16159722D01*
X9617682Y-16159722D02*
X9627206Y-16140674D01*
X9627206Y-16140674D02*
X9646253Y-16131150D01*
X9646253Y-16131150D02*
X9674825Y-16131150D01*
X9674825Y-16131150D02*
X9693873Y-16140674D01*
X9941492Y-16188293D02*
X10093873Y-16188293D01*
X10017682Y-16264484D02*
X10017682Y-16112103D01*
X10322444Y-16064484D02*
X10446254Y-16064484D01*
X10446254Y-16064484D02*
X10379587Y-16140674D01*
X10379587Y-16140674D02*
X10408158Y-16140674D01*
X10408158Y-16140674D02*
X10427206Y-16150198D01*
X10427206Y-16150198D02*
X10436730Y-16159722D01*
X10436730Y-16159722D02*
X10446254Y-16178769D01*
X10446254Y-16178769D02*
X10446254Y-16226388D01*
X10446254Y-16226388D02*
X10436730Y-16245436D01*
X10436730Y-16245436D02*
X10427206Y-16254960D01*
X10427206Y-16254960D02*
X10408158Y-16264484D01*
X10408158Y-16264484D02*
X10351015Y-16264484D01*
X10351015Y-16264484D02*
X10331968Y-16254960D01*
X10331968Y-16254960D02*
X10322444Y-16245436D01*
X10674825Y-16254960D02*
X10693873Y-16264484D01*
X10693873Y-16264484D02*
X10731968Y-16264484D01*
X10731968Y-16264484D02*
X10751016Y-16254960D01*
X10751016Y-16254960D02*
X10760539Y-16235912D01*
X10760539Y-16235912D02*
X10760539Y-16226388D01*
X10760539Y-16226388D02*
X10751016Y-16207341D01*
X10751016Y-16207341D02*
X10731968Y-16197817D01*
X10731968Y-16197817D02*
X10703396Y-16197817D01*
X10703396Y-16197817D02*
X10684349Y-16188293D01*
X10684349Y-16188293D02*
X10674825Y-16169246D01*
X10674825Y-16169246D02*
X10674825Y-16159722D01*
X10674825Y-16159722D02*
X10684349Y-16140674D01*
X10684349Y-16140674D02*
X10703396Y-16131150D01*
X10703396Y-16131150D02*
X10731968Y-16131150D01*
X10731968Y-16131150D02*
X10751016Y-16140674D01*
X10874825Y-16264484D02*
X10855777Y-16254960D01*
X10855777Y-16254960D02*
X10846254Y-16235912D01*
X10846254Y-16235912D02*
X10846254Y-16064484D01*
X10979587Y-16264484D02*
X10960539Y-16254960D01*
X10960539Y-16254960D02*
X10951016Y-16245436D01*
X10951016Y-16245436D02*
X10941492Y-16226388D01*
X10941492Y-16226388D02*
X10941492Y-16169246D01*
X10941492Y-16169246D02*
X10951016Y-16150198D01*
X10951016Y-16150198D02*
X10960539Y-16140674D01*
X10960539Y-16140674D02*
X10979587Y-16131150D01*
X10979587Y-16131150D02*
X11008158Y-16131150D01*
X11008158Y-16131150D02*
X11027206Y-16140674D01*
X11027206Y-16140674D02*
X11036730Y-16150198D01*
X11036730Y-16150198D02*
X11046254Y-16169246D01*
X11046254Y-16169246D02*
X11046254Y-16226388D01*
X11046254Y-16226388D02*
X11036730Y-16245436D01*
X11036730Y-16245436D02*
X11027206Y-16254960D01*
X11027206Y-16254960D02*
X11008158Y-16264484D01*
X11008158Y-16264484D02*
X10979587Y-16264484D01*
X11103397Y-16131150D02*
X11179587Y-16131150D01*
X11131968Y-16064484D02*
X11131968Y-16235912D01*
X11131968Y-16235912D02*
X11141492Y-16254960D01*
X11141492Y-16254960D02*
X11160539Y-16264484D01*
X11160539Y-16264484D02*
X11179587Y-16264484D01*
X11236730Y-16254960D02*
X11255777Y-16264484D01*
X11255777Y-16264484D02*
X11293873Y-16264484D01*
X11293873Y-16264484D02*
X11312920Y-16254960D01*
X11312920Y-16254960D02*
X11322444Y-16235912D01*
X11322444Y-16235912D02*
X11322444Y-16226388D01*
X11322444Y-16226388D02*
X11312920Y-16207341D01*
X11312920Y-16207341D02*
X11293873Y-16197817D01*
X11293873Y-16197817D02*
X11265301Y-16197817D01*
X11265301Y-16197817D02*
X11246254Y-16188293D01*
X11246254Y-16188293D02*
X11236730Y-16169246D01*
X11236730Y-16169246D02*
X11236730Y-16159722D01*
X11236730Y-16159722D02*
X11246254Y-16140674D01*
X11246254Y-16140674D02*
X11265301Y-16131150D01*
X11265301Y-16131150D02*
X11293873Y-16131150D01*
X11293873Y-16131150D02*
X11312920Y-16140674D01*
X11389111Y-16340674D02*
X11398635Y-16331150D01*
X11398635Y-16331150D02*
X11417682Y-16302579D01*
X11417682Y-16302579D02*
X11427206Y-16283531D01*
X11427206Y-16283531D02*
X11436730Y-16254960D01*
X11436730Y-16254960D02*
X11446254Y-16207341D01*
X11446254Y-16207341D02*
X11446254Y-16169246D01*
X11446254Y-16169246D02*
X11436730Y-16121627D01*
X11436730Y-16121627D02*
X11427206Y-16093055D01*
X11427206Y-16093055D02*
X11417682Y-16074008D01*
X11417682Y-16074008D02*
X11398635Y-16045436D01*
X11398635Y-16045436D02*
X11389111Y-16035912D01*
D12*
X4980063Y-16473063D02*
X4980063Y-16400937D01*
X4907937Y-16400937D01*
X4907937Y-16473063D01*
X4980063Y-16473063D01*
D11*
X5360539Y-16528484D02*
X5246253Y-16528484D01*
X5303396Y-16528484D02*
X5303396Y-16328484D01*
X5303396Y-16328484D02*
X5284348Y-16357055D01*
X5284348Y-16357055D02*
X5265301Y-16376103D01*
X5265301Y-16376103D02*
X5246253Y-16385627D01*
X5446253Y-16509436D02*
X5455777Y-16518960D01*
X5455777Y-16518960D02*
X5446253Y-16528484D01*
X5446253Y-16528484D02*
X5436729Y-16518960D01*
X5436729Y-16518960D02*
X5446253Y-16509436D01*
X5446253Y-16509436D02*
X5446253Y-16528484D01*
X5579586Y-16328484D02*
X5598634Y-16328484D01*
X5598634Y-16328484D02*
X5617682Y-16338008D01*
X5617682Y-16338008D02*
X5627205Y-16347531D01*
X5627205Y-16347531D02*
X5636729Y-16366579D01*
X5636729Y-16366579D02*
X5646253Y-16404674D01*
X5646253Y-16404674D02*
X5646253Y-16452293D01*
X5646253Y-16452293D02*
X5636729Y-16490388D01*
X5636729Y-16490388D02*
X5627205Y-16509436D01*
X5627205Y-16509436D02*
X5617682Y-16518960D01*
X5617682Y-16518960D02*
X5598634Y-16528484D01*
X5598634Y-16528484D02*
X5579586Y-16528484D01*
X5579586Y-16528484D02*
X5560539Y-16518960D01*
X5560539Y-16518960D02*
X5551015Y-16509436D01*
X5551015Y-16509436D02*
X5541491Y-16490388D01*
X5541491Y-16490388D02*
X5531967Y-16452293D01*
X5531967Y-16452293D02*
X5531967Y-16404674D01*
X5531967Y-16404674D02*
X5541491Y-16366579D01*
X5541491Y-16366579D02*
X5551015Y-16347531D01*
X5551015Y-16347531D02*
X5560539Y-16338008D01*
X5560539Y-16338008D02*
X5579586Y-16328484D01*
X5722443Y-16347531D02*
X5731967Y-16338008D01*
X5731967Y-16338008D02*
X5751015Y-16328484D01*
X5751015Y-16328484D02*
X5798634Y-16328484D01*
X5798634Y-16328484D02*
X5817682Y-16338008D01*
X5817682Y-16338008D02*
X5827205Y-16347531D01*
X5827205Y-16347531D02*
X5836729Y-16366579D01*
X5836729Y-16366579D02*
X5836729Y-16385627D01*
X5836729Y-16385627D02*
X5827205Y-16414198D01*
X5827205Y-16414198D02*
X5712920Y-16528484D01*
X5712920Y-16528484D02*
X5836729Y-16528484D01*
X5960539Y-16328484D02*
X5979586Y-16328484D01*
X5979586Y-16328484D02*
X5998634Y-16338008D01*
X5998634Y-16338008D02*
X6008158Y-16347531D01*
X6008158Y-16347531D02*
X6017682Y-16366579D01*
X6017682Y-16366579D02*
X6027205Y-16404674D01*
X6027205Y-16404674D02*
X6027205Y-16452293D01*
X6027205Y-16452293D02*
X6017682Y-16490388D01*
X6017682Y-16490388D02*
X6008158Y-16509436D01*
X6008158Y-16509436D02*
X5998634Y-16518960D01*
X5998634Y-16518960D02*
X5979586Y-16528484D01*
X5979586Y-16528484D02*
X5960539Y-16528484D01*
X5960539Y-16528484D02*
X5941491Y-16518960D01*
X5941491Y-16518960D02*
X5931967Y-16509436D01*
X5931967Y-16509436D02*
X5922443Y-16490388D01*
X5922443Y-16490388D02*
X5912920Y-16452293D01*
X5912920Y-16452293D02*
X5912920Y-16404674D01*
X5912920Y-16404674D02*
X5922443Y-16366579D01*
X5922443Y-16366579D02*
X5931967Y-16347531D01*
X5931967Y-16347531D02*
X5941491Y-16338008D01*
X5941491Y-16338008D02*
X5960539Y-16328484D01*
X6112920Y-16528484D02*
X6112920Y-16395150D01*
X6112920Y-16414198D02*
X6122443Y-16404674D01*
X6122443Y-16404674D02*
X6141491Y-16395150D01*
X6141491Y-16395150D02*
X6170063Y-16395150D01*
X6170063Y-16395150D02*
X6189110Y-16404674D01*
X6189110Y-16404674D02*
X6198634Y-16423722D01*
X6198634Y-16423722D02*
X6198634Y-16528484D01*
X6198634Y-16423722D02*
X6208158Y-16404674D01*
X6208158Y-16404674D02*
X6227205Y-16395150D01*
X6227205Y-16395150D02*
X6255777Y-16395150D01*
X6255777Y-16395150D02*
X6274824Y-16404674D01*
X6274824Y-16404674D02*
X6284348Y-16423722D01*
X6284348Y-16423722D02*
X6284348Y-16528484D01*
X6379586Y-16528484D02*
X6379586Y-16395150D01*
X6379586Y-16414198D02*
X6389110Y-16404674D01*
X6389110Y-16404674D02*
X6408158Y-16395150D01*
X6408158Y-16395150D02*
X6436729Y-16395150D01*
X6436729Y-16395150D02*
X6455777Y-16404674D01*
X6455777Y-16404674D02*
X6465301Y-16423722D01*
X6465301Y-16423722D02*
X6465301Y-16528484D01*
X6465301Y-16423722D02*
X6474824Y-16404674D01*
X6474824Y-16404674D02*
X6493872Y-16395150D01*
X6493872Y-16395150D02*
X6522443Y-16395150D01*
X6522443Y-16395150D02*
X6541491Y-16404674D01*
X6541491Y-16404674D02*
X6551015Y-16423722D01*
X6551015Y-16423722D02*
X6551015Y-16528484D01*
X6941491Y-16318960D02*
X6770063Y-16576103D01*
X7198634Y-16328484D02*
X7217682Y-16328484D01*
X7217682Y-16328484D02*
X7236729Y-16338008D01*
X7236729Y-16338008D02*
X7246253Y-16347531D01*
X7246253Y-16347531D02*
X7255777Y-16366579D01*
X7255777Y-16366579D02*
X7265301Y-16404674D01*
X7265301Y-16404674D02*
X7265301Y-16452293D01*
X7265301Y-16452293D02*
X7255777Y-16490388D01*
X7255777Y-16490388D02*
X7246253Y-16509436D01*
X7246253Y-16509436D02*
X7236729Y-16518960D01*
X7236729Y-16518960D02*
X7217682Y-16528484D01*
X7217682Y-16528484D02*
X7198634Y-16528484D01*
X7198634Y-16528484D02*
X7179586Y-16518960D01*
X7179586Y-16518960D02*
X7170063Y-16509436D01*
X7170063Y-16509436D02*
X7160539Y-16490388D01*
X7160539Y-16490388D02*
X7151015Y-16452293D01*
X7151015Y-16452293D02*
X7151015Y-16404674D01*
X7151015Y-16404674D02*
X7160539Y-16366579D01*
X7160539Y-16366579D02*
X7170063Y-16347531D01*
X7170063Y-16347531D02*
X7179586Y-16338008D01*
X7179586Y-16338008D02*
X7198634Y-16328484D01*
X7351015Y-16509436D02*
X7360539Y-16518960D01*
X7360539Y-16518960D02*
X7351015Y-16528484D01*
X7351015Y-16528484D02*
X7341491Y-16518960D01*
X7341491Y-16518960D02*
X7351015Y-16509436D01*
X7351015Y-16509436D02*
X7351015Y-16528484D01*
X7484348Y-16328484D02*
X7503396Y-16328484D01*
X7503396Y-16328484D02*
X7522444Y-16338008D01*
X7522444Y-16338008D02*
X7531967Y-16347531D01*
X7531967Y-16347531D02*
X7541491Y-16366579D01*
X7541491Y-16366579D02*
X7551015Y-16404674D01*
X7551015Y-16404674D02*
X7551015Y-16452293D01*
X7551015Y-16452293D02*
X7541491Y-16490388D01*
X7541491Y-16490388D02*
X7531967Y-16509436D01*
X7531967Y-16509436D02*
X7522444Y-16518960D01*
X7522444Y-16518960D02*
X7503396Y-16528484D01*
X7503396Y-16528484D02*
X7484348Y-16528484D01*
X7484348Y-16528484D02*
X7465301Y-16518960D01*
X7465301Y-16518960D02*
X7455777Y-16509436D01*
X7455777Y-16509436D02*
X7446253Y-16490388D01*
X7446253Y-16490388D02*
X7436729Y-16452293D01*
X7436729Y-16452293D02*
X7436729Y-16404674D01*
X7436729Y-16404674D02*
X7446253Y-16366579D01*
X7446253Y-16366579D02*
X7455777Y-16347531D01*
X7455777Y-16347531D02*
X7465301Y-16338008D01*
X7465301Y-16338008D02*
X7484348Y-16328484D01*
X7722444Y-16395150D02*
X7722444Y-16528484D01*
X7674825Y-16318960D02*
X7627206Y-16461817D01*
X7627206Y-16461817D02*
X7751015Y-16461817D01*
X7865301Y-16328484D02*
X7884348Y-16328484D01*
X7884348Y-16328484D02*
X7903396Y-16338008D01*
X7903396Y-16338008D02*
X7912920Y-16347531D01*
X7912920Y-16347531D02*
X7922444Y-16366579D01*
X7922444Y-16366579D02*
X7931967Y-16404674D01*
X7931967Y-16404674D02*
X7931967Y-16452293D01*
X7931967Y-16452293D02*
X7922444Y-16490388D01*
X7922444Y-16490388D02*
X7912920Y-16509436D01*
X7912920Y-16509436D02*
X7903396Y-16518960D01*
X7903396Y-16518960D02*
X7884348Y-16528484D01*
X7884348Y-16528484D02*
X7865301Y-16528484D01*
X7865301Y-16528484D02*
X7846253Y-16518960D01*
X7846253Y-16518960D02*
X7836729Y-16509436D01*
X7836729Y-16509436D02*
X7827206Y-16490388D01*
X7827206Y-16490388D02*
X7817682Y-16452293D01*
X7817682Y-16452293D02*
X7817682Y-16404674D01*
X7817682Y-16404674D02*
X7827206Y-16366579D01*
X7827206Y-16366579D02*
X7836729Y-16347531D01*
X7836729Y-16347531D02*
X7846253Y-16338008D01*
X7846253Y-16338008D02*
X7865301Y-16328484D01*
X8008158Y-16347531D02*
X8017682Y-16338008D01*
X8017682Y-16338008D02*
X8036729Y-16328484D01*
X8036729Y-16328484D02*
X8084348Y-16328484D01*
X8084348Y-16328484D02*
X8103396Y-16338008D01*
X8103396Y-16338008D02*
X8112920Y-16347531D01*
X8112920Y-16347531D02*
X8122444Y-16366579D01*
X8122444Y-16366579D02*
X8122444Y-16385627D01*
X8122444Y-16385627D02*
X8112920Y-16414198D01*
X8112920Y-16414198D02*
X7998634Y-16528484D01*
X7998634Y-16528484D02*
X8122444Y-16528484D01*
X8198634Y-16328484D02*
X8198634Y-16366579D01*
X8274825Y-16328484D02*
X8274825Y-16366579D01*
X8570063Y-16604674D02*
X8560539Y-16595150D01*
X8560539Y-16595150D02*
X8541491Y-16566579D01*
X8541491Y-16566579D02*
X8531968Y-16547531D01*
X8531968Y-16547531D02*
X8522444Y-16518960D01*
X8522444Y-16518960D02*
X8512920Y-16471341D01*
X8512920Y-16471341D02*
X8512920Y-16433246D01*
X8512920Y-16433246D02*
X8522444Y-16385627D01*
X8522444Y-16385627D02*
X8531968Y-16357055D01*
X8531968Y-16357055D02*
X8541491Y-16338008D01*
X8541491Y-16338008D02*
X8560539Y-16309436D01*
X8560539Y-16309436D02*
X8570063Y-16299912D01*
X8731968Y-16395150D02*
X8731968Y-16528484D01*
X8684349Y-16318960D02*
X8636730Y-16461817D01*
X8636730Y-16461817D02*
X8760539Y-16461817D01*
X8817682Y-16328484D02*
X8941491Y-16328484D01*
X8941491Y-16328484D02*
X8874825Y-16404674D01*
X8874825Y-16404674D02*
X8903396Y-16404674D01*
X8903396Y-16404674D02*
X8922444Y-16414198D01*
X8922444Y-16414198D02*
X8931968Y-16423722D01*
X8931968Y-16423722D02*
X8941491Y-16442769D01*
X8941491Y-16442769D02*
X8941491Y-16490388D01*
X8941491Y-16490388D02*
X8931968Y-16509436D01*
X8931968Y-16509436D02*
X8922444Y-16518960D01*
X8922444Y-16518960D02*
X8903396Y-16528484D01*
X8903396Y-16528484D02*
X8846253Y-16528484D01*
X8846253Y-16528484D02*
X8827206Y-16518960D01*
X8827206Y-16518960D02*
X8817682Y-16509436D01*
X9179587Y-16528484D02*
X9179587Y-16328484D01*
X9265301Y-16528484D02*
X9265301Y-16423722D01*
X9265301Y-16423722D02*
X9255777Y-16404674D01*
X9255777Y-16404674D02*
X9236730Y-16395150D01*
X9236730Y-16395150D02*
X9208158Y-16395150D01*
X9208158Y-16395150D02*
X9189111Y-16404674D01*
X9189111Y-16404674D02*
X9179587Y-16414198D01*
X9389111Y-16528484D02*
X9370063Y-16518960D01*
X9370063Y-16518960D02*
X9360539Y-16509436D01*
X9360539Y-16509436D02*
X9351015Y-16490388D01*
X9351015Y-16490388D02*
X9351015Y-16433246D01*
X9351015Y-16433246D02*
X9360539Y-16414198D01*
X9360539Y-16414198D02*
X9370063Y-16404674D01*
X9370063Y-16404674D02*
X9389111Y-16395150D01*
X9389111Y-16395150D02*
X9417682Y-16395150D01*
X9417682Y-16395150D02*
X9436730Y-16404674D01*
X9436730Y-16404674D02*
X9446253Y-16414198D01*
X9446253Y-16414198D02*
X9455777Y-16433246D01*
X9455777Y-16433246D02*
X9455777Y-16490388D01*
X9455777Y-16490388D02*
X9446253Y-16509436D01*
X9446253Y-16509436D02*
X9436730Y-16518960D01*
X9436730Y-16518960D02*
X9417682Y-16528484D01*
X9417682Y-16528484D02*
X9389111Y-16528484D01*
X9570063Y-16528484D02*
X9551015Y-16518960D01*
X9551015Y-16518960D02*
X9541492Y-16499912D01*
X9541492Y-16499912D02*
X9541492Y-16328484D01*
X9722444Y-16518960D02*
X9703396Y-16528484D01*
X9703396Y-16528484D02*
X9665301Y-16528484D01*
X9665301Y-16528484D02*
X9646253Y-16518960D01*
X9646253Y-16518960D02*
X9636730Y-16499912D01*
X9636730Y-16499912D02*
X9636730Y-16423722D01*
X9636730Y-16423722D02*
X9646253Y-16404674D01*
X9646253Y-16404674D02*
X9665301Y-16395150D01*
X9665301Y-16395150D02*
X9703396Y-16395150D01*
X9703396Y-16395150D02*
X9722444Y-16404674D01*
X9722444Y-16404674D02*
X9731968Y-16423722D01*
X9731968Y-16423722D02*
X9731968Y-16442769D01*
X9731968Y-16442769D02*
X9636730Y-16461817D01*
X9808158Y-16518960D02*
X9827206Y-16528484D01*
X9827206Y-16528484D02*
X9865301Y-16528484D01*
X9865301Y-16528484D02*
X9884349Y-16518960D01*
X9884349Y-16518960D02*
X9893873Y-16499912D01*
X9893873Y-16499912D02*
X9893873Y-16490388D01*
X9893873Y-16490388D02*
X9884349Y-16471341D01*
X9884349Y-16471341D02*
X9865301Y-16461817D01*
X9865301Y-16461817D02*
X9836730Y-16461817D01*
X9836730Y-16461817D02*
X9817682Y-16452293D01*
X9817682Y-16452293D02*
X9808158Y-16433246D01*
X9808158Y-16433246D02*
X9808158Y-16423722D01*
X9808158Y-16423722D02*
X9817682Y-16404674D01*
X9817682Y-16404674D02*
X9836730Y-16395150D01*
X9836730Y-16395150D02*
X9865301Y-16395150D01*
X9865301Y-16395150D02*
X9884349Y-16404674D01*
X9960539Y-16604674D02*
X9970063Y-16595150D01*
X9970063Y-16595150D02*
X9989111Y-16566579D01*
X9989111Y-16566579D02*
X9998634Y-16547531D01*
X9998634Y-16547531D02*
X10008158Y-16518960D01*
X10008158Y-16518960D02*
X10017682Y-16471341D01*
X10017682Y-16471341D02*
X10017682Y-16433246D01*
X10017682Y-16433246D02*
X10008158Y-16385627D01*
X10008158Y-16385627D02*
X9998634Y-16357055D01*
X9998634Y-16357055D02*
X9989111Y-16338008D01*
X9989111Y-16338008D02*
X9970063Y-16309436D01*
X9970063Y-16309436D02*
X9960539Y-16299912D01*
D13*
X4940000Y-16756000D02*
X4995000Y-16701000D01*
X4940000Y-16646000D01*
X4885000Y-16701000D01*
X4940000Y-16756000D01*
D11*
X5360539Y-16792484D02*
X5246253Y-16792484D01*
X5303396Y-16792484D02*
X5303396Y-16592484D01*
X5303396Y-16592484D02*
X5284348Y-16621055D01*
X5284348Y-16621055D02*
X5265301Y-16640103D01*
X5265301Y-16640103D02*
X5246253Y-16649627D01*
X5446253Y-16773436D02*
X5455777Y-16782960D01*
X5455777Y-16782960D02*
X5446253Y-16792484D01*
X5446253Y-16792484D02*
X5436729Y-16782960D01*
X5436729Y-16782960D02*
X5446253Y-16773436D01*
X5446253Y-16773436D02*
X5446253Y-16792484D01*
X5646253Y-16792484D02*
X5531967Y-16792484D01*
X5589110Y-16792484D02*
X5589110Y-16592484D01*
X5589110Y-16592484D02*
X5570063Y-16621055D01*
X5570063Y-16621055D02*
X5551015Y-16640103D01*
X5551015Y-16640103D02*
X5531967Y-16649627D01*
X5770062Y-16592484D02*
X5789110Y-16592484D01*
X5789110Y-16592484D02*
X5808158Y-16602008D01*
X5808158Y-16602008D02*
X5817682Y-16611531D01*
X5817682Y-16611531D02*
X5827205Y-16630579D01*
X5827205Y-16630579D02*
X5836729Y-16668674D01*
X5836729Y-16668674D02*
X5836729Y-16716293D01*
X5836729Y-16716293D02*
X5827205Y-16754388D01*
X5827205Y-16754388D02*
X5817682Y-16773436D01*
X5817682Y-16773436D02*
X5808158Y-16782960D01*
X5808158Y-16782960D02*
X5789110Y-16792484D01*
X5789110Y-16792484D02*
X5770062Y-16792484D01*
X5770062Y-16792484D02*
X5751015Y-16782960D01*
X5751015Y-16782960D02*
X5741491Y-16773436D01*
X5741491Y-16773436D02*
X5731967Y-16754388D01*
X5731967Y-16754388D02*
X5722443Y-16716293D01*
X5722443Y-16716293D02*
X5722443Y-16668674D01*
X5722443Y-16668674D02*
X5731967Y-16630579D01*
X5731967Y-16630579D02*
X5741491Y-16611531D01*
X5741491Y-16611531D02*
X5751015Y-16602008D01*
X5751015Y-16602008D02*
X5770062Y-16592484D01*
X5960539Y-16592484D02*
X5979586Y-16592484D01*
X5979586Y-16592484D02*
X5998634Y-16602008D01*
X5998634Y-16602008D02*
X6008158Y-16611531D01*
X6008158Y-16611531D02*
X6017682Y-16630579D01*
X6017682Y-16630579D02*
X6027205Y-16668674D01*
X6027205Y-16668674D02*
X6027205Y-16716293D01*
X6027205Y-16716293D02*
X6017682Y-16754388D01*
X6017682Y-16754388D02*
X6008158Y-16773436D01*
X6008158Y-16773436D02*
X5998634Y-16782960D01*
X5998634Y-16782960D02*
X5979586Y-16792484D01*
X5979586Y-16792484D02*
X5960539Y-16792484D01*
X5960539Y-16792484D02*
X5941491Y-16782960D01*
X5941491Y-16782960D02*
X5931967Y-16773436D01*
X5931967Y-16773436D02*
X5922443Y-16754388D01*
X5922443Y-16754388D02*
X5912920Y-16716293D01*
X5912920Y-16716293D02*
X5912920Y-16668674D01*
X5912920Y-16668674D02*
X5922443Y-16630579D01*
X5922443Y-16630579D02*
X5931967Y-16611531D01*
X5931967Y-16611531D02*
X5941491Y-16602008D01*
X5941491Y-16602008D02*
X5960539Y-16592484D01*
X6112920Y-16792484D02*
X6112920Y-16659150D01*
X6112920Y-16678198D02*
X6122443Y-16668674D01*
X6122443Y-16668674D02*
X6141491Y-16659150D01*
X6141491Y-16659150D02*
X6170063Y-16659150D01*
X6170063Y-16659150D02*
X6189110Y-16668674D01*
X6189110Y-16668674D02*
X6198634Y-16687722D01*
X6198634Y-16687722D02*
X6198634Y-16792484D01*
X6198634Y-16687722D02*
X6208158Y-16668674D01*
X6208158Y-16668674D02*
X6227205Y-16659150D01*
X6227205Y-16659150D02*
X6255777Y-16659150D01*
X6255777Y-16659150D02*
X6274824Y-16668674D01*
X6274824Y-16668674D02*
X6284348Y-16687722D01*
X6284348Y-16687722D02*
X6284348Y-16792484D01*
X6379586Y-16792484D02*
X6379586Y-16659150D01*
X6379586Y-16678198D02*
X6389110Y-16668674D01*
X6389110Y-16668674D02*
X6408158Y-16659150D01*
X6408158Y-16659150D02*
X6436729Y-16659150D01*
X6436729Y-16659150D02*
X6455777Y-16668674D01*
X6455777Y-16668674D02*
X6465301Y-16687722D01*
X6465301Y-16687722D02*
X6465301Y-16792484D01*
X6465301Y-16687722D02*
X6474824Y-16668674D01*
X6474824Y-16668674D02*
X6493872Y-16659150D01*
X6493872Y-16659150D02*
X6522443Y-16659150D01*
X6522443Y-16659150D02*
X6541491Y-16668674D01*
X6541491Y-16668674D02*
X6551015Y-16687722D01*
X6551015Y-16687722D02*
X6551015Y-16792484D01*
X6941491Y-16582960D02*
X6770063Y-16840103D01*
X7198634Y-16592484D02*
X7217682Y-16592484D01*
X7217682Y-16592484D02*
X7236729Y-16602008D01*
X7236729Y-16602008D02*
X7246253Y-16611531D01*
X7246253Y-16611531D02*
X7255777Y-16630579D01*
X7255777Y-16630579D02*
X7265301Y-16668674D01*
X7265301Y-16668674D02*
X7265301Y-16716293D01*
X7265301Y-16716293D02*
X7255777Y-16754388D01*
X7255777Y-16754388D02*
X7246253Y-16773436D01*
X7246253Y-16773436D02*
X7236729Y-16782960D01*
X7236729Y-16782960D02*
X7217682Y-16792484D01*
X7217682Y-16792484D02*
X7198634Y-16792484D01*
X7198634Y-16792484D02*
X7179586Y-16782960D01*
X7179586Y-16782960D02*
X7170063Y-16773436D01*
X7170063Y-16773436D02*
X7160539Y-16754388D01*
X7160539Y-16754388D02*
X7151015Y-16716293D01*
X7151015Y-16716293D02*
X7151015Y-16668674D01*
X7151015Y-16668674D02*
X7160539Y-16630579D01*
X7160539Y-16630579D02*
X7170063Y-16611531D01*
X7170063Y-16611531D02*
X7179586Y-16602008D01*
X7179586Y-16602008D02*
X7198634Y-16592484D01*
X7351015Y-16773436D02*
X7360539Y-16782960D01*
X7360539Y-16782960D02*
X7351015Y-16792484D01*
X7351015Y-16792484D02*
X7341491Y-16782960D01*
X7341491Y-16782960D02*
X7351015Y-16773436D01*
X7351015Y-16773436D02*
X7351015Y-16792484D01*
X7484348Y-16592484D02*
X7503396Y-16592484D01*
X7503396Y-16592484D02*
X7522444Y-16602008D01*
X7522444Y-16602008D02*
X7531967Y-16611531D01*
X7531967Y-16611531D02*
X7541491Y-16630579D01*
X7541491Y-16630579D02*
X7551015Y-16668674D01*
X7551015Y-16668674D02*
X7551015Y-16716293D01*
X7551015Y-16716293D02*
X7541491Y-16754388D01*
X7541491Y-16754388D02*
X7531967Y-16773436D01*
X7531967Y-16773436D02*
X7522444Y-16782960D01*
X7522444Y-16782960D02*
X7503396Y-16792484D01*
X7503396Y-16792484D02*
X7484348Y-16792484D01*
X7484348Y-16792484D02*
X7465301Y-16782960D01*
X7465301Y-16782960D02*
X7455777Y-16773436D01*
X7455777Y-16773436D02*
X7446253Y-16754388D01*
X7446253Y-16754388D02*
X7436729Y-16716293D01*
X7436729Y-16716293D02*
X7436729Y-16668674D01*
X7436729Y-16668674D02*
X7446253Y-16630579D01*
X7446253Y-16630579D02*
X7455777Y-16611531D01*
X7455777Y-16611531D02*
X7465301Y-16602008D01*
X7465301Y-16602008D02*
X7484348Y-16592484D01*
X7722444Y-16659150D02*
X7722444Y-16792484D01*
X7674825Y-16582960D02*
X7627206Y-16725817D01*
X7627206Y-16725817D02*
X7751015Y-16725817D01*
X7808158Y-16592484D02*
X7931967Y-16592484D01*
X7931967Y-16592484D02*
X7865301Y-16668674D01*
X7865301Y-16668674D02*
X7893872Y-16668674D01*
X7893872Y-16668674D02*
X7912920Y-16678198D01*
X7912920Y-16678198D02*
X7922444Y-16687722D01*
X7922444Y-16687722D02*
X7931967Y-16706769D01*
X7931967Y-16706769D02*
X7931967Y-16754388D01*
X7931967Y-16754388D02*
X7922444Y-16773436D01*
X7922444Y-16773436D02*
X7912920Y-16782960D01*
X7912920Y-16782960D02*
X7893872Y-16792484D01*
X7893872Y-16792484D02*
X7836729Y-16792484D01*
X7836729Y-16792484D02*
X7817682Y-16782960D01*
X7817682Y-16782960D02*
X7808158Y-16773436D01*
X7998634Y-16592484D02*
X8122444Y-16592484D01*
X8122444Y-16592484D02*
X8055777Y-16668674D01*
X8055777Y-16668674D02*
X8084348Y-16668674D01*
X8084348Y-16668674D02*
X8103396Y-16678198D01*
X8103396Y-16678198D02*
X8112920Y-16687722D01*
X8112920Y-16687722D02*
X8122444Y-16706769D01*
X8122444Y-16706769D02*
X8122444Y-16754388D01*
X8122444Y-16754388D02*
X8112920Y-16773436D01*
X8112920Y-16773436D02*
X8103396Y-16782960D01*
X8103396Y-16782960D02*
X8084348Y-16792484D01*
X8084348Y-16792484D02*
X8027206Y-16792484D01*
X8027206Y-16792484D02*
X8008158Y-16782960D01*
X8008158Y-16782960D02*
X7998634Y-16773436D01*
X8198634Y-16592484D02*
X8198634Y-16630579D01*
X8274825Y-16592484D02*
X8274825Y-16630579D01*
X8570063Y-16868674D02*
X8560539Y-16859150D01*
X8560539Y-16859150D02*
X8541491Y-16830579D01*
X8541491Y-16830579D02*
X8531968Y-16811531D01*
X8531968Y-16811531D02*
X8522444Y-16782960D01*
X8522444Y-16782960D02*
X8512920Y-16735341D01*
X8512920Y-16735341D02*
X8512920Y-16697246D01*
X8512920Y-16697246D02*
X8522444Y-16649627D01*
X8522444Y-16649627D02*
X8531968Y-16621055D01*
X8531968Y-16621055D02*
X8541491Y-16602008D01*
X8541491Y-16602008D02*
X8560539Y-16573436D01*
X8560539Y-16573436D02*
X8570063Y-16563912D01*
X8636730Y-16611531D02*
X8646253Y-16602008D01*
X8646253Y-16602008D02*
X8665301Y-16592484D01*
X8665301Y-16592484D02*
X8712920Y-16592484D01*
X8712920Y-16592484D02*
X8731968Y-16602008D01*
X8731968Y-16602008D02*
X8741491Y-16611531D01*
X8741491Y-16611531D02*
X8751015Y-16630579D01*
X8751015Y-16630579D02*
X8751015Y-16649627D01*
X8751015Y-16649627D02*
X8741491Y-16678198D01*
X8741491Y-16678198D02*
X8627206Y-16792484D01*
X8627206Y-16792484D02*
X8751015Y-16792484D01*
X8931968Y-16592484D02*
X8836730Y-16592484D01*
X8836730Y-16592484D02*
X8827206Y-16687722D01*
X8827206Y-16687722D02*
X8836730Y-16678198D01*
X8836730Y-16678198D02*
X8855777Y-16668674D01*
X8855777Y-16668674D02*
X8903396Y-16668674D01*
X8903396Y-16668674D02*
X8922444Y-16678198D01*
X8922444Y-16678198D02*
X8931968Y-16687722D01*
X8931968Y-16687722D02*
X8941491Y-16706769D01*
X8941491Y-16706769D02*
X8941491Y-16754388D01*
X8941491Y-16754388D02*
X8931968Y-16773436D01*
X8931968Y-16773436D02*
X8922444Y-16782960D01*
X8922444Y-16782960D02*
X8903396Y-16792484D01*
X8903396Y-16792484D02*
X8855777Y-16792484D01*
X8855777Y-16792484D02*
X8836730Y-16782960D01*
X8836730Y-16782960D02*
X8827206Y-16773436D01*
X9179587Y-16792484D02*
X9179587Y-16592484D01*
X9265301Y-16792484D02*
X9265301Y-16687722D01*
X9265301Y-16687722D02*
X9255777Y-16668674D01*
X9255777Y-16668674D02*
X9236730Y-16659150D01*
X9236730Y-16659150D02*
X9208158Y-16659150D01*
X9208158Y-16659150D02*
X9189111Y-16668674D01*
X9189111Y-16668674D02*
X9179587Y-16678198D01*
X9389111Y-16792484D02*
X9370063Y-16782960D01*
X9370063Y-16782960D02*
X9360539Y-16773436D01*
X9360539Y-16773436D02*
X9351015Y-16754388D01*
X9351015Y-16754388D02*
X9351015Y-16697246D01*
X9351015Y-16697246D02*
X9360539Y-16678198D01*
X9360539Y-16678198D02*
X9370063Y-16668674D01*
X9370063Y-16668674D02*
X9389111Y-16659150D01*
X9389111Y-16659150D02*
X9417682Y-16659150D01*
X9417682Y-16659150D02*
X9436730Y-16668674D01*
X9436730Y-16668674D02*
X9446253Y-16678198D01*
X9446253Y-16678198D02*
X9455777Y-16697246D01*
X9455777Y-16697246D02*
X9455777Y-16754388D01*
X9455777Y-16754388D02*
X9446253Y-16773436D01*
X9446253Y-16773436D02*
X9436730Y-16782960D01*
X9436730Y-16782960D02*
X9417682Y-16792484D01*
X9417682Y-16792484D02*
X9389111Y-16792484D01*
X9570063Y-16792484D02*
X9551015Y-16782960D01*
X9551015Y-16782960D02*
X9541492Y-16763912D01*
X9541492Y-16763912D02*
X9541492Y-16592484D01*
X9722444Y-16782960D02*
X9703396Y-16792484D01*
X9703396Y-16792484D02*
X9665301Y-16792484D01*
X9665301Y-16792484D02*
X9646253Y-16782960D01*
X9646253Y-16782960D02*
X9636730Y-16763912D01*
X9636730Y-16763912D02*
X9636730Y-16687722D01*
X9636730Y-16687722D02*
X9646253Y-16668674D01*
X9646253Y-16668674D02*
X9665301Y-16659150D01*
X9665301Y-16659150D02*
X9703396Y-16659150D01*
X9703396Y-16659150D02*
X9722444Y-16668674D01*
X9722444Y-16668674D02*
X9731968Y-16687722D01*
X9731968Y-16687722D02*
X9731968Y-16706769D01*
X9731968Y-16706769D02*
X9636730Y-16725817D01*
X9808158Y-16782960D02*
X9827206Y-16792484D01*
X9827206Y-16792484D02*
X9865301Y-16792484D01*
X9865301Y-16792484D02*
X9884349Y-16782960D01*
X9884349Y-16782960D02*
X9893873Y-16763912D01*
X9893873Y-16763912D02*
X9893873Y-16754388D01*
X9893873Y-16754388D02*
X9884349Y-16735341D01*
X9884349Y-16735341D02*
X9865301Y-16725817D01*
X9865301Y-16725817D02*
X9836730Y-16725817D01*
X9836730Y-16725817D02*
X9817682Y-16716293D01*
X9817682Y-16716293D02*
X9808158Y-16697246D01*
X9808158Y-16697246D02*
X9808158Y-16687722D01*
X9808158Y-16687722D02*
X9817682Y-16668674D01*
X9817682Y-16668674D02*
X9836730Y-16659150D01*
X9836730Y-16659150D02*
X9865301Y-16659150D01*
X9865301Y-16659150D02*
X9884349Y-16668674D01*
X9960539Y-16868674D02*
X9970063Y-16859150D01*
X9970063Y-16859150D02*
X9989111Y-16830579D01*
X9989111Y-16830579D02*
X9998634Y-16811531D01*
X9998634Y-16811531D02*
X10008158Y-16782960D01*
X10008158Y-16782960D02*
X10017682Y-16735341D01*
X10017682Y-16735341D02*
X10017682Y-16697246D01*
X10017682Y-16697246D02*
X10008158Y-16649627D01*
X10008158Y-16649627D02*
X9998634Y-16621055D01*
X9998634Y-16621055D02*
X9989111Y-16602008D01*
X9989111Y-16602008D02*
X9970063Y-16573436D01*
X9970063Y-16573436D02*
X9960539Y-16563912D01*
D14*
X4875000Y-16905000D02*
X4995000Y-17025000D01*
X4995000Y-16905000D02*
X4875000Y-17025000D01*
X4995000Y-16965000D02*
G75*
G03*
X4875000Y-16965000I-60000J0D01*
G01*
X4875000Y-16965000D02*
G75*
G03*
X4995000Y-16965000I60000J0D01*
G01*
D11*
X5360539Y-17056484D02*
X5246253Y-17056484D01*
X5303396Y-17056484D02*
X5303396Y-16856484D01*
X5303396Y-16856484D02*
X5284348Y-16885055D01*
X5284348Y-16885055D02*
X5265301Y-16904103D01*
X5265301Y-16904103D02*
X5246253Y-16913627D01*
X5446253Y-17037436D02*
X5455777Y-17046960D01*
X5455777Y-17046960D02*
X5446253Y-17056484D01*
X5446253Y-17056484D02*
X5436729Y-17046960D01*
X5436729Y-17046960D02*
X5446253Y-17037436D01*
X5446253Y-17037436D02*
X5446253Y-17056484D01*
X5531967Y-16875531D02*
X5541491Y-16866008D01*
X5541491Y-16866008D02*
X5560539Y-16856484D01*
X5560539Y-16856484D02*
X5608158Y-16856484D01*
X5608158Y-16856484D02*
X5627205Y-16866008D01*
X5627205Y-16866008D02*
X5636729Y-16875531D01*
X5636729Y-16875531D02*
X5646253Y-16894579D01*
X5646253Y-16894579D02*
X5646253Y-16913627D01*
X5646253Y-16913627D02*
X5636729Y-16942198D01*
X5636729Y-16942198D02*
X5522444Y-17056484D01*
X5522444Y-17056484D02*
X5646253Y-17056484D01*
X5770062Y-16856484D02*
X5789110Y-16856484D01*
X5789110Y-16856484D02*
X5808158Y-16866008D01*
X5808158Y-16866008D02*
X5817682Y-16875531D01*
X5817682Y-16875531D02*
X5827205Y-16894579D01*
X5827205Y-16894579D02*
X5836729Y-16932674D01*
X5836729Y-16932674D02*
X5836729Y-16980293D01*
X5836729Y-16980293D02*
X5827205Y-17018389D01*
X5827205Y-17018389D02*
X5817682Y-17037436D01*
X5817682Y-17037436D02*
X5808158Y-17046960D01*
X5808158Y-17046960D02*
X5789110Y-17056484D01*
X5789110Y-17056484D02*
X5770062Y-17056484D01*
X5770062Y-17056484D02*
X5751015Y-17046960D01*
X5751015Y-17046960D02*
X5741491Y-17037436D01*
X5741491Y-17037436D02*
X5731967Y-17018389D01*
X5731967Y-17018389D02*
X5722443Y-16980293D01*
X5722443Y-16980293D02*
X5722443Y-16932674D01*
X5722443Y-16932674D02*
X5731967Y-16894579D01*
X5731967Y-16894579D02*
X5741491Y-16875531D01*
X5741491Y-16875531D02*
X5751015Y-16866008D01*
X5751015Y-16866008D02*
X5770062Y-16856484D01*
X5960539Y-16856484D02*
X5979586Y-16856484D01*
X5979586Y-16856484D02*
X5998634Y-16866008D01*
X5998634Y-16866008D02*
X6008158Y-16875531D01*
X6008158Y-16875531D02*
X6017682Y-16894579D01*
X6017682Y-16894579D02*
X6027205Y-16932674D01*
X6027205Y-16932674D02*
X6027205Y-16980293D01*
X6027205Y-16980293D02*
X6017682Y-17018389D01*
X6017682Y-17018389D02*
X6008158Y-17037436D01*
X6008158Y-17037436D02*
X5998634Y-17046960D01*
X5998634Y-17046960D02*
X5979586Y-17056484D01*
X5979586Y-17056484D02*
X5960539Y-17056484D01*
X5960539Y-17056484D02*
X5941491Y-17046960D01*
X5941491Y-17046960D02*
X5931967Y-17037436D01*
X5931967Y-17037436D02*
X5922443Y-17018389D01*
X5922443Y-17018389D02*
X5912920Y-16980293D01*
X5912920Y-16980293D02*
X5912920Y-16932674D01*
X5912920Y-16932674D02*
X5922443Y-16894579D01*
X5922443Y-16894579D02*
X5931967Y-16875531D01*
X5931967Y-16875531D02*
X5941491Y-16866008D01*
X5941491Y-16866008D02*
X5960539Y-16856484D01*
X6112920Y-17056484D02*
X6112920Y-16923150D01*
X6112920Y-16942198D02*
X6122443Y-16932674D01*
X6122443Y-16932674D02*
X6141491Y-16923150D01*
X6141491Y-16923150D02*
X6170063Y-16923150D01*
X6170063Y-16923150D02*
X6189110Y-16932674D01*
X6189110Y-16932674D02*
X6198634Y-16951722D01*
X6198634Y-16951722D02*
X6198634Y-17056484D01*
X6198634Y-16951722D02*
X6208158Y-16932674D01*
X6208158Y-16932674D02*
X6227205Y-16923150D01*
X6227205Y-16923150D02*
X6255777Y-16923150D01*
X6255777Y-16923150D02*
X6274824Y-16932674D01*
X6274824Y-16932674D02*
X6284348Y-16951722D01*
X6284348Y-16951722D02*
X6284348Y-17056484D01*
X6379586Y-17056484D02*
X6379586Y-16923150D01*
X6379586Y-16942198D02*
X6389110Y-16932674D01*
X6389110Y-16932674D02*
X6408158Y-16923150D01*
X6408158Y-16923150D02*
X6436729Y-16923150D01*
X6436729Y-16923150D02*
X6455777Y-16932674D01*
X6455777Y-16932674D02*
X6465301Y-16951722D01*
X6465301Y-16951722D02*
X6465301Y-17056484D01*
X6465301Y-16951722D02*
X6474824Y-16932674D01*
X6474824Y-16932674D02*
X6493872Y-16923150D01*
X6493872Y-16923150D02*
X6522443Y-16923150D01*
X6522443Y-16923150D02*
X6541491Y-16932674D01*
X6541491Y-16932674D02*
X6551015Y-16951722D01*
X6551015Y-16951722D02*
X6551015Y-17056484D01*
X6941491Y-16846960D02*
X6770063Y-17104103D01*
X7198634Y-16856484D02*
X7217682Y-16856484D01*
X7217682Y-16856484D02*
X7236729Y-16866008D01*
X7236729Y-16866008D02*
X7246253Y-16875531D01*
X7246253Y-16875531D02*
X7255777Y-16894579D01*
X7255777Y-16894579D02*
X7265301Y-16932674D01*
X7265301Y-16932674D02*
X7265301Y-16980293D01*
X7265301Y-16980293D02*
X7255777Y-17018389D01*
X7255777Y-17018389D02*
X7246253Y-17037436D01*
X7246253Y-17037436D02*
X7236729Y-17046960D01*
X7236729Y-17046960D02*
X7217682Y-17056484D01*
X7217682Y-17056484D02*
X7198634Y-17056484D01*
X7198634Y-17056484D02*
X7179586Y-17046960D01*
X7179586Y-17046960D02*
X7170063Y-17037436D01*
X7170063Y-17037436D02*
X7160539Y-17018389D01*
X7160539Y-17018389D02*
X7151015Y-16980293D01*
X7151015Y-16980293D02*
X7151015Y-16932674D01*
X7151015Y-16932674D02*
X7160539Y-16894579D01*
X7160539Y-16894579D02*
X7170063Y-16875531D01*
X7170063Y-16875531D02*
X7179586Y-16866008D01*
X7179586Y-16866008D02*
X7198634Y-16856484D01*
X7351015Y-17037436D02*
X7360539Y-17046960D01*
X7360539Y-17046960D02*
X7351015Y-17056484D01*
X7351015Y-17056484D02*
X7341491Y-17046960D01*
X7341491Y-17046960D02*
X7351015Y-17037436D01*
X7351015Y-17037436D02*
X7351015Y-17056484D01*
X7484348Y-16856484D02*
X7503396Y-16856484D01*
X7503396Y-16856484D02*
X7522444Y-16866008D01*
X7522444Y-16866008D02*
X7531967Y-16875531D01*
X7531967Y-16875531D02*
X7541491Y-16894579D01*
X7541491Y-16894579D02*
X7551015Y-16932674D01*
X7551015Y-16932674D02*
X7551015Y-16980293D01*
X7551015Y-16980293D02*
X7541491Y-17018389D01*
X7541491Y-17018389D02*
X7531967Y-17037436D01*
X7531967Y-17037436D02*
X7522444Y-17046960D01*
X7522444Y-17046960D02*
X7503396Y-17056484D01*
X7503396Y-17056484D02*
X7484348Y-17056484D01*
X7484348Y-17056484D02*
X7465301Y-17046960D01*
X7465301Y-17046960D02*
X7455777Y-17037436D01*
X7455777Y-17037436D02*
X7446253Y-17018389D01*
X7446253Y-17018389D02*
X7436729Y-16980293D01*
X7436729Y-16980293D02*
X7436729Y-16932674D01*
X7436729Y-16932674D02*
X7446253Y-16894579D01*
X7446253Y-16894579D02*
X7455777Y-16875531D01*
X7455777Y-16875531D02*
X7465301Y-16866008D01*
X7465301Y-16866008D02*
X7484348Y-16856484D01*
X7722444Y-16923150D02*
X7722444Y-17056484D01*
X7674825Y-16846960D02*
X7627206Y-16989817D01*
X7627206Y-16989817D02*
X7751015Y-16989817D01*
X7808158Y-16856484D02*
X7941491Y-16856484D01*
X7941491Y-16856484D02*
X7855777Y-17056484D01*
X8008158Y-16875531D02*
X8017682Y-16866008D01*
X8017682Y-16866008D02*
X8036729Y-16856484D01*
X8036729Y-16856484D02*
X8084348Y-16856484D01*
X8084348Y-16856484D02*
X8103396Y-16866008D01*
X8103396Y-16866008D02*
X8112920Y-16875531D01*
X8112920Y-16875531D02*
X8122444Y-16894579D01*
X8122444Y-16894579D02*
X8122444Y-16913627D01*
X8122444Y-16913627D02*
X8112920Y-16942198D01*
X8112920Y-16942198D02*
X7998634Y-17056484D01*
X7998634Y-17056484D02*
X8122444Y-17056484D01*
X8198634Y-16856484D02*
X8198634Y-16894579D01*
X8274825Y-16856484D02*
X8274825Y-16894579D01*
X8570063Y-17132674D02*
X8560539Y-17123150D01*
X8560539Y-17123150D02*
X8541491Y-17094579D01*
X8541491Y-17094579D02*
X8531968Y-17075531D01*
X8531968Y-17075531D02*
X8522444Y-17046960D01*
X8522444Y-17046960D02*
X8512920Y-16999341D01*
X8512920Y-16999341D02*
X8512920Y-16961246D01*
X8512920Y-16961246D02*
X8522444Y-16913627D01*
X8522444Y-16913627D02*
X8531968Y-16885055D01*
X8531968Y-16885055D02*
X8541491Y-16866008D01*
X8541491Y-16866008D02*
X8560539Y-16837436D01*
X8560539Y-16837436D02*
X8570063Y-16827912D01*
X8751015Y-17056484D02*
X8636730Y-17056484D01*
X8693872Y-17056484D02*
X8693872Y-16856484D01*
X8693872Y-16856484D02*
X8674825Y-16885055D01*
X8674825Y-16885055D02*
X8655777Y-16904103D01*
X8655777Y-16904103D02*
X8636730Y-16913627D01*
X8922444Y-16856484D02*
X8884349Y-16856484D01*
X8884349Y-16856484D02*
X8865301Y-16866008D01*
X8865301Y-16866008D02*
X8855777Y-16875531D01*
X8855777Y-16875531D02*
X8836730Y-16904103D01*
X8836730Y-16904103D02*
X8827206Y-16942198D01*
X8827206Y-16942198D02*
X8827206Y-17018389D01*
X8827206Y-17018389D02*
X8836730Y-17037436D01*
X8836730Y-17037436D02*
X8846253Y-17046960D01*
X8846253Y-17046960D02*
X8865301Y-17056484D01*
X8865301Y-17056484D02*
X8903396Y-17056484D01*
X8903396Y-17056484D02*
X8922444Y-17046960D01*
X8922444Y-17046960D02*
X8931968Y-17037436D01*
X8931968Y-17037436D02*
X8941491Y-17018389D01*
X8941491Y-17018389D02*
X8941491Y-16970770D01*
X8941491Y-16970770D02*
X8931968Y-16951722D01*
X8931968Y-16951722D02*
X8922444Y-16942198D01*
X8922444Y-16942198D02*
X8903396Y-16932674D01*
X8903396Y-16932674D02*
X8865301Y-16932674D01*
X8865301Y-16932674D02*
X8846253Y-16942198D01*
X8846253Y-16942198D02*
X8836730Y-16951722D01*
X8836730Y-16951722D02*
X8827206Y-16970770D01*
X9179587Y-17056484D02*
X9179587Y-16856484D01*
X9265301Y-17056484D02*
X9265301Y-16951722D01*
X9265301Y-16951722D02*
X9255777Y-16932674D01*
X9255777Y-16932674D02*
X9236730Y-16923150D01*
X9236730Y-16923150D02*
X9208158Y-16923150D01*
X9208158Y-16923150D02*
X9189111Y-16932674D01*
X9189111Y-16932674D02*
X9179587Y-16942198D01*
X9389111Y-17056484D02*
X9370063Y-17046960D01*
X9370063Y-17046960D02*
X9360539Y-17037436D01*
X9360539Y-17037436D02*
X9351015Y-17018389D01*
X9351015Y-17018389D02*
X9351015Y-16961246D01*
X9351015Y-16961246D02*
X9360539Y-16942198D01*
X9360539Y-16942198D02*
X9370063Y-16932674D01*
X9370063Y-16932674D02*
X9389111Y-16923150D01*
X9389111Y-16923150D02*
X9417682Y-16923150D01*
X9417682Y-16923150D02*
X9436730Y-16932674D01*
X9436730Y-16932674D02*
X9446253Y-16942198D01*
X9446253Y-16942198D02*
X9455777Y-16961246D01*
X9455777Y-16961246D02*
X9455777Y-17018389D01*
X9455777Y-17018389D02*
X9446253Y-17037436D01*
X9446253Y-17037436D02*
X9436730Y-17046960D01*
X9436730Y-17046960D02*
X9417682Y-17056484D01*
X9417682Y-17056484D02*
X9389111Y-17056484D01*
X9570063Y-17056484D02*
X9551015Y-17046960D01*
X9551015Y-17046960D02*
X9541492Y-17027912D01*
X9541492Y-17027912D02*
X9541492Y-16856484D01*
X9722444Y-17046960D02*
X9703396Y-17056484D01*
X9703396Y-17056484D02*
X9665301Y-17056484D01*
X9665301Y-17056484D02*
X9646253Y-17046960D01*
X9646253Y-17046960D02*
X9636730Y-17027912D01*
X9636730Y-17027912D02*
X9636730Y-16951722D01*
X9636730Y-16951722D02*
X9646253Y-16932674D01*
X9646253Y-16932674D02*
X9665301Y-16923150D01*
X9665301Y-16923150D02*
X9703396Y-16923150D01*
X9703396Y-16923150D02*
X9722444Y-16932674D01*
X9722444Y-16932674D02*
X9731968Y-16951722D01*
X9731968Y-16951722D02*
X9731968Y-16970770D01*
X9731968Y-16970770D02*
X9636730Y-16989817D01*
X9808158Y-17046960D02*
X9827206Y-17056484D01*
X9827206Y-17056484D02*
X9865301Y-17056484D01*
X9865301Y-17056484D02*
X9884349Y-17046960D01*
X9884349Y-17046960D02*
X9893873Y-17027912D01*
X9893873Y-17027912D02*
X9893873Y-17018389D01*
X9893873Y-17018389D02*
X9884349Y-16999341D01*
X9884349Y-16999341D02*
X9865301Y-16989817D01*
X9865301Y-16989817D02*
X9836730Y-16989817D01*
X9836730Y-16989817D02*
X9817682Y-16980293D01*
X9817682Y-16980293D02*
X9808158Y-16961246D01*
X9808158Y-16961246D02*
X9808158Y-16951722D01*
X9808158Y-16951722D02*
X9817682Y-16932674D01*
X9817682Y-16932674D02*
X9836730Y-16923150D01*
X9836730Y-16923150D02*
X9865301Y-16923150D01*
X9865301Y-16923150D02*
X9884349Y-16932674D01*
X9960539Y-17132674D02*
X9970063Y-17123150D01*
X9970063Y-17123150D02*
X9989111Y-17094579D01*
X9989111Y-17094579D02*
X9998634Y-17075531D01*
X9998634Y-17075531D02*
X10008158Y-17046960D01*
X10008158Y-17046960D02*
X10017682Y-16999341D01*
X10017682Y-16999341D02*
X10017682Y-16961246D01*
X10017682Y-16961246D02*
X10008158Y-16913627D01*
X10008158Y-16913627D02*
X9998634Y-16885055D01*
X9998634Y-16885055D02*
X9989111Y-16866008D01*
X9989111Y-16866008D02*
X9970063Y-16837436D01*
X9970063Y-16837436D02*
X9960539Y-16827912D01*
D15*
X4865000Y-17164000D02*
X4995000Y-17294000D01*
X4995000Y-17164000D02*
X4865000Y-17294000D01*
X4930000Y-17164000D02*
X4930000Y-17294000D01*
X4865000Y-17229000D02*
X4995000Y-17229000D01*
D11*
X5360539Y-17320484D02*
X5246253Y-17320484D01*
X5303396Y-17320484D02*
X5303396Y-17120484D01*
X5303396Y-17120484D02*
X5284348Y-17149055D01*
X5284348Y-17149055D02*
X5265301Y-17168103D01*
X5265301Y-17168103D02*
X5246253Y-17177627D01*
X5446253Y-17301436D02*
X5455777Y-17310960D01*
X5455777Y-17310960D02*
X5446253Y-17320484D01*
X5446253Y-17320484D02*
X5436729Y-17310960D01*
X5436729Y-17310960D02*
X5446253Y-17301436D01*
X5446253Y-17301436D02*
X5446253Y-17320484D01*
X5522444Y-17120484D02*
X5646253Y-17120484D01*
X5646253Y-17120484D02*
X5579586Y-17196674D01*
X5579586Y-17196674D02*
X5608158Y-17196674D01*
X5608158Y-17196674D02*
X5627205Y-17206198D01*
X5627205Y-17206198D02*
X5636729Y-17215722D01*
X5636729Y-17215722D02*
X5646253Y-17234770D01*
X5646253Y-17234770D02*
X5646253Y-17282389D01*
X5646253Y-17282389D02*
X5636729Y-17301436D01*
X5636729Y-17301436D02*
X5627205Y-17310960D01*
X5627205Y-17310960D02*
X5608158Y-17320484D01*
X5608158Y-17320484D02*
X5551015Y-17320484D01*
X5551015Y-17320484D02*
X5531967Y-17310960D01*
X5531967Y-17310960D02*
X5522444Y-17301436D01*
X5770062Y-17120484D02*
X5789110Y-17120484D01*
X5789110Y-17120484D02*
X5808158Y-17130008D01*
X5808158Y-17130008D02*
X5817682Y-17139531D01*
X5817682Y-17139531D02*
X5827205Y-17158579D01*
X5827205Y-17158579D02*
X5836729Y-17196674D01*
X5836729Y-17196674D02*
X5836729Y-17244293D01*
X5836729Y-17244293D02*
X5827205Y-17282389D01*
X5827205Y-17282389D02*
X5817682Y-17301436D01*
X5817682Y-17301436D02*
X5808158Y-17310960D01*
X5808158Y-17310960D02*
X5789110Y-17320484D01*
X5789110Y-17320484D02*
X5770062Y-17320484D01*
X5770062Y-17320484D02*
X5751015Y-17310960D01*
X5751015Y-17310960D02*
X5741491Y-17301436D01*
X5741491Y-17301436D02*
X5731967Y-17282389D01*
X5731967Y-17282389D02*
X5722443Y-17244293D01*
X5722443Y-17244293D02*
X5722443Y-17196674D01*
X5722443Y-17196674D02*
X5731967Y-17158579D01*
X5731967Y-17158579D02*
X5741491Y-17139531D01*
X5741491Y-17139531D02*
X5751015Y-17130008D01*
X5751015Y-17130008D02*
X5770062Y-17120484D01*
X5960539Y-17120484D02*
X5979586Y-17120484D01*
X5979586Y-17120484D02*
X5998634Y-17130008D01*
X5998634Y-17130008D02*
X6008158Y-17139531D01*
X6008158Y-17139531D02*
X6017682Y-17158579D01*
X6017682Y-17158579D02*
X6027205Y-17196674D01*
X6027205Y-17196674D02*
X6027205Y-17244293D01*
X6027205Y-17244293D02*
X6017682Y-17282389D01*
X6017682Y-17282389D02*
X6008158Y-17301436D01*
X6008158Y-17301436D02*
X5998634Y-17310960D01*
X5998634Y-17310960D02*
X5979586Y-17320484D01*
X5979586Y-17320484D02*
X5960539Y-17320484D01*
X5960539Y-17320484D02*
X5941491Y-17310960D01*
X5941491Y-17310960D02*
X5931967Y-17301436D01*
X5931967Y-17301436D02*
X5922443Y-17282389D01*
X5922443Y-17282389D02*
X5912920Y-17244293D01*
X5912920Y-17244293D02*
X5912920Y-17196674D01*
X5912920Y-17196674D02*
X5922443Y-17158579D01*
X5922443Y-17158579D02*
X5931967Y-17139531D01*
X5931967Y-17139531D02*
X5941491Y-17130008D01*
X5941491Y-17130008D02*
X5960539Y-17120484D01*
X6112920Y-17320484D02*
X6112920Y-17187150D01*
X6112920Y-17206198D02*
X6122443Y-17196674D01*
X6122443Y-17196674D02*
X6141491Y-17187150D01*
X6141491Y-17187150D02*
X6170063Y-17187150D01*
X6170063Y-17187150D02*
X6189110Y-17196674D01*
X6189110Y-17196674D02*
X6198634Y-17215722D01*
X6198634Y-17215722D02*
X6198634Y-17320484D01*
X6198634Y-17215722D02*
X6208158Y-17196674D01*
X6208158Y-17196674D02*
X6227205Y-17187150D01*
X6227205Y-17187150D02*
X6255777Y-17187150D01*
X6255777Y-17187150D02*
X6274824Y-17196674D01*
X6274824Y-17196674D02*
X6284348Y-17215722D01*
X6284348Y-17215722D02*
X6284348Y-17320484D01*
X6379586Y-17320484D02*
X6379586Y-17187150D01*
X6379586Y-17206198D02*
X6389110Y-17196674D01*
X6389110Y-17196674D02*
X6408158Y-17187150D01*
X6408158Y-17187150D02*
X6436729Y-17187150D01*
X6436729Y-17187150D02*
X6455777Y-17196674D01*
X6455777Y-17196674D02*
X6465301Y-17215722D01*
X6465301Y-17215722D02*
X6465301Y-17320484D01*
X6465301Y-17215722D02*
X6474824Y-17196674D01*
X6474824Y-17196674D02*
X6493872Y-17187150D01*
X6493872Y-17187150D02*
X6522443Y-17187150D01*
X6522443Y-17187150D02*
X6541491Y-17196674D01*
X6541491Y-17196674D02*
X6551015Y-17215722D01*
X6551015Y-17215722D02*
X6551015Y-17320484D01*
X6941491Y-17110960D02*
X6770063Y-17368103D01*
X7198634Y-17120484D02*
X7217682Y-17120484D01*
X7217682Y-17120484D02*
X7236729Y-17130008D01*
X7236729Y-17130008D02*
X7246253Y-17139531D01*
X7246253Y-17139531D02*
X7255777Y-17158579D01*
X7255777Y-17158579D02*
X7265301Y-17196674D01*
X7265301Y-17196674D02*
X7265301Y-17244293D01*
X7265301Y-17244293D02*
X7255777Y-17282389D01*
X7255777Y-17282389D02*
X7246253Y-17301436D01*
X7246253Y-17301436D02*
X7236729Y-17310960D01*
X7236729Y-17310960D02*
X7217682Y-17320484D01*
X7217682Y-17320484D02*
X7198634Y-17320484D01*
X7198634Y-17320484D02*
X7179586Y-17310960D01*
X7179586Y-17310960D02*
X7170063Y-17301436D01*
X7170063Y-17301436D02*
X7160539Y-17282389D01*
X7160539Y-17282389D02*
X7151015Y-17244293D01*
X7151015Y-17244293D02*
X7151015Y-17196674D01*
X7151015Y-17196674D02*
X7160539Y-17158579D01*
X7160539Y-17158579D02*
X7170063Y-17139531D01*
X7170063Y-17139531D02*
X7179586Y-17130008D01*
X7179586Y-17130008D02*
X7198634Y-17120484D01*
X7351015Y-17301436D02*
X7360539Y-17310960D01*
X7360539Y-17310960D02*
X7351015Y-17320484D01*
X7351015Y-17320484D02*
X7341491Y-17310960D01*
X7341491Y-17310960D02*
X7351015Y-17301436D01*
X7351015Y-17301436D02*
X7351015Y-17320484D01*
X7484348Y-17120484D02*
X7503396Y-17120484D01*
X7503396Y-17120484D02*
X7522444Y-17130008D01*
X7522444Y-17130008D02*
X7531967Y-17139531D01*
X7531967Y-17139531D02*
X7541491Y-17158579D01*
X7541491Y-17158579D02*
X7551015Y-17196674D01*
X7551015Y-17196674D02*
X7551015Y-17244293D01*
X7551015Y-17244293D02*
X7541491Y-17282389D01*
X7541491Y-17282389D02*
X7531967Y-17301436D01*
X7531967Y-17301436D02*
X7522444Y-17310960D01*
X7522444Y-17310960D02*
X7503396Y-17320484D01*
X7503396Y-17320484D02*
X7484348Y-17320484D01*
X7484348Y-17320484D02*
X7465301Y-17310960D01*
X7465301Y-17310960D02*
X7455777Y-17301436D01*
X7455777Y-17301436D02*
X7446253Y-17282389D01*
X7446253Y-17282389D02*
X7436729Y-17244293D01*
X7436729Y-17244293D02*
X7436729Y-17196674D01*
X7436729Y-17196674D02*
X7446253Y-17158579D01*
X7446253Y-17158579D02*
X7455777Y-17139531D01*
X7455777Y-17139531D02*
X7465301Y-17130008D01*
X7465301Y-17130008D02*
X7484348Y-17120484D01*
X7731967Y-17120484D02*
X7636729Y-17120484D01*
X7636729Y-17120484D02*
X7627206Y-17215722D01*
X7627206Y-17215722D02*
X7636729Y-17206198D01*
X7636729Y-17206198D02*
X7655777Y-17196674D01*
X7655777Y-17196674D02*
X7703396Y-17196674D01*
X7703396Y-17196674D02*
X7722444Y-17206198D01*
X7722444Y-17206198D02*
X7731967Y-17215722D01*
X7731967Y-17215722D02*
X7741491Y-17234770D01*
X7741491Y-17234770D02*
X7741491Y-17282389D01*
X7741491Y-17282389D02*
X7731967Y-17301436D01*
X7731967Y-17301436D02*
X7722444Y-17310960D01*
X7722444Y-17310960D02*
X7703396Y-17320484D01*
X7703396Y-17320484D02*
X7655777Y-17320484D01*
X7655777Y-17320484D02*
X7636729Y-17310960D01*
X7636729Y-17310960D02*
X7627206Y-17301436D01*
X7931967Y-17320484D02*
X7817682Y-17320484D01*
X7874825Y-17320484D02*
X7874825Y-17120484D01*
X7874825Y-17120484D02*
X7855777Y-17149055D01*
X7855777Y-17149055D02*
X7836729Y-17168103D01*
X7836729Y-17168103D02*
X7817682Y-17177627D01*
X8008158Y-17139531D02*
X8017682Y-17130008D01*
X8017682Y-17130008D02*
X8036729Y-17120484D01*
X8036729Y-17120484D02*
X8084348Y-17120484D01*
X8084348Y-17120484D02*
X8103396Y-17130008D01*
X8103396Y-17130008D02*
X8112920Y-17139531D01*
X8112920Y-17139531D02*
X8122444Y-17158579D01*
X8122444Y-17158579D02*
X8122444Y-17177627D01*
X8122444Y-17177627D02*
X8112920Y-17206198D01*
X8112920Y-17206198D02*
X7998634Y-17320484D01*
X7998634Y-17320484D02*
X8122444Y-17320484D01*
X8198634Y-17120484D02*
X8198634Y-17158579D01*
X8274825Y-17120484D02*
X8274825Y-17158579D01*
X8570063Y-17396674D02*
X8560539Y-17387150D01*
X8560539Y-17387150D02*
X8541491Y-17358579D01*
X8541491Y-17358579D02*
X8531968Y-17339531D01*
X8531968Y-17339531D02*
X8522444Y-17310960D01*
X8522444Y-17310960D02*
X8512920Y-17263341D01*
X8512920Y-17263341D02*
X8512920Y-17225246D01*
X8512920Y-17225246D02*
X8522444Y-17177627D01*
X8522444Y-17177627D02*
X8531968Y-17149055D01*
X8531968Y-17149055D02*
X8541491Y-17130008D01*
X8541491Y-17130008D02*
X8560539Y-17101436D01*
X8560539Y-17101436D02*
X8570063Y-17091912D01*
X8636730Y-17139531D02*
X8646253Y-17130008D01*
X8646253Y-17130008D02*
X8665301Y-17120484D01*
X8665301Y-17120484D02*
X8712920Y-17120484D01*
X8712920Y-17120484D02*
X8731968Y-17130008D01*
X8731968Y-17130008D02*
X8741491Y-17139531D01*
X8741491Y-17139531D02*
X8751015Y-17158579D01*
X8751015Y-17158579D02*
X8751015Y-17177627D01*
X8751015Y-17177627D02*
X8741491Y-17206198D01*
X8741491Y-17206198D02*
X8627206Y-17320484D01*
X8627206Y-17320484D02*
X8751015Y-17320484D01*
X8989111Y-17320484D02*
X8989111Y-17120484D01*
X9074825Y-17320484D02*
X9074825Y-17215722D01*
X9074825Y-17215722D02*
X9065301Y-17196674D01*
X9065301Y-17196674D02*
X9046253Y-17187150D01*
X9046253Y-17187150D02*
X9017682Y-17187150D01*
X9017682Y-17187150D02*
X8998634Y-17196674D01*
X8998634Y-17196674D02*
X8989111Y-17206198D01*
X9198634Y-17320484D02*
X9179587Y-17310960D01*
X9179587Y-17310960D02*
X9170063Y-17301436D01*
X9170063Y-17301436D02*
X9160539Y-17282389D01*
X9160539Y-17282389D02*
X9160539Y-17225246D01*
X9160539Y-17225246D02*
X9170063Y-17206198D01*
X9170063Y-17206198D02*
X9179587Y-17196674D01*
X9179587Y-17196674D02*
X9198634Y-17187150D01*
X9198634Y-17187150D02*
X9227206Y-17187150D01*
X9227206Y-17187150D02*
X9246253Y-17196674D01*
X9246253Y-17196674D02*
X9255777Y-17206198D01*
X9255777Y-17206198D02*
X9265301Y-17225246D01*
X9265301Y-17225246D02*
X9265301Y-17282389D01*
X9265301Y-17282389D02*
X9255777Y-17301436D01*
X9255777Y-17301436D02*
X9246253Y-17310960D01*
X9246253Y-17310960D02*
X9227206Y-17320484D01*
X9227206Y-17320484D02*
X9198634Y-17320484D01*
X9379587Y-17320484D02*
X9360539Y-17310960D01*
X9360539Y-17310960D02*
X9351015Y-17291912D01*
X9351015Y-17291912D02*
X9351015Y-17120484D01*
X9531968Y-17310960D02*
X9512920Y-17320484D01*
X9512920Y-17320484D02*
X9474825Y-17320484D01*
X9474825Y-17320484D02*
X9455777Y-17310960D01*
X9455777Y-17310960D02*
X9446253Y-17291912D01*
X9446253Y-17291912D02*
X9446253Y-17215722D01*
X9446253Y-17215722D02*
X9455777Y-17196674D01*
X9455777Y-17196674D02*
X9474825Y-17187150D01*
X9474825Y-17187150D02*
X9512920Y-17187150D01*
X9512920Y-17187150D02*
X9531968Y-17196674D01*
X9531968Y-17196674D02*
X9541492Y-17215722D01*
X9541492Y-17215722D02*
X9541492Y-17234770D01*
X9541492Y-17234770D02*
X9446253Y-17253817D01*
X9617682Y-17310960D02*
X9636730Y-17320484D01*
X9636730Y-17320484D02*
X9674825Y-17320484D01*
X9674825Y-17320484D02*
X9693873Y-17310960D01*
X9693873Y-17310960D02*
X9703396Y-17291912D01*
X9703396Y-17291912D02*
X9703396Y-17282389D01*
X9703396Y-17282389D02*
X9693873Y-17263341D01*
X9693873Y-17263341D02*
X9674825Y-17253817D01*
X9674825Y-17253817D02*
X9646253Y-17253817D01*
X9646253Y-17253817D02*
X9627206Y-17244293D01*
X9627206Y-17244293D02*
X9617682Y-17225246D01*
X9617682Y-17225246D02*
X9617682Y-17215722D01*
X9617682Y-17215722D02*
X9627206Y-17196674D01*
X9627206Y-17196674D02*
X9646253Y-17187150D01*
X9646253Y-17187150D02*
X9674825Y-17187150D01*
X9674825Y-17187150D02*
X9693873Y-17196674D01*
X9770063Y-17396674D02*
X9779587Y-17387150D01*
X9779587Y-17387150D02*
X9798634Y-17358579D01*
X9798634Y-17358579D02*
X9808158Y-17339531D01*
X9808158Y-17339531D02*
X9817682Y-17310960D01*
X9817682Y-17310960D02*
X9827206Y-17263341D01*
X9827206Y-17263341D02*
X9827206Y-17225246D01*
X9827206Y-17225246D02*
X9817682Y-17177627D01*
X9817682Y-17177627D02*
X9808158Y-17149055D01*
X9808158Y-17149055D02*
X9798634Y-17130008D01*
X9798634Y-17130008D02*
X9779587Y-17101436D01*
X9779587Y-17101436D02*
X9770063Y-17091912D01*
D16*
X4843000Y-17417000D02*
X4995000Y-17569000D01*
X4995000Y-17417000D02*
X4843000Y-17569000D01*
X4972741Y-17546741D02*
X4972741Y-17439259D01*
X4865259Y-17439259D01*
X4865259Y-17546741D01*
X4972741Y-17546741D01*
D11*
X5360539Y-17584484D02*
X5246253Y-17584484D01*
X5303396Y-17584484D02*
X5303396Y-17384484D01*
X5303396Y-17384484D02*
X5284348Y-17413055D01*
X5284348Y-17413055D02*
X5265301Y-17432103D01*
X5265301Y-17432103D02*
X5246253Y-17441627D01*
X5446253Y-17565436D02*
X5455777Y-17574960D01*
X5455777Y-17574960D02*
X5446253Y-17584484D01*
X5446253Y-17584484D02*
X5436729Y-17574960D01*
X5436729Y-17574960D02*
X5446253Y-17565436D01*
X5446253Y-17565436D02*
X5446253Y-17584484D01*
X5636729Y-17384484D02*
X5541491Y-17384484D01*
X5541491Y-17384484D02*
X5531967Y-17479722D01*
X5531967Y-17479722D02*
X5541491Y-17470198D01*
X5541491Y-17470198D02*
X5560539Y-17460674D01*
X5560539Y-17460674D02*
X5608158Y-17460674D01*
X5608158Y-17460674D02*
X5627205Y-17470198D01*
X5627205Y-17470198D02*
X5636729Y-17479722D01*
X5636729Y-17479722D02*
X5646253Y-17498770D01*
X5646253Y-17498770D02*
X5646253Y-17546389D01*
X5646253Y-17546389D02*
X5636729Y-17565436D01*
X5636729Y-17565436D02*
X5627205Y-17574960D01*
X5627205Y-17574960D02*
X5608158Y-17584484D01*
X5608158Y-17584484D02*
X5560539Y-17584484D01*
X5560539Y-17584484D02*
X5541491Y-17574960D01*
X5541491Y-17574960D02*
X5531967Y-17565436D01*
X5722443Y-17403531D02*
X5731967Y-17394008D01*
X5731967Y-17394008D02*
X5751015Y-17384484D01*
X5751015Y-17384484D02*
X5798634Y-17384484D01*
X5798634Y-17384484D02*
X5817682Y-17394008D01*
X5817682Y-17394008D02*
X5827205Y-17403531D01*
X5827205Y-17403531D02*
X5836729Y-17422579D01*
X5836729Y-17422579D02*
X5836729Y-17441627D01*
X5836729Y-17441627D02*
X5827205Y-17470198D01*
X5827205Y-17470198D02*
X5712920Y-17584484D01*
X5712920Y-17584484D02*
X5836729Y-17584484D01*
X5960539Y-17384484D02*
X5979586Y-17384484D01*
X5979586Y-17384484D02*
X5998634Y-17394008D01*
X5998634Y-17394008D02*
X6008158Y-17403531D01*
X6008158Y-17403531D02*
X6017682Y-17422579D01*
X6017682Y-17422579D02*
X6027205Y-17460674D01*
X6027205Y-17460674D02*
X6027205Y-17508293D01*
X6027205Y-17508293D02*
X6017682Y-17546389D01*
X6017682Y-17546389D02*
X6008158Y-17565436D01*
X6008158Y-17565436D02*
X5998634Y-17574960D01*
X5998634Y-17574960D02*
X5979586Y-17584484D01*
X5979586Y-17584484D02*
X5960539Y-17584484D01*
X5960539Y-17584484D02*
X5941491Y-17574960D01*
X5941491Y-17574960D02*
X5931967Y-17565436D01*
X5931967Y-17565436D02*
X5922443Y-17546389D01*
X5922443Y-17546389D02*
X5912920Y-17508293D01*
X5912920Y-17508293D02*
X5912920Y-17460674D01*
X5912920Y-17460674D02*
X5922443Y-17422579D01*
X5922443Y-17422579D02*
X5931967Y-17403531D01*
X5931967Y-17403531D02*
X5941491Y-17394008D01*
X5941491Y-17394008D02*
X5960539Y-17384484D01*
X6112920Y-17584484D02*
X6112920Y-17451150D01*
X6112920Y-17470198D02*
X6122443Y-17460674D01*
X6122443Y-17460674D02*
X6141491Y-17451150D01*
X6141491Y-17451150D02*
X6170063Y-17451150D01*
X6170063Y-17451150D02*
X6189110Y-17460674D01*
X6189110Y-17460674D02*
X6198634Y-17479722D01*
X6198634Y-17479722D02*
X6198634Y-17584484D01*
X6198634Y-17479722D02*
X6208158Y-17460674D01*
X6208158Y-17460674D02*
X6227205Y-17451150D01*
X6227205Y-17451150D02*
X6255777Y-17451150D01*
X6255777Y-17451150D02*
X6274824Y-17460674D01*
X6274824Y-17460674D02*
X6284348Y-17479722D01*
X6284348Y-17479722D02*
X6284348Y-17584484D01*
X6379586Y-17584484D02*
X6379586Y-17451150D01*
X6379586Y-17470198D02*
X6389110Y-17460674D01*
X6389110Y-17460674D02*
X6408158Y-17451150D01*
X6408158Y-17451150D02*
X6436729Y-17451150D01*
X6436729Y-17451150D02*
X6455777Y-17460674D01*
X6455777Y-17460674D02*
X6465301Y-17479722D01*
X6465301Y-17479722D02*
X6465301Y-17584484D01*
X6465301Y-17479722D02*
X6474824Y-17460674D01*
X6474824Y-17460674D02*
X6493872Y-17451150D01*
X6493872Y-17451150D02*
X6522443Y-17451150D01*
X6522443Y-17451150D02*
X6541491Y-17460674D01*
X6541491Y-17460674D02*
X6551015Y-17479722D01*
X6551015Y-17479722D02*
X6551015Y-17584484D01*
X6941491Y-17374960D02*
X6770063Y-17632103D01*
X7198634Y-17384484D02*
X7217682Y-17384484D01*
X7217682Y-17384484D02*
X7236729Y-17394008D01*
X7236729Y-17394008D02*
X7246253Y-17403531D01*
X7246253Y-17403531D02*
X7255777Y-17422579D01*
X7255777Y-17422579D02*
X7265301Y-17460674D01*
X7265301Y-17460674D02*
X7265301Y-17508293D01*
X7265301Y-17508293D02*
X7255777Y-17546389D01*
X7255777Y-17546389D02*
X7246253Y-17565436D01*
X7246253Y-17565436D02*
X7236729Y-17574960D01*
X7236729Y-17574960D02*
X7217682Y-17584484D01*
X7217682Y-17584484D02*
X7198634Y-17584484D01*
X7198634Y-17584484D02*
X7179586Y-17574960D01*
X7179586Y-17574960D02*
X7170063Y-17565436D01*
X7170063Y-17565436D02*
X7160539Y-17546389D01*
X7160539Y-17546389D02*
X7151015Y-17508293D01*
X7151015Y-17508293D02*
X7151015Y-17460674D01*
X7151015Y-17460674D02*
X7160539Y-17422579D01*
X7160539Y-17422579D02*
X7170063Y-17403531D01*
X7170063Y-17403531D02*
X7179586Y-17394008D01*
X7179586Y-17394008D02*
X7198634Y-17384484D01*
X7351015Y-17565436D02*
X7360539Y-17574960D01*
X7360539Y-17574960D02*
X7351015Y-17584484D01*
X7351015Y-17584484D02*
X7341491Y-17574960D01*
X7341491Y-17574960D02*
X7351015Y-17565436D01*
X7351015Y-17565436D02*
X7351015Y-17584484D01*
X7484348Y-17384484D02*
X7503396Y-17384484D01*
X7503396Y-17384484D02*
X7522444Y-17394008D01*
X7522444Y-17394008D02*
X7531967Y-17403531D01*
X7531967Y-17403531D02*
X7541491Y-17422579D01*
X7541491Y-17422579D02*
X7551015Y-17460674D01*
X7551015Y-17460674D02*
X7551015Y-17508293D01*
X7551015Y-17508293D02*
X7541491Y-17546389D01*
X7541491Y-17546389D02*
X7531967Y-17565436D01*
X7531967Y-17565436D02*
X7522444Y-17574960D01*
X7522444Y-17574960D02*
X7503396Y-17584484D01*
X7503396Y-17584484D02*
X7484348Y-17584484D01*
X7484348Y-17584484D02*
X7465301Y-17574960D01*
X7465301Y-17574960D02*
X7455777Y-17565436D01*
X7455777Y-17565436D02*
X7446253Y-17546389D01*
X7446253Y-17546389D02*
X7436729Y-17508293D01*
X7436729Y-17508293D02*
X7436729Y-17460674D01*
X7436729Y-17460674D02*
X7446253Y-17422579D01*
X7446253Y-17422579D02*
X7455777Y-17403531D01*
X7455777Y-17403531D02*
X7465301Y-17394008D01*
X7465301Y-17394008D02*
X7484348Y-17384484D01*
X7731967Y-17384484D02*
X7636729Y-17384484D01*
X7636729Y-17384484D02*
X7627206Y-17479722D01*
X7627206Y-17479722D02*
X7636729Y-17470198D01*
X7636729Y-17470198D02*
X7655777Y-17460674D01*
X7655777Y-17460674D02*
X7703396Y-17460674D01*
X7703396Y-17460674D02*
X7722444Y-17470198D01*
X7722444Y-17470198D02*
X7731967Y-17479722D01*
X7731967Y-17479722D02*
X7741491Y-17498770D01*
X7741491Y-17498770D02*
X7741491Y-17546389D01*
X7741491Y-17546389D02*
X7731967Y-17565436D01*
X7731967Y-17565436D02*
X7722444Y-17574960D01*
X7722444Y-17574960D02*
X7703396Y-17584484D01*
X7703396Y-17584484D02*
X7655777Y-17584484D01*
X7655777Y-17584484D02*
X7636729Y-17574960D01*
X7636729Y-17574960D02*
X7627206Y-17565436D01*
X7836729Y-17584484D02*
X7874825Y-17584484D01*
X7874825Y-17584484D02*
X7893872Y-17574960D01*
X7893872Y-17574960D02*
X7903396Y-17565436D01*
X7903396Y-17565436D02*
X7922444Y-17536865D01*
X7922444Y-17536865D02*
X7931967Y-17498770D01*
X7931967Y-17498770D02*
X7931967Y-17422579D01*
X7931967Y-17422579D02*
X7922444Y-17403531D01*
X7922444Y-17403531D02*
X7912920Y-17394008D01*
X7912920Y-17394008D02*
X7893872Y-17384484D01*
X7893872Y-17384484D02*
X7855777Y-17384484D01*
X7855777Y-17384484D02*
X7836729Y-17394008D01*
X7836729Y-17394008D02*
X7827206Y-17403531D01*
X7827206Y-17403531D02*
X7817682Y-17422579D01*
X7817682Y-17422579D02*
X7817682Y-17470198D01*
X7817682Y-17470198D02*
X7827206Y-17489246D01*
X7827206Y-17489246D02*
X7836729Y-17498770D01*
X7836729Y-17498770D02*
X7855777Y-17508293D01*
X7855777Y-17508293D02*
X7893872Y-17508293D01*
X7893872Y-17508293D02*
X7912920Y-17498770D01*
X7912920Y-17498770D02*
X7922444Y-17489246D01*
X7922444Y-17489246D02*
X7931967Y-17470198D01*
X8046253Y-17470198D02*
X8027206Y-17460674D01*
X8027206Y-17460674D02*
X8017682Y-17451150D01*
X8017682Y-17451150D02*
X8008158Y-17432103D01*
X8008158Y-17432103D02*
X8008158Y-17422579D01*
X8008158Y-17422579D02*
X8017682Y-17403531D01*
X8017682Y-17403531D02*
X8027206Y-17394008D01*
X8027206Y-17394008D02*
X8046253Y-17384484D01*
X8046253Y-17384484D02*
X8084348Y-17384484D01*
X8084348Y-17384484D02*
X8103396Y-17394008D01*
X8103396Y-17394008D02*
X8112920Y-17403531D01*
X8112920Y-17403531D02*
X8122444Y-17422579D01*
X8122444Y-17422579D02*
X8122444Y-17432103D01*
X8122444Y-17432103D02*
X8112920Y-17451150D01*
X8112920Y-17451150D02*
X8103396Y-17460674D01*
X8103396Y-17460674D02*
X8084348Y-17470198D01*
X8084348Y-17470198D02*
X8046253Y-17470198D01*
X8046253Y-17470198D02*
X8027206Y-17479722D01*
X8027206Y-17479722D02*
X8017682Y-17489246D01*
X8017682Y-17489246D02*
X8008158Y-17508293D01*
X8008158Y-17508293D02*
X8008158Y-17546389D01*
X8008158Y-17546389D02*
X8017682Y-17565436D01*
X8017682Y-17565436D02*
X8027206Y-17574960D01*
X8027206Y-17574960D02*
X8046253Y-17584484D01*
X8046253Y-17584484D02*
X8084348Y-17584484D01*
X8084348Y-17584484D02*
X8103396Y-17574960D01*
X8103396Y-17574960D02*
X8112920Y-17565436D01*
X8112920Y-17565436D02*
X8122444Y-17546389D01*
X8122444Y-17546389D02*
X8122444Y-17508293D01*
X8122444Y-17508293D02*
X8112920Y-17489246D01*
X8112920Y-17489246D02*
X8103396Y-17479722D01*
X8103396Y-17479722D02*
X8084348Y-17470198D01*
X8198634Y-17384484D02*
X8198634Y-17422579D01*
X8274825Y-17384484D02*
X8274825Y-17422579D01*
X8570063Y-17660674D02*
X8560539Y-17651150D01*
X8560539Y-17651150D02*
X8541491Y-17622579D01*
X8541491Y-17622579D02*
X8531968Y-17603531D01*
X8531968Y-17603531D02*
X8522444Y-17574960D01*
X8522444Y-17574960D02*
X8512920Y-17527341D01*
X8512920Y-17527341D02*
X8512920Y-17489246D01*
X8512920Y-17489246D02*
X8522444Y-17441627D01*
X8522444Y-17441627D02*
X8531968Y-17413055D01*
X8531968Y-17413055D02*
X8541491Y-17394008D01*
X8541491Y-17394008D02*
X8560539Y-17365436D01*
X8560539Y-17365436D02*
X8570063Y-17355912D01*
X8636730Y-17403531D02*
X8646253Y-17394008D01*
X8646253Y-17394008D02*
X8665301Y-17384484D01*
X8665301Y-17384484D02*
X8712920Y-17384484D01*
X8712920Y-17384484D02*
X8731968Y-17394008D01*
X8731968Y-17394008D02*
X8741491Y-17403531D01*
X8741491Y-17403531D02*
X8751015Y-17422579D01*
X8751015Y-17422579D02*
X8751015Y-17441627D01*
X8751015Y-17441627D02*
X8741491Y-17470198D01*
X8741491Y-17470198D02*
X8627206Y-17584484D01*
X8627206Y-17584484D02*
X8751015Y-17584484D01*
X8922444Y-17384484D02*
X8884349Y-17384484D01*
X8884349Y-17384484D02*
X8865301Y-17394008D01*
X8865301Y-17394008D02*
X8855777Y-17403531D01*
X8855777Y-17403531D02*
X8836730Y-17432103D01*
X8836730Y-17432103D02*
X8827206Y-17470198D01*
X8827206Y-17470198D02*
X8827206Y-17546389D01*
X8827206Y-17546389D02*
X8836730Y-17565436D01*
X8836730Y-17565436D02*
X8846253Y-17574960D01*
X8846253Y-17574960D02*
X8865301Y-17584484D01*
X8865301Y-17584484D02*
X8903396Y-17584484D01*
X8903396Y-17584484D02*
X8922444Y-17574960D01*
X8922444Y-17574960D02*
X8931968Y-17565436D01*
X8931968Y-17565436D02*
X8941491Y-17546389D01*
X8941491Y-17546389D02*
X8941491Y-17498770D01*
X8941491Y-17498770D02*
X8931968Y-17479722D01*
X8931968Y-17479722D02*
X8922444Y-17470198D01*
X8922444Y-17470198D02*
X8903396Y-17460674D01*
X8903396Y-17460674D02*
X8865301Y-17460674D01*
X8865301Y-17460674D02*
X8846253Y-17470198D01*
X8846253Y-17470198D02*
X8836730Y-17479722D01*
X8836730Y-17479722D02*
X8827206Y-17498770D01*
X9179587Y-17584484D02*
X9179587Y-17384484D01*
X9265301Y-17584484D02*
X9265301Y-17479722D01*
X9265301Y-17479722D02*
X9255777Y-17460674D01*
X9255777Y-17460674D02*
X9236730Y-17451150D01*
X9236730Y-17451150D02*
X9208158Y-17451150D01*
X9208158Y-17451150D02*
X9189111Y-17460674D01*
X9189111Y-17460674D02*
X9179587Y-17470198D01*
X9389111Y-17584484D02*
X9370063Y-17574960D01*
X9370063Y-17574960D02*
X9360539Y-17565436D01*
X9360539Y-17565436D02*
X9351015Y-17546389D01*
X9351015Y-17546389D02*
X9351015Y-17489246D01*
X9351015Y-17489246D02*
X9360539Y-17470198D01*
X9360539Y-17470198D02*
X9370063Y-17460674D01*
X9370063Y-17460674D02*
X9389111Y-17451150D01*
X9389111Y-17451150D02*
X9417682Y-17451150D01*
X9417682Y-17451150D02*
X9436730Y-17460674D01*
X9436730Y-17460674D02*
X9446253Y-17470198D01*
X9446253Y-17470198D02*
X9455777Y-17489246D01*
X9455777Y-17489246D02*
X9455777Y-17546389D01*
X9455777Y-17546389D02*
X9446253Y-17565436D01*
X9446253Y-17565436D02*
X9436730Y-17574960D01*
X9436730Y-17574960D02*
X9417682Y-17584484D01*
X9417682Y-17584484D02*
X9389111Y-17584484D01*
X9570063Y-17584484D02*
X9551015Y-17574960D01*
X9551015Y-17574960D02*
X9541492Y-17555912D01*
X9541492Y-17555912D02*
X9541492Y-17384484D01*
X9722444Y-17574960D02*
X9703396Y-17584484D01*
X9703396Y-17584484D02*
X9665301Y-17584484D01*
X9665301Y-17584484D02*
X9646253Y-17574960D01*
X9646253Y-17574960D02*
X9636730Y-17555912D01*
X9636730Y-17555912D02*
X9636730Y-17479722D01*
X9636730Y-17479722D02*
X9646253Y-17460674D01*
X9646253Y-17460674D02*
X9665301Y-17451150D01*
X9665301Y-17451150D02*
X9703396Y-17451150D01*
X9703396Y-17451150D02*
X9722444Y-17460674D01*
X9722444Y-17460674D02*
X9731968Y-17479722D01*
X9731968Y-17479722D02*
X9731968Y-17498770D01*
X9731968Y-17498770D02*
X9636730Y-17517817D01*
X9808158Y-17574960D02*
X9827206Y-17584484D01*
X9827206Y-17584484D02*
X9865301Y-17584484D01*
X9865301Y-17584484D02*
X9884349Y-17574960D01*
X9884349Y-17574960D02*
X9893873Y-17555912D01*
X9893873Y-17555912D02*
X9893873Y-17546389D01*
X9893873Y-17546389D02*
X9884349Y-17527341D01*
X9884349Y-17527341D02*
X9865301Y-17517817D01*
X9865301Y-17517817D02*
X9836730Y-17517817D01*
X9836730Y-17517817D02*
X9817682Y-17508293D01*
X9817682Y-17508293D02*
X9808158Y-17489246D01*
X9808158Y-17489246D02*
X9808158Y-17479722D01*
X9808158Y-17479722D02*
X9817682Y-17460674D01*
X9817682Y-17460674D02*
X9836730Y-17451150D01*
X9836730Y-17451150D02*
X9865301Y-17451150D01*
X9865301Y-17451150D02*
X9884349Y-17460674D01*
X9960539Y-17660674D02*
X9970063Y-17651150D01*
X9970063Y-17651150D02*
X9989111Y-17622579D01*
X9989111Y-17622579D02*
X9998634Y-17603531D01*
X9998634Y-17603531D02*
X10008158Y-17574960D01*
X10008158Y-17574960D02*
X10017682Y-17527341D01*
X10017682Y-17527341D02*
X10017682Y-17489246D01*
X10017682Y-17489246D02*
X10008158Y-17441627D01*
X10008158Y-17441627D02*
X9998634Y-17413055D01*
X9998634Y-17413055D02*
X9989111Y-17394008D01*
X9989111Y-17394008D02*
X9970063Y-17365436D01*
X9970063Y-17365436D02*
X9960539Y-17355912D01*
X4795000Y-17665000D02*
X4995000Y-17865000D01*
X4995000Y-17665000D02*
X4795000Y-17865000D01*
X4895000Y-17865000D02*
X4995000Y-17765000D01*
X4895000Y-17665000D01*
X4795000Y-17765000D01*
X4895000Y-17865000D01*
X5246253Y-17675531D02*
X5255777Y-17666008D01*
X5255777Y-17666008D02*
X5274824Y-17656484D01*
X5274824Y-17656484D02*
X5322444Y-17656484D01*
X5322444Y-17656484D02*
X5341491Y-17666008D01*
X5341491Y-17666008D02*
X5351015Y-17675531D01*
X5351015Y-17675531D02*
X5360539Y-17694579D01*
X5360539Y-17694579D02*
X5360539Y-17713627D01*
X5360539Y-17713627D02*
X5351015Y-17742198D01*
X5351015Y-17742198D02*
X5236729Y-17856484D01*
X5236729Y-17856484D02*
X5360539Y-17856484D01*
X5446253Y-17837436D02*
X5455777Y-17846960D01*
X5455777Y-17846960D02*
X5446253Y-17856484D01*
X5446253Y-17856484D02*
X5436729Y-17846960D01*
X5436729Y-17846960D02*
X5446253Y-17837436D01*
X5446253Y-17837436D02*
X5446253Y-17856484D01*
X5636729Y-17656484D02*
X5541491Y-17656484D01*
X5541491Y-17656484D02*
X5531967Y-17751722D01*
X5531967Y-17751722D02*
X5541491Y-17742198D01*
X5541491Y-17742198D02*
X5560539Y-17732674D01*
X5560539Y-17732674D02*
X5608158Y-17732674D01*
X5608158Y-17732674D02*
X5627205Y-17742198D01*
X5627205Y-17742198D02*
X5636729Y-17751722D01*
X5636729Y-17751722D02*
X5646253Y-17770770D01*
X5646253Y-17770770D02*
X5646253Y-17818389D01*
X5646253Y-17818389D02*
X5636729Y-17837436D01*
X5636729Y-17837436D02*
X5627205Y-17846960D01*
X5627205Y-17846960D02*
X5608158Y-17856484D01*
X5608158Y-17856484D02*
X5560539Y-17856484D01*
X5560539Y-17856484D02*
X5541491Y-17846960D01*
X5541491Y-17846960D02*
X5531967Y-17837436D01*
X5770062Y-17656484D02*
X5789110Y-17656484D01*
X5789110Y-17656484D02*
X5808158Y-17666008D01*
X5808158Y-17666008D02*
X5817682Y-17675531D01*
X5817682Y-17675531D02*
X5827205Y-17694579D01*
X5827205Y-17694579D02*
X5836729Y-17732674D01*
X5836729Y-17732674D02*
X5836729Y-17780293D01*
X5836729Y-17780293D02*
X5827205Y-17818389D01*
X5827205Y-17818389D02*
X5817682Y-17837436D01*
X5817682Y-17837436D02*
X5808158Y-17846960D01*
X5808158Y-17846960D02*
X5789110Y-17856484D01*
X5789110Y-17856484D02*
X5770062Y-17856484D01*
X5770062Y-17856484D02*
X5751015Y-17846960D01*
X5751015Y-17846960D02*
X5741491Y-17837436D01*
X5741491Y-17837436D02*
X5731967Y-17818389D01*
X5731967Y-17818389D02*
X5722443Y-17780293D01*
X5722443Y-17780293D02*
X5722443Y-17732674D01*
X5722443Y-17732674D02*
X5731967Y-17694579D01*
X5731967Y-17694579D02*
X5741491Y-17675531D01*
X5741491Y-17675531D02*
X5751015Y-17666008D01*
X5751015Y-17666008D02*
X5770062Y-17656484D01*
X5960539Y-17656484D02*
X5979586Y-17656484D01*
X5979586Y-17656484D02*
X5998634Y-17666008D01*
X5998634Y-17666008D02*
X6008158Y-17675531D01*
X6008158Y-17675531D02*
X6017682Y-17694579D01*
X6017682Y-17694579D02*
X6027205Y-17732674D01*
X6027205Y-17732674D02*
X6027205Y-17780293D01*
X6027205Y-17780293D02*
X6017682Y-17818389D01*
X6017682Y-17818389D02*
X6008158Y-17837436D01*
X6008158Y-17837436D02*
X5998634Y-17846960D01*
X5998634Y-17846960D02*
X5979586Y-17856484D01*
X5979586Y-17856484D02*
X5960539Y-17856484D01*
X5960539Y-17856484D02*
X5941491Y-17846960D01*
X5941491Y-17846960D02*
X5931967Y-17837436D01*
X5931967Y-17837436D02*
X5922443Y-17818389D01*
X5922443Y-17818389D02*
X5912920Y-17780293D01*
X5912920Y-17780293D02*
X5912920Y-17732674D01*
X5912920Y-17732674D02*
X5922443Y-17694579D01*
X5922443Y-17694579D02*
X5931967Y-17675531D01*
X5931967Y-17675531D02*
X5941491Y-17666008D01*
X5941491Y-17666008D02*
X5960539Y-17656484D01*
X6112920Y-17856484D02*
X6112920Y-17723150D01*
X6112920Y-17742198D02*
X6122443Y-17732674D01*
X6122443Y-17732674D02*
X6141491Y-17723150D01*
X6141491Y-17723150D02*
X6170063Y-17723150D01*
X6170063Y-17723150D02*
X6189110Y-17732674D01*
X6189110Y-17732674D02*
X6198634Y-17751722D01*
X6198634Y-17751722D02*
X6198634Y-17856484D01*
X6198634Y-17751722D02*
X6208158Y-17732674D01*
X6208158Y-17732674D02*
X6227205Y-17723150D01*
X6227205Y-17723150D02*
X6255777Y-17723150D01*
X6255777Y-17723150D02*
X6274824Y-17732674D01*
X6274824Y-17732674D02*
X6284348Y-17751722D01*
X6284348Y-17751722D02*
X6284348Y-17856484D01*
X6379586Y-17856484D02*
X6379586Y-17723150D01*
X6379586Y-17742198D02*
X6389110Y-17732674D01*
X6389110Y-17732674D02*
X6408158Y-17723150D01*
X6408158Y-17723150D02*
X6436729Y-17723150D01*
X6436729Y-17723150D02*
X6455777Y-17732674D01*
X6455777Y-17732674D02*
X6465301Y-17751722D01*
X6465301Y-17751722D02*
X6465301Y-17856484D01*
X6465301Y-17751722D02*
X6474824Y-17732674D01*
X6474824Y-17732674D02*
X6493872Y-17723150D01*
X6493872Y-17723150D02*
X6522443Y-17723150D01*
X6522443Y-17723150D02*
X6541491Y-17732674D01*
X6541491Y-17732674D02*
X6551015Y-17751722D01*
X6551015Y-17751722D02*
X6551015Y-17856484D01*
X6941491Y-17646960D02*
X6770063Y-17904103D01*
X7198634Y-17656484D02*
X7217682Y-17656484D01*
X7217682Y-17656484D02*
X7236729Y-17666008D01*
X7236729Y-17666008D02*
X7246253Y-17675531D01*
X7246253Y-17675531D02*
X7255777Y-17694579D01*
X7255777Y-17694579D02*
X7265301Y-17732674D01*
X7265301Y-17732674D02*
X7265301Y-17780293D01*
X7265301Y-17780293D02*
X7255777Y-17818389D01*
X7255777Y-17818389D02*
X7246253Y-17837436D01*
X7246253Y-17837436D02*
X7236729Y-17846960D01*
X7236729Y-17846960D02*
X7217682Y-17856484D01*
X7217682Y-17856484D02*
X7198634Y-17856484D01*
X7198634Y-17856484D02*
X7179586Y-17846960D01*
X7179586Y-17846960D02*
X7170063Y-17837436D01*
X7170063Y-17837436D02*
X7160539Y-17818389D01*
X7160539Y-17818389D02*
X7151015Y-17780293D01*
X7151015Y-17780293D02*
X7151015Y-17732674D01*
X7151015Y-17732674D02*
X7160539Y-17694579D01*
X7160539Y-17694579D02*
X7170063Y-17675531D01*
X7170063Y-17675531D02*
X7179586Y-17666008D01*
X7179586Y-17666008D02*
X7198634Y-17656484D01*
X7351015Y-17837436D02*
X7360539Y-17846960D01*
X7360539Y-17846960D02*
X7351015Y-17856484D01*
X7351015Y-17856484D02*
X7341491Y-17846960D01*
X7341491Y-17846960D02*
X7351015Y-17837436D01*
X7351015Y-17837436D02*
X7351015Y-17856484D01*
X7484348Y-17656484D02*
X7503396Y-17656484D01*
X7503396Y-17656484D02*
X7522444Y-17666008D01*
X7522444Y-17666008D02*
X7531967Y-17675531D01*
X7531967Y-17675531D02*
X7541491Y-17694579D01*
X7541491Y-17694579D02*
X7551015Y-17732674D01*
X7551015Y-17732674D02*
X7551015Y-17780293D01*
X7551015Y-17780293D02*
X7541491Y-17818389D01*
X7541491Y-17818389D02*
X7531967Y-17837436D01*
X7531967Y-17837436D02*
X7522444Y-17846960D01*
X7522444Y-17846960D02*
X7503396Y-17856484D01*
X7503396Y-17856484D02*
X7484348Y-17856484D01*
X7484348Y-17856484D02*
X7465301Y-17846960D01*
X7465301Y-17846960D02*
X7455777Y-17837436D01*
X7455777Y-17837436D02*
X7446253Y-17818389D01*
X7446253Y-17818389D02*
X7436729Y-17780293D01*
X7436729Y-17780293D02*
X7436729Y-17732674D01*
X7436729Y-17732674D02*
X7446253Y-17694579D01*
X7446253Y-17694579D02*
X7455777Y-17675531D01*
X7455777Y-17675531D02*
X7465301Y-17666008D01*
X7465301Y-17666008D02*
X7484348Y-17656484D01*
X7646253Y-17856484D02*
X7684348Y-17856484D01*
X7684348Y-17856484D02*
X7703396Y-17846960D01*
X7703396Y-17846960D02*
X7712920Y-17837436D01*
X7712920Y-17837436D02*
X7731967Y-17808865D01*
X7731967Y-17808865D02*
X7741491Y-17770770D01*
X7741491Y-17770770D02*
X7741491Y-17694579D01*
X7741491Y-17694579D02*
X7731967Y-17675531D01*
X7731967Y-17675531D02*
X7722444Y-17666008D01*
X7722444Y-17666008D02*
X7703396Y-17656484D01*
X7703396Y-17656484D02*
X7665301Y-17656484D01*
X7665301Y-17656484D02*
X7646253Y-17666008D01*
X7646253Y-17666008D02*
X7636729Y-17675531D01*
X7636729Y-17675531D02*
X7627206Y-17694579D01*
X7627206Y-17694579D02*
X7627206Y-17742198D01*
X7627206Y-17742198D02*
X7636729Y-17761246D01*
X7636729Y-17761246D02*
X7646253Y-17770770D01*
X7646253Y-17770770D02*
X7665301Y-17780293D01*
X7665301Y-17780293D02*
X7703396Y-17780293D01*
X7703396Y-17780293D02*
X7722444Y-17770770D01*
X7722444Y-17770770D02*
X7731967Y-17761246D01*
X7731967Y-17761246D02*
X7741491Y-17742198D01*
X7855777Y-17742198D02*
X7836729Y-17732674D01*
X7836729Y-17732674D02*
X7827206Y-17723150D01*
X7827206Y-17723150D02*
X7817682Y-17704103D01*
X7817682Y-17704103D02*
X7817682Y-17694579D01*
X7817682Y-17694579D02*
X7827206Y-17675531D01*
X7827206Y-17675531D02*
X7836729Y-17666008D01*
X7836729Y-17666008D02*
X7855777Y-17656484D01*
X7855777Y-17656484D02*
X7893872Y-17656484D01*
X7893872Y-17656484D02*
X7912920Y-17666008D01*
X7912920Y-17666008D02*
X7922444Y-17675531D01*
X7922444Y-17675531D02*
X7931967Y-17694579D01*
X7931967Y-17694579D02*
X7931967Y-17704103D01*
X7931967Y-17704103D02*
X7922444Y-17723150D01*
X7922444Y-17723150D02*
X7912920Y-17732674D01*
X7912920Y-17732674D02*
X7893872Y-17742198D01*
X7893872Y-17742198D02*
X7855777Y-17742198D01*
X7855777Y-17742198D02*
X7836729Y-17751722D01*
X7836729Y-17751722D02*
X7827206Y-17761246D01*
X7827206Y-17761246D02*
X7817682Y-17780293D01*
X7817682Y-17780293D02*
X7817682Y-17818389D01*
X7817682Y-17818389D02*
X7827206Y-17837436D01*
X7827206Y-17837436D02*
X7836729Y-17846960D01*
X7836729Y-17846960D02*
X7855777Y-17856484D01*
X7855777Y-17856484D02*
X7893872Y-17856484D01*
X7893872Y-17856484D02*
X7912920Y-17846960D01*
X7912920Y-17846960D02*
X7922444Y-17837436D01*
X7922444Y-17837436D02*
X7931967Y-17818389D01*
X7931967Y-17818389D02*
X7931967Y-17780293D01*
X7931967Y-17780293D02*
X7922444Y-17761246D01*
X7922444Y-17761246D02*
X7912920Y-17751722D01*
X7912920Y-17751722D02*
X7893872Y-17742198D01*
X8103396Y-17723150D02*
X8103396Y-17856484D01*
X8055777Y-17646960D02*
X8008158Y-17789817D01*
X8008158Y-17789817D02*
X8131967Y-17789817D01*
X8198634Y-17656484D02*
X8198634Y-17694579D01*
X8274825Y-17656484D02*
X8274825Y-17694579D01*
X8570063Y-17932674D02*
X8560539Y-17923150D01*
X8560539Y-17923150D02*
X8541491Y-17894579D01*
X8541491Y-17894579D02*
X8531968Y-17875531D01*
X8531968Y-17875531D02*
X8522444Y-17846960D01*
X8522444Y-17846960D02*
X8512920Y-17799341D01*
X8512920Y-17799341D02*
X8512920Y-17761246D01*
X8512920Y-17761246D02*
X8522444Y-17713627D01*
X8522444Y-17713627D02*
X8531968Y-17685055D01*
X8531968Y-17685055D02*
X8541491Y-17666008D01*
X8541491Y-17666008D02*
X8560539Y-17637436D01*
X8560539Y-17637436D02*
X8570063Y-17627912D01*
X8731968Y-17723150D02*
X8731968Y-17856484D01*
X8684349Y-17646960D02*
X8636730Y-17789817D01*
X8636730Y-17789817D02*
X8760539Y-17789817D01*
X8989111Y-17856484D02*
X8989111Y-17656484D01*
X9074825Y-17856484D02*
X9074825Y-17751722D01*
X9074825Y-17751722D02*
X9065301Y-17732674D01*
X9065301Y-17732674D02*
X9046253Y-17723150D01*
X9046253Y-17723150D02*
X9017682Y-17723150D01*
X9017682Y-17723150D02*
X8998634Y-17732674D01*
X8998634Y-17732674D02*
X8989111Y-17742198D01*
X9198634Y-17856484D02*
X9179587Y-17846960D01*
X9179587Y-17846960D02*
X9170063Y-17837436D01*
X9170063Y-17837436D02*
X9160539Y-17818389D01*
X9160539Y-17818389D02*
X9160539Y-17761246D01*
X9160539Y-17761246D02*
X9170063Y-17742198D01*
X9170063Y-17742198D02*
X9179587Y-17732674D01*
X9179587Y-17732674D02*
X9198634Y-17723150D01*
X9198634Y-17723150D02*
X9227206Y-17723150D01*
X9227206Y-17723150D02*
X9246253Y-17732674D01*
X9246253Y-17732674D02*
X9255777Y-17742198D01*
X9255777Y-17742198D02*
X9265301Y-17761246D01*
X9265301Y-17761246D02*
X9265301Y-17818389D01*
X9265301Y-17818389D02*
X9255777Y-17837436D01*
X9255777Y-17837436D02*
X9246253Y-17846960D01*
X9246253Y-17846960D02*
X9227206Y-17856484D01*
X9227206Y-17856484D02*
X9198634Y-17856484D01*
X9379587Y-17856484D02*
X9360539Y-17846960D01*
X9360539Y-17846960D02*
X9351015Y-17827912D01*
X9351015Y-17827912D02*
X9351015Y-17656484D01*
X9531968Y-17846960D02*
X9512920Y-17856484D01*
X9512920Y-17856484D02*
X9474825Y-17856484D01*
X9474825Y-17856484D02*
X9455777Y-17846960D01*
X9455777Y-17846960D02*
X9446253Y-17827912D01*
X9446253Y-17827912D02*
X9446253Y-17751722D01*
X9446253Y-17751722D02*
X9455777Y-17732674D01*
X9455777Y-17732674D02*
X9474825Y-17723150D01*
X9474825Y-17723150D02*
X9512920Y-17723150D01*
X9512920Y-17723150D02*
X9531968Y-17732674D01*
X9531968Y-17732674D02*
X9541492Y-17751722D01*
X9541492Y-17751722D02*
X9541492Y-17770770D01*
X9541492Y-17770770D02*
X9446253Y-17789817D01*
X9617682Y-17846960D02*
X9636730Y-17856484D01*
X9636730Y-17856484D02*
X9674825Y-17856484D01*
X9674825Y-17856484D02*
X9693873Y-17846960D01*
X9693873Y-17846960D02*
X9703396Y-17827912D01*
X9703396Y-17827912D02*
X9703396Y-17818389D01*
X9703396Y-17818389D02*
X9693873Y-17799341D01*
X9693873Y-17799341D02*
X9674825Y-17789817D01*
X9674825Y-17789817D02*
X9646253Y-17789817D01*
X9646253Y-17789817D02*
X9627206Y-17780293D01*
X9627206Y-17780293D02*
X9617682Y-17761246D01*
X9617682Y-17761246D02*
X9617682Y-17751722D01*
X9617682Y-17751722D02*
X9627206Y-17732674D01*
X9627206Y-17732674D02*
X9646253Y-17723150D01*
X9646253Y-17723150D02*
X9674825Y-17723150D01*
X9674825Y-17723150D02*
X9693873Y-17732674D01*
X9770063Y-17932674D02*
X9779587Y-17923150D01*
X9779587Y-17923150D02*
X9798634Y-17894579D01*
X9798634Y-17894579D02*
X9808158Y-17875531D01*
X9808158Y-17875531D02*
X9817682Y-17846960D01*
X9817682Y-17846960D02*
X9827206Y-17799341D01*
X9827206Y-17799341D02*
X9827206Y-17761246D01*
X9827206Y-17761246D02*
X9817682Y-17713627D01*
X9817682Y-17713627D02*
X9808158Y-17685055D01*
X9808158Y-17685055D02*
X9798634Y-17666008D01*
X9798634Y-17666008D02*
X9779587Y-17637436D01*
X9779587Y-17637436D02*
X9770063Y-17627912D01*
M02*
